<?xml version="1.0" encoding="UTF-8"?>
<svg id="Capa_2" data-name="Capa 2" xmlns="http://www.w3.org/2000/svg" xmlns:xlink="http://www.w3.org/1999/xlink" viewBox="0 0 89.13 53.91">
  <defs>
    <style>
      .cls-1 {
        fill: none;
      }

      .cls-2, .cls-3 {
        fill: #001521;
      }

      .cls-4 {
        fill: #222f44;
      }

      .cls-5 {
        fill: #d1d3d4;
      }

      .cls-6 {
        fill: #ccdde7;
      }

      .cls-7 {
        fill: #e3f1fb;
      }

      .cls-3 {
        opacity: .8;
      }

      .cls-3, .cls-8, .cls-9, .cls-10 {
        isolation: isolate;
      }

      .cls-11 {
        fill: #231f20;
      }

      .cls-12 {
        fill: #005386;
      }

      .cls-13 {
        fill: #6698b6;
      }

      .cls-8 {
        fill: #ececee;
        opacity: .5;
      }

      .cls-14 {
        fill: #bcbec0;
      }

      .cls-15 {
        fill: #262014;
      }

      .cls-16 {
        fill: #33444d;
      }

      .cls-17 {
        fill: #ccf1f4;
      }

      .cls-18 {
        fill: #f1f2f2;
      }

      .cls-19 {
        fill: #003e65;
      }

      .cls-20 {
        fill: #fff;
      }

      .cls-21 {
        fill: #f59896;
      }

      .cls-22 {
        fill: #002a43;
      }

      .cls-23 {
        fill: url(#Degradado_sin_nombre_8);
      }

      .cls-24 {
        opacity: .4;
      }

      .cls-9 {
        opacity: .1;
      }

      .cls-9, .cls-10, .cls-25 {
        fill: #322a1b;
      }

      .cls-10 {
        opacity: .2;
      }

      .cls-26 {
        fill: #daeaf9;
      }

      .cls-27 {
        fill: #d3d5da;
      }

      .cls-28 {
        fill: #ebf1f5;
      }

      .cls-29 {
        fill: #6063ab;
      }

      .cls-30 {
        fill: #5b5549;
      }

      .cls-31 {
        fill: #335569;
      }

      .cls-32 {
        fill: #d9eaf4;
      }

      .cls-33 {
        fill: #a7a9ac;
      }
    </style>
    <linearGradient id="Degradado_sin_nombre_8" data-name="Degradado sin nombre 8" x1="71.22" y1="-678.91" x2="67.17" y2="-690.05" gradientTransform="translate(0 -682.12) scale(1 -1)" gradientUnits="userSpaceOnUse">
      <stop offset="0" stop-color="#fff"/>
      <stop offset="1" stop-color="#000"/>
    </linearGradient>
  </defs>
  <g id="asistencia">
    <path class="cls-28" d="M39.13,53.61c-14.85-.02-42.22.35-38.85-1.52s21.21-.04,35.82-.67,27.85-1.35,42.79-.42c14.95.93,10.88,1.99,4.32,2.29-12.06.55-14.19.79-21.18.49-20.46-.89-17.13-.16-22.91-.17Z"/>
    <g>
      <g>
        <g>
          <polygon class="cls-22" points="70.93 20.81 65.44 20.81 66.36 16.31 70.01 16.31 70.93 20.81"/>
          <path class="cls-19" d="M71.63,21.36h-6.89c-.19,0-.35-.16-.35-.35h0c0-.19.16-.35.35-.35h6.89c.19,0,.35.16.35.35h0c0,.19-.16.35-.35.35Z"/>
        </g>
        <polygon class="cls-2" points="66.08 17.9 65.96 18.6 70.5 19.08 70.29 17.9 66.08 17.9"/>
      </g>
      <g>
        <path class="cls-19" d="M55.4,16.81c0,.6.49,1.09,1.09,1.09h23.39c.6,0,1.09-.49,1.09-1.09v-1.04h-25.57v1.04h0Z"/>
        <path class="cls-22" d="M79.83,0h-23.28c-.63,0-1.14.51-1.14,1.15v14.73h25.57V1.15c0-.63-.51-1.15-1.15-1.15Z"/>
        <rect class="cls-32" x="56.74" y="1.66" width="22.89" height="13.03"/>
      </g>
    </g>
    <g>
      <g>
        <path class="cls-6" d="M86.62,23.13H1.43v-1.2c0-.33.27-.6.6-.6h84c.33,0,.59.27.59.6v1.2Z"/>
        <rect class="cls-6" x="1.43" y="23.13" width="1.91" height="29.5"/>
      </g>
      <g>
        <path class="cls-6" d="M86.19,52.62h-16.16c-.24,0-.43-.19-.43-.43v-29.06h17.02v29.07c0,.24-.19.43-.43.43Z"/>
        <g>
          <rect class="cls-20" x="70.78" y="23.13" width="14.67" height="4.36"/>
          <path class="cls-7" d="M78.8,24.27h-1.37c-.55,0-1-.45-1-1v-.14h3.37v.14c0,.55-.45,1-1,1Z"/>
        </g>
        <g>
          <rect class="cls-20" x="70.78" y="28.83" width="14.67" height="4.36"/>
          <path class="cls-7" d="M78.8,29.97h-1.37c-.55,0-1-.45-1-1v-.14h3.37v.14c0,.55-.45,1-1,1Z"/>
        </g>
        <g>
          <rect class="cls-20" x="70.78" y="34.53" width="14.67" height="16.64"/>
          <rect class="cls-7" x="71.35" y="39.76" width=".55" height="4.25"/>
        </g>
      </g>
    </g>
    <g class="cls-24">
      <path class="cls-23" d="M79.83,0h-23.28c-.63,0-1.14.51-1.14,1.15v2.5c4.4.22,22.15,1.34,25.57,5.68V1.15c0-.63-.51-1.15-1.15-1.15Z"/>
    </g>
    <g>
      <g>
        <rect class="cls-29" x="56.74" y="1.66" width="22.89" height=".76"/>
        <rect class="cls-18" x="56.74" y="2.43" width="22.89" height="12.27"/>
        <g>
          <g>
            <g>
              <g>
                <g>
                  <rect class="cls-14" x="58.36" y="12.12" width="2.82" height=".17"/>
                  <rect class="cls-14" x="58.36" y="12.39" width="2.3" height=".12"/>
                </g>
                <path class="cls-29" d="M57.9,12.61h-.48s-.06-.03-.06-.06v-.48s.03-.06.06-.06h.48s.06.03.06.06v.48s-.03.06-.06.06Z"/>
              </g>
              <g>
                <rect class="cls-14" x="58.36" y="13.25" width="2.08" height=".17"/>
                <path class="cls-29" d="M57.9,13.64h-.48s-.06-.03-.06-.06v-.48s.03-.06.06-.06h.48s.06.03.06.06v.48s-.03.06-.06.06Z"/>
              </g>
              <g>
                <path class="cls-29" d="M57.9,11.59h-.48s-.06-.03-.06-.06v-.48s.03-.06.06-.06h.48s.06.03.06.06v.48s-.03.06-.06.06Z"/>
                <g>
                  <rect class="cls-14" x="58.36" y="11.06" width="1.89" height=".17"/>
                  <rect class="cls-14" x="59.83" y="11.34" width="1.35" height=".17"/>
                  <rect class="cls-14" x="58.36" y="11.34" width="1.27" height=".17"/>
                </g>
              </g>
            </g>
            <g>
              <g>
                <rect class="cls-14" x="57.36" y="3.6" width="2.2" height=".14"/>
                <rect class="cls-14" x="59.75" y="3.6" width="1.41" height=".14"/>
              </g>
              <g>
                <g>
                  <rect class="cls-14" x="58.36" y="5.74" width="1.89" height=".17"/>
                  <path class="cls-29" d="M57.9,6.13h-.48s-.06-.03-.06-.06v-.48s.03-.06.06-.06h.48s.06.03.06.06v.48s-.03.06-.06.06Z"/>
                </g>
                <g>
                  <rect class="cls-14" x="58.36" y="4.73" width="1.89" height=".17"/>
                  <path class="cls-29" d="M57.9,5.12h-.48s-.06-.03-.06-.06v-.48s.03-.06.06-.06h.48s.06.03.06.06v.48s-.03.06-.06.06Z"/>
                </g>
                <g>
                  <rect class="cls-14" x="58.36" y="6.75" width="2.08" height=".17"/>
                  <path class="cls-29" d="M57.9,7.14h-.48s-.06-.03-.06-.06v-.48s.03-.06.06-.06h.48s.06.03.06.06v.48s-.03.06-.06.06Z"/>
                </g>
                <g>
                  <rect class="cls-14" x="58.36" y="7.76" width="2.27" height=".17"/>
                  <path class="cls-29" d="M57.9,8.15h-.48s-.06-.03-.06-.06v-.48s.03-.06.06-.06h.48s.06.03.06.06v.48s-.03.06-.06.06Z"/>
                </g>
                <g>
                  <rect class="cls-14" x="58.36" y="8.77" width="1.57" height=".17"/>
                  <path class="cls-29" d="M57.9,9.16h-.48s-.06-.03-.06-.06v-.48s.03-.06.06-.06h.48s.06.03.06.06v.48s-.03.06-.06.06Z"/>
                </g>
              </g>
            </g>
            <rect class="cls-14" x="57.36" y="10.04" width="4.18" height=".02"/>
          </g>
          <g>
            <g>
              <rect class="cls-20" x="63.21" y="3.2" width="15.82" height="1.24"/>
              <g>
                <path class="cls-29" d="M64.29,3.82c0,.23-.19.42-.42.42s-.42-.19-.42-.42.19-.42.42-.42.42.19.42.42Z"/>
                <g>
                  <path class="cls-18" d="M70.67,4.16h-5.64c-.19,0-.34-.15-.34-.34h0c0-.19.15-.34.34-.34h5.64c.19,0,.34.15.34.34h0c0,.19-.15.34-.34.34Z"/>
                  <path class="cls-5" d="M70.67,4.19h-5.64c-.2,0-.37-.17-.37-.37s.17-.37.37-.37h5.64c.2,0,.37.17.37.37,0,.2-.17.37-.37.37ZM65.03,3.51c-.17,0-.31.14-.31.31s.14.31.31.31h5.64c.17,0,.31-.14.31-.31s-.14-.31-.31-.31h-5.64Z"/>
                </g>
                <rect class="cls-27" x="76.72" y="3.74" width="1.28" height=".16"/>
              </g>
            </g>
            <g>
              <rect class="cls-20" x="63.21" y="4.88" width="15.82" height="9.81"/>
              <g>
                <g>
                  <rect class="cls-27" x="63.66" y="5.26" width="1.28" height=".16"/>
                  <rect class="cls-27" x="65.42" y="5.26" width="1.28" height=".16"/>
                </g>
                <g>
                  <rect class="cls-27" x="76.72" y="5.26" width="1.28" height=".16"/>
                  <polygon class="cls-27" points="78.48 5.48 78.3 5.3 78.34 5.26 78.48 5.4 78.63 5.26 78.67 5.3 78.48 5.48"/>
                </g>
              </g>
              <g>
                <rect class="cls-29" x="63.21" y="8.05" width="15.82" height="1.09"/>
                <g>
                  <rect class="cls-5" x="63.21" y="6.92" width="15.82" height=".05"/>
                  <rect class="cls-5" x="63.21" y="5.82" width="15.82" height=".05"/>
                  <rect class="cls-5" x="63.21" y="8.03" width="15.82" height=".05"/>
                  <rect class="cls-5" x="63.21" y="9.12" width="15.82" height=".05"/>
                  <rect class="cls-5" x="63.21" y="10.24" width="15.82" height=".05"/>
                  <rect class="cls-5" x="63.21" y="11.35" width="15.82" height=".05"/>
                  <rect class="cls-5" x="63.21" y="12.43" width="15.82" height=".04"/>
                  <rect class="cls-5" x="63.21" y="13.56" width="15.82" height=".04"/>
                </g>
              </g>
              <g>
                <g>
                  <g>
                    <rect class="cls-27" x="64.52" y="6.35" width="2.8" height=".16"/>
                    <path class="cls-29" d="M64.2,6.43c0,.15-.12.27-.27.27s-.27-.12-.27-.27.12-.27.27-.27c.15,0,.27.12.27.27Z"/>
                  </g>
                  <g>
                    <rect class="cls-27" x="64.52" y="7.43" width="1.61" height=".16"/>
                    <path class="cls-29" d="M64.2,7.51c0,.15-.12.27-.27.27s-.27-.12-.27-.27.12-.27.27-.27c.15,0,.27.12.27.27Z"/>
                  </g>
                  <g>
                    <rect class="cls-17" x="64.52" y="8.52" width="2.25" height=".16"/>
                    <path class="cls-17" d="M64.2,8.61c0,.15-.12.27-.27.27s-.27-.12-.27-.27.12-.27.27-.27.27.12.27.27Z"/>
                  </g>
                  <g>
                    <rect class="cls-27" x="64.52" y="9.62" width="2.66" height=".16"/>
                    <path class="cls-29" d="M64.2,9.7c0,.15-.12.27-.27.27s-.27-.12-.27-.27.12-.27.27-.27c.15,0,.27.12.27.27Z"/>
                  </g>
                  <g>
                    <rect class="cls-27" x="64.52" y="10.71" width="3.67" height=".16"/>
                    <path class="cls-29" d="M64.2,10.79c0,.15-.12.27-.27.27s-.27-.12-.27-.27.12-.27.27-.27.27.12.27.27Z"/>
                  </g>
                  <g>
                    <rect class="cls-27" x="64.52" y="11.85" width="1.63" height=".16"/>
                    <path class="cls-29" d="M64.2,11.93c0,.15-.12.27-.27.27s-.27-.12-.27-.27.12-.27.27-.27c.15,0,.27.12.27.27Z"/>
                  </g>
                  <g>
                    <rect class="cls-27" x="64.52" y="12.92" width="1.05" height=".16"/>
                    <path class="cls-29" d="M64.2,13.01c0,.15-.12.27-.27.27s-.27-.12-.27-.27.12-.27.27-.27.27.12.27.27Z"/>
                  </g>
                  <g>
                    <rect class="cls-27" x="64.52" y="14.06" width="2.58" height=".16"/>
                    <path class="cls-29" d="M64.2,14.15c0,.15-.12.27-.27.27s-.27-.12-.27-.27.12-.27.27-.27.27.12.27.27Z"/>
                  </g>
                </g>
                <g>
                  <g>
                    <rect class="cls-33" x="69.39" y="6.35" width="2.8" height=".16"/>
                    <rect class="cls-33" x="69.39" y="7.43" width="1.61" height=".16"/>
                    <rect class="cls-17" x="69.39" y="8.52" width="2.25" height=".16"/>
                    <rect class="cls-33" x="69.39" y="9.62" width="2.66" height=".16"/>
                    <rect class="cls-33" x="69.39" y="10.71" width="3.67" height=".16"/>
                    <rect class="cls-33" x="69.39" y="11.85" width="1.63" height=".16"/>
                    <rect class="cls-33" x="69.39" y="12.92" width="1.05" height=".16"/>
                    <rect class="cls-33" x="69.39" y="14.06" width="2.58" height=".16"/>
                  </g>
                  <g>
                    <rect class="cls-27" x="72.28" y="6.35" width="4.5" height=".16"/>
                    <rect class="cls-27" x="71.08" y="7.43" width="5.71" height=".16"/>
                    <rect class="cls-17" x="71.71" y="8.52" width="5.08" height=".16"/>
                    <rect class="cls-27" x="72.11" y="9.62" width="4.67" height=".16"/>
                    <rect class="cls-27" x="73.15" y="10.71" width="3.64" height=".16"/>
                    <rect class="cls-27" x="71.09" y="11.85" width="5.7" height=".16"/>
                    <rect class="cls-27" x="70.48" y="12.92" width="6.3" height=".16"/>
                    <rect class="cls-27" x="72.04" y="14.06" width="4.74" height=".16"/>
                  </g>
                </g>
                <g>
                  <g>
                    <g>
                      <rect class="cls-27" x="77.33" y="6.35" width=".28" height=".16"/>
                      <rect class="cls-27" x="78.58" y="6.35" width=".28" height=".16"/>
                      <rect class="cls-27" x="77.89" y="6.35" width=".37" height=".16"/>
                    </g>
                    <g>
                      <polygon class="cls-5" points="77.72 6.57 77.7 6.56 77.8 6.3 77.82 6.31 77.72 6.57"/>
                      <polygon class="cls-5" points="78.39 6.57 78.37 6.56 78.48 6.3 78.5 6.31 78.39 6.57"/>
                    </g>
                  </g>
                  <g>
                    <g>
                      <rect class="cls-17" x="77.33" y="8.52" width=".28" height=".16"/>
                      <rect class="cls-17" x="78.58" y="8.52" width=".28" height=".16"/>
                      <rect class="cls-17" x="77.89" y="8.52" width=".37" height=".16"/>
                    </g>
                    <g>
                      <polygon class="cls-17" points="77.72 8.74 77.7 8.73 77.8 8.47 77.82 8.48 77.72 8.74"/>
                      <polygon class="cls-17" points="78.39 8.74 78.37 8.73 78.48 8.47 78.5 8.48 78.39 8.74"/>
                    </g>
                  </g>
                  <g>
                    <g>
                      <rect class="cls-27" x="77.33" y="9.62" width=".28" height=".16"/>
                      <rect class="cls-27" x="78.58" y="9.62" width=".28" height=".16"/>
                      <rect class="cls-27" x="77.89" y="9.62" width=".37" height=".16"/>
                    </g>
                    <g>
                      <polygon class="cls-5" points="77.72 9.83 77.7 9.82 77.8 9.56 77.82 9.57 77.72 9.83"/>
                      <polygon class="cls-5" points="78.39 9.83 78.37 9.82 78.48 9.56 78.5 9.57 78.39 9.83"/>
                    </g>
                  </g>
                  <g>
                    <g>
                      <rect class="cls-27" x="77.33" y="10.71" width=".28" height=".16"/>
                      <rect class="cls-27" x="78.58" y="10.71" width=".28" height=".16"/>
                      <rect class="cls-27" x="77.89" y="10.71" width=".37" height=".16"/>
                    </g>
                    <g>
                      <polygon class="cls-5" points="77.72 10.93 77.7 10.92 77.8 10.66 77.82 10.67 77.72 10.93"/>
                      <polygon class="cls-5" points="78.39 10.93 78.37 10.92 78.48 10.66 78.5 10.67 78.39 10.93"/>
                    </g>
                  </g>
                  <g>
                    <g>
                      <rect class="cls-27" x="77.33" y="11.85" width=".28" height=".16"/>
                      <rect class="cls-27" x="78.58" y="11.85" width=".28" height=".16"/>
                      <rect class="cls-27" x="77.89" y="11.85" width=".37" height=".16"/>
                    </g>
                    <g>
                      <polygon class="cls-5" points="77.72 12.07 77.7 12.06 77.8 11.8 77.82 11.81 77.72 12.07"/>
                      <polygon class="cls-5" points="78.39 12.07 78.37 12.06 78.48 11.8 78.5 11.81 78.39 12.07"/>
                    </g>
                  </g>
                  <g>
                    <g>
                      <rect class="cls-27" x="77.33" y="12.92" width=".28" height=".16"/>
                      <rect class="cls-27" x="78.58" y="12.92" width=".28" height=".16"/>
                      <rect class="cls-27" x="77.89" y="12.92" width=".37" height=".16"/>
                    </g>
                    <g>
                      <polygon class="cls-5" points="77.72 13.14 77.7 13.13 77.8 12.87 77.82 12.88 77.72 13.14"/>
                      <polygon class="cls-5" points="78.39 13.14 78.37 13.13 78.48 12.87 78.5 12.88 78.39 13.14"/>
                    </g>
                  </g>
                  <g>
                    <g>
                      <rect class="cls-27" x="77.33" y="14.06" width=".28" height=".16"/>
                      <rect class="cls-27" x="78.58" y="14.06" width=".28" height=".16"/>
                      <rect class="cls-27" x="77.89" y="14.06" width=".37" height=".16"/>
                    </g>
                    <g>
                      <polygon class="cls-5" points="77.72 14.28 77.7 14.27 77.8 14.01 77.82 14.02 77.72 14.28"/>
                      <polygon class="cls-5" points="78.39 14.28 78.37 14.27 78.48 14.01 78.5 14.02 78.39 14.28"/>
                    </g>
                  </g>
                  <g>
                    <g>
                      <rect class="cls-27" x="77.33" y="7.43" width=".28" height=".16"/>
                      <rect class="cls-27" x="78.58" y="7.43" width=".28" height=".16"/>
                      <rect class="cls-27" x="77.89" y="7.43" width=".37" height=".16"/>
                    </g>
                    <g>
                      <polygon class="cls-5" points="77.72 7.65 77.7 7.64 77.8 7.38 77.82 7.39 77.72 7.65"/>
                      <polygon class="cls-5" points="78.39 7.65 78.37 7.64 78.48 7.38 78.5 7.39 78.39 7.65"/>
                    </g>
                  </g>
                </g>
              </g>
            </g>
          </g>
        </g>
      </g>
      <polygon class="cls-11" points="68.09 9.27 68.07 9.96 68.29 9.77 68.58 9.76 68.09 9.27"/>
      <g>
        <circle class="cls-29" cx="77.68" cy="2.04" r=".22"/>
        <circle class="cls-29" cx="78.25" cy="2.04" r=".22"/>
        <path class="cls-29" d="M79.03,2.04c0,.12-.1.22-.22.22s-.22-.1-.22-.22.1-.22.22-.22c.12,0,.22.1.22.22Z"/>
      </g>
    </g>
    <g>
      <g>
        <polygon class="cls-2" points="29.5 33.54 44.36 33.2 49.17 34.25 30.69 34.67 29.5 33.54"/>
        <g>
          <g>
            <g>
              <path class="cls-29" d="M26.7,21.36l.2.02c.68.05,1.18-.45,1.37-1.11.64-2.24,2.97-5.99,3.62-8.12.32-1.04-.1-2.14-1.18-2.23l-.26.07c-1.37.4-2.11,1.4-2.44,2.43-.7,2.21-2.2,5.17-2.53,7.33-.14.94.53,1.55,1.21,1.6Z"/>
              <path class="cls-29" d="M35,21.54l.43-1.79s-6.55-1.05-8.86-.88c-.7.06-1.23.65-1.06,1.33l.06.22c.17.68.71.94,1.55.94l7.88.17Z"/>
            </g>
            <g>
              <g>
                <path class="cls-4" d="M56.82,21.36s-2.26.02-3.04-.01c-.11,0,0-.42,0-.42l.07-.26c.1-.37.44-.63.82-.63h0c.14,0,.28.03.4.1,0,0,1.47.54,1.72.96.04.06.02.26.02.26Z"/>
                <path class="cls-21" d="M49.63,19.91h2.53s1.9-.54,1.9-.54l1.78.17.7.66c.07.1.02.23-.09.27l-.05.02c-.07.02-.15,0-.19-.06l-.54-.41h-.66s.84.31.84.31l.37.79-.04.14-.32.12h-2.3l-1.36-.03-2.56.17v-1.59h0Z"/>
              </g>
              <g>
                <path class="cls-29" d="M43.86,21.37l.13-.16c.44-.52.45-1.31.03-1.84-1.45-1.83-4.25-6.61-5.56-8.4-.56-.77-1.61-.84-2.31-.02l-.12.16c-.48,1.35.22,2.54.86,3.41,1.38,1.86,3.4,5.36,4.96,6.9.67.66,1.56.47,2-.05Z"/>
                <path class="cls-29" d="M50.84,21.55l.21-1.79s-1.6-.19-4.05-.33c-1.45-.08-3.2-.2-4.02-.12-.7.07-1.45.39-1.56,1.26v.09c.2.68.71,1.2,1.54,1.18l7.88-.29Z"/>
              </g>
            </g>
            <g>
              <g>
                <g>
                  <g>
                    <path class="cls-21" d="M32.11,8.48l3.29-.03c.21,0,.5-.17.57-.38l.48-1.39.26.02c.11.01.19-.08.18-.18l-.17-1.3-.17-.33.06-.78.12-1.48-4.82-.24.13,4.93.07,1.17Z"/>
                    <path class="cls-21" d="M32.29,11.45l2.16.12c.12,0,.22-.08.22-.2l.2-3.58-2.72-.16-.2,3.44c-.01.19.14.36.33.37Z"/>
                  </g>
                  <path class="cls-22" d="M33.36,7.21c-.11.11-.26.16-.42.13l-.92-.07-.35-.5s-.08-.28-.1-.33l-.19-.6c-.02-.06-.03-.11-.04-.17l-.39-1.91c0-.13.27-1.04.36-1.14l.92-1.07c.07-.07.79-.44.89-.46l1.73.08s1.7.29,2.08,1.12c.02.05.08.27.11.41.03.15-.08.77-.44.97-.03.02.11-.72,0-.96,0-.01-1.35,0-1.42-.05l.1.26c.16.41.04.84-.24,1.18,0,.01-.02.02-.02.03,0,.08-.1.77-.22.74-.15-.04-.2-.45-.51-.29-.25.13-.21.55-.09,1.02.03.11,0,.23-.07.31l-.82,1.3Z"/>
                </g>
                <path class="cls-9" d="M33.91,8.04s.63.4.93.4v.24s-.77-.4-.93-.63Z"/>
                <g>
                  <path class="cls-10" d="M35.88,2.69h.07s-.04,0-.07,0h0Z"/>
                  <path class="cls-10" d="M36.64,2.7s-.34,0-.69-.01c0,0,.69.31.7.77.02-.23.06-.6-.01-.76Z"/>
                  <path class="cls-25" d="M36.76,3.1c0-.22-.03-.46-.13-.51-.1-.05-.4-.03-.4-.03l-.35.13s.05,0,.07,0h0c.35,0,.69,0,.69.01.07.16.03.52.01.76h0s.11-.14.11-.36Z"/>
                  <path class="cls-30" d="M36.76,3.1c0-.22.05-.43-.1-.5-.1-.05-.5-.05-.6-.04-.2.02-.62.12-.62.12.02,0,.49,0,.51,0h0c.35,0,.69,0,.69.01.07.16.03.52.01.76h0s.11-.14.11-.36Z"/>
                </g>
                <g class="cls-24">
                  <path class="cls-26" d="M36.98,5.57l-.37-.06c-.06-.02-.09-.07-.08-.13l.08-.7.59.02s.05.03.05.06l-.12.7c-.01.07-.08.12-.15.1Z"/>
                </g>
                <g>
                  <path class="cls-25" d="M37.27,4.7s-.04-.03-.07-.03l-.58-.02h0s-.06-.01-.06-.01v.07s0,0,0,0l-.07.66c-.01.08.03.15.11.17l.36.06s.03,0,.04,0c.03,0,.06,0,.08-.02.04-.02.06-.06.07-.11l.12-.7s0-.05-.02-.07ZM37.1,5.47s-.02.04-.04.06c-.02.01-.04.02-.07.01l-.36-.06s-.06-.05-.05-.09l.07-.66.56.02s0,0,.01,0c0,0,0,0,0,.01l-.12.7Z"/>
                  <polygon class="cls-25" points="37.23 4.88 34.77 4.8 34.72 4.68 37.25 4.75 37.23 4.88"/>
                </g>
              </g>
              <g>
                <polygon class="cls-29" points="31.9 9.33 34.86 9.44 35.38 9.97 31.75 9.84 31.9 9.33"/>
                <path class="cls-29" d="M30.28,28.56l10.97-1.08-.04-.32.27-.37-.49-.8s-.7-2.86-.97-4.88c-.2-1.48-.44-4.62-.68-6.42-.39-2.91-.54-4.31-2.44-4.59-1.36-.2-5.88-.29-5.88-.29-3.47.42-3.17,4.42-3.12,6.06.04,1.45.15,3.08.35,4.73.23,1.87,1.31,5.56,1.31,5.56v1.5s.58.41.58.41l.14.49Z"/>
              </g>
            </g>
          </g>
          <g>
            <polygon class="cls-1" points="51.76 30.4 51.42 29.91 49.45 30.25 51.3 30.37 51.3 30.37 51.76 30.4"/>
            <rect class="cls-15" x="51.54" y="30.13" height=".47"/>
            <g>
              <polygon class="cls-13" points="53.71 48.42 54.43 51.26 54.3 52.63 54.34 52.79 55.26 52.81 55.48 52.58 55.77 52.57 56.14 52.78 58.8 52.81 58.81 52.41 56.61 51.65 56.12 51.19 55.49 48.13 53.71 48.42"/>
              <path class="cls-22" d="M59.06,52.71v-.19c0-.1-.18-.19-.18-.19l-2.16-.66-.48-.5h0l-.19.27-1.06.06-.59-.23-.2,1.26h0s-.05,0-.05,0l-.04.44,1.41-.02v-.33s.08,0,.08,0h.14s.16.11.16.11l.17.22,2.77-.03c.2-.06.23-.11.23-.11v-.11Z"/>
            </g>
            <g>
              <polygon class="cls-13" points="60 41.55 61.98 44.11 62 45.16 62.31 45.62 63.19 45.38 63.31 45.14 63.55 45.04 64.02 45.22 66.59 44.47 66.49 44.13 64.07 44.03 63.52 43.63 61.68 40.57 60 41.55"/>
              <path class="cls-22" d="M66.78,44.33l-.04-.19c-.02-.1-.23-.13-.23-.13l-2.25-.08-.6-.36h0l-.11.31-1.01.34-.63-.07.13,1.27h0s-.05.02-.05.02l.08.44,1.35-.39-.08-.32.06-.02.14-.03.18.06.22.17,2.67-.74c.17-.11.19-.16.19-.16l-.03-.11Z"/>
            </g>
            <path class="cls-12" d="M41.65,29.76l10.55.66,1.07,1.11,2.88,18.45-2.84-.08s-1.66-6.36-2.15-8.58c-.39-1.74-1.35-7.26-1.35-7.26l-3.4-.16-13.41-.22c-1.08-.05-2.08-.66-2.3-2.07l-.58-3.47,11.13-.92.42,2.55Z"/>
            <g>
              <g>
                <polygon class="cls-1" points="51.42 29.91 49.45 30.25 51.76 30.4 51.42 29.91"/>
                <path class="cls-12" d="M53.83,26.21l-.11-.08c-.46-.31-1.03-.44-1.58-.35l-8.91,1.37-9.71,2.08,8.81.58,7.11.44,1.97-.34.34.49,1.64,2.81,1.64,2.45,5.19,7.27,2.58-.84-8.29-15.09c-.17-.31-.41-.57-.71-.77Z"/>
              </g>
              <polygon class="cls-19" points="41.35 29.74 49.45 30.25 48.84 30.51 41.35 29.74"/>
              <path class="cls-19" d="M51.76,30.4l-.46-.03s.48.99.67,1.29.47.78.76,1.12c.29.34.91,1.1.91,1.1l-.07-.44-.2-.33-1.6-2.72Z"/>
            </g>
          </g>
        </g>
      </g>
      <polygon class="cls-29" points="39.76 18.75 36.89 14.52 39.85 19.68 39.76 18.75"/>
    </g>
    <g>
      <g>
        <g>
          <g>
            <rect class="cls-31" x="39.24" y="34.5" width="1.16" height="14.99"/>
            <path class="cls-22" d="M45.77,50.66v-.73c0-.24-.19-.43-.43-.43h-11.03c-.24,0-.43.19-.43.43v.73h11.89Z"/>
            <path class="cls-2" d="M36.22,51.7c0-.82-.66-1.48-1.48-1.48s-1.48.66-1.48,1.48.66,1.48,1.48,1.48,1.48-.66,1.48-1.48Z"/>
            <circle class="cls-16" cx="34.74" cy="51.7" r="1.04"/>
            <path class="cls-8" d="M35.6,51.59s-.05-.02-.06-.05c-.07-.37-.38-.64-.75-.66-.03,0-.06-.03-.05-.06s.03-.06.06-.06c.42.03.78.34.86.75,0,.03-.02.06-.05.07,0,0,0,0-.01,0Z"/>
            <path class="cls-2" d="M41.35,51.7c0-.82-.66-1.48-1.48-1.48s-1.48.66-1.48,1.48.66,1.48,1.48,1.48,1.48-.66,1.48-1.48Z"/>
            <path class="cls-2" d="M46.48,51.7c0-.82-.66-1.48-1.48-1.48s-1.48.66-1.48,1.48.66,1.48,1.48,1.48,1.48-.66,1.48-1.48Z"/>
            <circle class="cls-16" cx="39.87" cy="51.7" r="1.04"/>
            <path class="cls-16" d="M46.04,51.7c0-.58-.47-1.04-1.04-1.04s-1.04.47-1.04,1.04.47,1.04,1.04,1.04,1.04-.47,1.04-1.04Z"/>
            <path class="cls-8" d="M40.69,51.59s-.05-.02-.06-.05c-.07-.37-.38-.64-.75-.66-.03,0-.06-.03-.05-.06,0-.03.03-.06.06-.06.42.03.78.34.86.75,0,.03-.01.06-.05.07,0,0,0,0-.01,0Z"/>
            <path class="cls-8" d="M45.86,51.59s-.05-.02-.06-.05c-.07-.37-.38-.64-.75-.66-.03,0-.06-.03-.05-.06,0-.03.03-.06.06-.06.42.03.78.34.86.75,0,.03-.02.06-.05.07,0,0,0,0-.01,0Z"/>
          </g>
          <path class="cls-22" d="M40.88,49.49h-2.2v-4.85c0-.16.13-.28.28-.28h1.64c.16,0,.28.13.28.28v4.85h0Z"/>
        </g>
        <path class="cls-22" d="M41.66,35.96l-3.44.14c-.42.02-.83-.12-1.15-.4l-1.04-.88,7.52-.31-.65.81c-.3.38-.75.6-1.24.62Z"/>
      </g>
      <g>
        <rect class="cls-8" x="39.91" y="36.26" width=".17" height="7.54"/>
        <rect class="cls-8" x="40.29" y="44.72" width=".23" height="4.44"/>
      </g>
      <g>
        <path class="cls-20" d="M45.67,34.19l-.88-.12.89-6.56c.07-.38-.04-.74-.28-1.01-.24-.27-.6-.42-.96-.4l-7.46.9-.11-.88,7.48-.9c.66-.04,1.27.21,1.7.69.43.48.61,1.11.5,1.74l-.89,6.55Z"/>
        <path class="cls-20" d="M31.31,35.23c-.72,0-1.41-.27-1.94-.78-.56-.53-.88-1.24-.89-2.02l-.1-6.52-2.12-8.69c-.06-.24.09-.48.33-.54.24-.06.48.09.54.33l2.14,8.79.1,6.62c0,.53.22,1.02.61,1.38s.89.55,1.42.53l12.33-.28c.25,0,.45.19.45.43,0,.24-.13.39-.37.4l-12.38.34s-.08,0-.12,0Z"/>
        <path class="cls-3" d="M30.55,34.18s.32.15.63.16c.3,0,1.96-.03,1.96-.03l4.93-.13-.92-.94-.15-2.14-.08-5.42-2.09-9.02s-1.97.55-5.09.67c-2.21.08-2.87-.2-2.87-.2l2.13,8.83.38,6.59c.01.15,0,.3.08.47l.12.26c.17.29.49.7.97.9Z"/>
        <path class="cls-20" d="M39.4,35.05c-.72,0-1.41-.27-1.94-.78-.56-.53-.88-1.24-.89-2.02l-.1-6.52-2.06-8.95c-.05-.24.09-.48.33-.53.24-.06.48.1.53.33l2.08,9.04v.05s.1,6.57.1,6.57c0,.53.22,1.02.61,1.38.39.36.89.55,1.42.53l9.23-.29c.23-.01.45.18.46.43,0,.24-.18.45-.43.46l-9.22.29s-.08,0-.12,0Z"/>
      </g>
    </g>
  </g>
</svg>