<?xml version="1.0" encoding="UTF-8"?>
<svg id="Capa_2" data-name="Capa 2" xmlns="http://www.w3.org/2000/svg" xmlns:xlink="http://www.w3.org/1999/xlink" viewBox="0 0 87.7 57.33">
  <defs>
    <style>
      .cls-1 {
        fill: none;
      }

      .cls-2 {
        fill: #d1d3d4;
      }

      .cls-3, .cls-4 {
        fill: #d6ebf6;
      }

      .cls-5 {
        opacity: .7;
      }

      .cls-5, .cls-6 {
        fill: #c8e5f7;
      }

      .cls-5, .cls-4, .cls-7 {
        isolation: isolate;
      }

      .cls-8 {
        fill: #fac2b9;
      }

      .cls-9 {
        fill: #bcbec0;
      }

      .cls-10 {
        fill: #99cde9;
      }

      .cls-11 {
        fill: #007ab8;
      }

      .cls-12 {
        fill: #29354d;
      }

      .cls-13 {
        fill: #fbcda6;
      }

      .cls-14 {
        fill: #339cd2;
      }

      .cls-15 {
        fill: #00466e;
      }

      .cls-16 {
        fill: #fee3a1;
      }

      .cls-17 {
        fill: #fbc9bb;
      }

      .cls-18 {
        fill: #fff;
      }

      .cls-19 {
        fill: #8bbfe3;
      }

      .cls-4 {
        opacity: .8;
      }

      .cls-20 {
        fill: #ebf5fb;
      }

      .cls-21 {
        fill: #002337;
      }

      .cls-22 {
        fill: #004165;
      }

      .cls-23 {
        fill: #fdb813;
      }

      .cls-24 {
        fill: #6063ab;
      }

      .cls-7 {
        opacity: .2;
      }

      .cls-7, .cls-25 {
        fill: #005d92;
      }

      .cls-26 {
        fill: #f9b3a7;
      }

      .cls-27 {
        fill: #b9dbf4;
      }

      .cls-28 {
        clip-path: url(#clippath);
      }

      .cls-29 {
        fill: #0083c7;
      }

      .cls-30 {
        fill: #a7a9ac;
      }
    </style>
    <clipPath id="clippath">
      <circle class="cls-1" cx="67.94" cy="24.97" r="1.3"/>
    </clipPath>
  </defs>
  <g id="sindatos">
    <g>
      <path class="cls-5" d="M.93,36.32c2.11-5.5,7.7-6.81,7.97-9.32.74-6.86-1.62-10.66,4.99-18.7,7.74-9.42,28.84-12.63,36.08.04,4.05,7.08,13.3-3.24,24.38,3.51,13.01,7.93,21.01,31.34,2.32,45.44l-62.23.04c-6.43,0-17.75-9.96-13.51-21.01Z"/>
      <path class="cls-6" d="M86.38,44.35c-8.97-3.42-18.6-8.93-39.63-16.05-12.28-4.16-25.39-5.15-37.68-4.53,0,1.02-.04,2.08-.17,3.23-.27,2.51-5.86,3.82-7.97,9.32-3.96,10.32,5.65,19.67,12.17,20.87,1.47-.01,2.36-.1,2.36-.1l61.35.09c4.95-3.78,8.01-8.22,9.58-12.84Z"/>
    </g>
    <path class="cls-19" d="M10.56,18.28h1.57c.1-.77.3-1.5.59-2.19l-1.36-.78c-.13-.08-.18-.25-.1-.38l.82-1.42c.08-.13.25-.18.38-.1l1.36.79c.42-.55.9-1.04,1.43-1.47l-.82-1.34c-.08-.13-.04-.3.09-.38l1.4-.86c.13-.08.3-.04.38.09l.82,1.34c.75-.33,1.55-.57,2.39-.67v-1.57c0-.15.12-.28.28-.28h1.64c.15,0,.28.12.28.28v1.57c.77.1,1.5.3,2.19.58l.78-1.36c.08-.13.25-.18.38-.1l1.42.82c.13.08.18.25.1.38l-.78,1.36c.55.42,1.04.9,1.47,1.43l1.34-.82c.13-.08.3-.04.38.09l.86,1.4c.08.13.04.3-.09.38l-1.34.82c.34.75.57,1.55.67,2.39h1.57c.15,0,.28.12.28.28v1.64c0,.15-.12.28-.28.28h-1.57c-.1.77-.3,1.5-.59,2.19l1.36.78c.13.08.18.25.1.38l-.82,1.42c-.08.13-.25.18-.38.1l-1.36-.78c-.42.55-.9,1.04-1.43,1.47l.82,1.34c.08.13.04.3-.09.38l-1.4.86c-.13.08-.3.04-.38-.09l-.82-1.34c-.75.33-1.55.57-2.39.67v1.57c0,.15-.12.28-.28.28h-1.64c-.15,0-.28-.12-.28-.28v-1.57c-.77-.1-1.5-.3-2.19-.58l-.78,1.36c-.08.13-.25.18-.38.1l-1.42-.82c-.13-.08-.18-.25-.1-.38l.78-1.36c-.54-.42-1.04-.9-1.47-1.43l-1.34.82c-.13.08-.3.04-.38-.09l-.85-1.4c-.08-.13-.04-.3.09-.38l1.34-.82c-.34-.75-.57-1.55-.67-2.39h-1.57c-.15,0-.28-.12-.28-.28v-1.64c0-.15.12-.28.28-.28ZM16.27,19.42c0,2.4,1.94,4.34,4.34,4.34s4.34-1.94,4.34-4.34-1.94-4.34-4.34-4.34c-2.4,0-4.34,1.94-4.34,4.34Z"/>
    <path class="cls-19" d="M29.64,11.55h.94c.06-.46.18-.9.35-1.31l-.81-.47c-.08-.05-.11-.15-.06-.23l.49-.85c.05-.08.15-.11.23-.06l.81.47c.25-.33.54-.62.85-.88l-.49-.8c-.05-.08-.02-.18.05-.23l.83-.51c.08-.05.18-.02.23.05l.49.8c.45-.2.92-.34,1.43-.4v-.94c0-.09.07-.17.17-.17h.98c.09,0,.17.07.17.17v.94c.46.06.9.18,1.31.35l.47-.81c.05-.08.15-.11.23-.06l.85.49c.08.05.11.15.06.23l-.47.81c.33.25.62.54.88.86l.8-.49c.08-.05.18-.02.23.05l.51.83c.05.08.02.18-.05.23l-.8.49c.2.45.34.92.4,1.43h.94c.09,0,.17.07.17.17v.98c0,.09-.07.17-.17.17h-.94c-.06.46-.18.9-.35,1.31l.81.47c.08.05.11.15.06.23l-.49.85c-.05.08-.15.11-.23.06l-.81-.47c-.25.33-.54.62-.85.88l.49.8c.05.08.02.18-.05.23l-.83.51c-.08.05-.18.02-.23-.05l-.49-.8c-.45.2-.92.34-1.43.4v.94c0,.09-.07.17-.17.17h-.98c-.09,0-.17-.07-.17-.17v-.94c-.46-.06-.9-.18-1.31-.35l-.47.81c-.05.08-.15.11-.23.06l-.85-.49c-.08-.05-.11-.15-.06-.23l.47-.81c-.33-.25-.62-.54-.88-.86l-.8.49c-.08.05-.18.02-.23-.05l-.51-.83c-.05-.08-.02-.18.05-.23l.8-.49c-.2-.45-.34-.92-.4-1.43h-.94c-.09,0-.17-.07-.17-.17v-.98c0-.09.07-.16.17-.16ZM33.05,12.23c0,1.43,1.16,2.59,2.59,2.59s2.59-1.16,2.59-2.59-1.16-2.59-2.59-2.59-2.59,1.16-2.59,2.59Z"/>
    <path class="cls-7" d="M73.96,57.07H21.05l-1.51-37.86c-.02-.46.35-.85.82-.85h51.11c.53,0,.97.42.99.95l1.51,37.76Z"/>
    <g>
      <path class="cls-20" d="M72.35,57.07H19.44V19.23c0-.48.39-.87.87-.87h51.09c.52,0,.95.42.95.95v37.76Z"/>
      <path class="cls-18" d="M24.75,57.07h-5.33V19.27c0-.5.41-.91.91-.91h4.42v38.71h0Z"/>
      <path class="cls-29" d="M72.33,21.06H19.42v-1.81c0-.49.4-.89.89-.89h51.13c.49,0,.89.4.89.89v1.81h0Z"/>
      <g>
        <path class="cls-18" d="M21.07,20.2h0c-.22,0-.41-.18-.41-.41h0c0-.23.18-.41.41-.41h0c.22,0,.41.18.41.41h0c0,.22-.18.41-.41.41Z"/>
        <path class="cls-18" d="M22.4,20.2h0c-.22,0-.41-.18-.41-.41h0c0-.23.18-.41.41-.41h0c.22,0,.41.18.41.41h0c0,.22-.18.41-.41.41Z"/>
        <path class="cls-18" d="M23.72,20.2h0c-.22,0-.41-.18-.41-.41h0c0-.23.18-.41.41-.41h0c.22,0,.41.18.41.41h0c0,.22-.18.41-.41.41Z"/>
      </g>
      <rect class="cls-18" x="26.28" y="22.48" width="44.3" height="5.19"/>
      <rect class="cls-18" x="26.28" y="29.09" width="27.32" height="17.43"/>
      <rect class="cls-18" x="26.28" y="47.94" width="27.32" height="7.74"/>
      <g>
        <g>
          <path class="cls-2" d="M52.14,41.77h-23.86s-.03-.01-.03-.03.01-.03.03-.03h23.86s.03.01.03.03c0,.01-.01.03-.03.03Z"/>
          <path class="cls-2" d="M52.14,38.85h-23.86s-.03-.01-.03-.03c0-.02.01-.03.03-.03h23.86s.03.01.03.03-.01.03-.03.03Z"/>
          <path class="cls-2" d="M52.14,35.93h-23.86s-.03-.01-.03-.03.01-.03.03-.03h23.86s.03.01.03.03-.01.03-.03.03Z"/>
          <path class="cls-2" d="M52.14,33.02h-23.86s-.03-.01-.03-.03c0-.02.01-.03.03-.03h23.86s.03.01.03.03-.01.03-.03.03Z"/>
          <path class="cls-2" d="M28.28,44.68s-.03-.01-.03-.03v-13.09s.01-.03.03-.03.03.01.03.03v13.09s-.01.03-.03.03Z"/>
          <path class="cls-2" d="M52.14,44.68h-23.86s-.03-.01-.03-.03.01-.03.03-.03h23.86s.03.01.03.03-.01.03-.03.03Z"/>
        </g>
        <g>
          <path class="cls-9" d="M27.85,44.64c0,.05-.02.08-.05.08-.03,0-.05-.03-.05-.08s.02-.08.05-.08.05.03.05.08ZM27.76,44.65s.01.06.03.06c.02,0,.03-.03.03-.07s-.01-.06-.03-.06c-.02,0-.03.02-.03.07Z"/>
          <g>
            <path class="cls-9" d="M27.79,41.67h0l-.03.02v-.02s.03-.02.03-.02h.02v.16h-.02v-.14h0Z"/>
            <path class="cls-9" d="M27.88,41.72s0-.02,0-.03h.02v.02h0s.02-.02.04-.02c.02,0,.03.01.03.02h0s0-.01.01-.02c0,0,.01,0,.03,0,.02,0,.04.01.04.05v.07h-.02v-.07s0-.04-.03-.04c-.01,0-.02,0-.03.02,0,0,0,0,0,.01v.07h-.02v-.07s0-.03-.02-.03c-.01,0-.02.01-.03.02,0,0,0,0,0,.01v.07h-.02v-.09h0Z"/>
          </g>
          <g>
            <path class="cls-9" d="M27.74,38.89h0s.02-.03.02-.03c.04-.04.06-.06.06-.08,0-.02,0-.03-.03-.03-.01,0-.03,0-.03.01v-.02s.02-.02.04-.02c.03,0,.05.02.05.05,0,.03-.02.05-.05.08h-.01s.07.01.07.01v.02h-.1Z"/>
            <path class="cls-9" d="M27.88,38.81s0-.02,0-.03h.02v.02h0s.02-.02.04-.02c.02,0,.03.01.03.02h0s0-.01.01-.02c0,0,.01,0,.03,0,.02,0,.04.01.04.05v.07h-.02v-.07s0-.04-.03-.04c-.01,0-.02,0-.03.02,0,0,0,0,0,.01v.07h-.02v-.07s0-.03-.02-.03c-.01,0-.02.01-.03.02,0,0,0,0,0,.01v.07h-.02v-.08h0Z"/>
          </g>
          <g>
            <path class="cls-9" d="M27.75,35.95s.02.01.03.01c.03,0,.04-.02.03-.03,0-.02-.02-.03-.04-.03h-.01v-.02h.01s.03,0,.03-.03c0-.01,0-.02-.03-.02-.01,0-.03,0-.03.01v-.02s.02-.01.04-.01c.03,0,.04.02.04.04,0,.02-.01.03-.03.04h0s.03.02.03.04c0,.02-.02.05-.06.05-.02,0-.03,0-.04-.01h0Z"/>
            <path class="cls-9" d="M27.88,35.89s0-.02,0-.03h.02v.02h0s.02-.02.04-.02c.02,0,.03.01.03.02h0s0-.01.01-.02c0,0,.01,0,.03,0,.02,0,.04.01.04.05v.07h-.02v-.07s0-.04-.03-.04c-.01,0-.02,0-.03.02,0,0,0,0,0,.01v.07h-.02v-.07s0-.03-.02-.03c-.01,0-.02.01-.03.02,0,0,0,0,0,.01v.07h-.02v-.08h0Z"/>
          </g>
          <g>
            <path class="cls-9" d="M27.81,33.06v-.04h-.07s.07-.11.07-.11h.02v.1h.02v.02h-.02v.04h-.02ZM27.81,33v-.05s0-.02,0-.02h0s0,.02-.01.02l-.04.05h0s.05,0,.05,0h0Z"/>
            <path class="cls-9" d="M27.88,32.98s0-.02,0-.03h.02v.02h0s.02-.02.04-.02c.02,0,.03.01.03.02h0s0-.01.01-.02c0,0,.01,0,.03,0,.02,0,.04.01.04.05v.07h-.02v-.07s0-.04-.03-.04c-.01,0-.02,0-.03.02,0,0,0,0,0,.01v.07h-.02v-.07s0-.03-.02-.03c-.01,0-.02.01-.03.02,0,0,0,0,0,.01v.07h-.02v-.08h0Z"/>
          </g>
        </g>
        <g>
          <g>
            <path class="cls-9" d="M29.33,45.01h.02v.15h.07v.02h-.09v-.16Z"/>
            <path class="cls-9" d="M29.54,45.11s-.03.06-.06.06c-.03,0-.06-.02-.06-.06,0-.04.03-.06.06-.06s.06.03.06.06ZM29.45,45.11s.02.05.04.05.03-.02.03-.05c0-.02-.01-.05-.03-.05-.03,0-.04.02-.04.05Z"/>
            <path class="cls-9" d="M29.57,45.09s0-.03,0-.04h.02v.02h0s.02-.03.03-.03c0,0,0,0,0,0v.02h0s-.03.01-.03.03c0,0,0,0,0,.01v.06h-.02v-.08h0Z"/>
            <path class="cls-9" d="M29.66,45.12s.02.04.04.04c.02,0,.02,0,.03,0v.02s-.02,0-.04,0c-.04,0-.06-.02-.06-.06s.02-.06.05-.06c.04,0,.05.03.05.05,0,0,0,0,0,.01h-.08ZM29.72,45.1s0-.03-.03-.03c-.02,0-.03.02-.03.03h.06Z"/>
            <path class="cls-9" d="M29.77,45.09s0-.02,0-.03h.02v.02h0s.02-.02.04-.02c.02,0,.03.01.03.02h0s0-.01.01-.02c0,0,.02,0,.03,0,.02,0,.04.01.04.05v.07h-.02v-.07s0-.04-.03-.04c-.01,0-.02,0-.03.02,0,0,0,0,0,.01v.07h-.02v-.07s0-.03-.02-.03c-.01,0-.02.01-.03.02,0,0,0,0,0,.01v.07h-.02v-.09h0Z"/>
            <path class="cls-9" d="M30.04,45.02s0,.01-.01.01-.01,0-.01-.01c0,0,0-.01.01-.01s.01,0,.01.01ZM30.02,45.17v-.12h.02v.12h-.02Z"/>
            <path class="cls-9" d="M30.08,45.09s0-.03,0-.04h.02v.02h0s.02-.02.04-.02c.03,0,.05.02.05.06,0,.04-.03.06-.05.06-.02,0-.03,0-.04-.02h0v.06h-.02v-.13ZM30.1,45.12s0,0,0,0c0,.01.02.02.03.02.02,0,.04-.02.04-.05,0-.02-.01-.04-.03-.04-.02,0-.03.01-.03.03,0,0,0,0,0,0v.02Z"/>
            <path class="cls-9" d="M30.21,45.15s.02,0,.03,0c.02,0,.02,0,.02-.02,0-.01,0-.02-.02-.02-.02,0-.03-.02-.03-.03,0-.02.02-.04.04-.04.01,0,.02,0,.03,0v.02s-.02,0-.03,0c-.01,0-.02,0-.02.02,0,.01,0,.01.02.02.02,0,.03.02.03.04,0,.02-.02.04-.04.04-.01,0-.03,0-.03,0v-.02Z"/>
            <path class="cls-9" d="M30.41,45.14s0,.02,0,.03h-.02v-.02h0s-.02.02-.04.02c-.02,0-.04-.01-.04-.05v-.07h.02v.07s0,.04.03.04c.01,0,.02-.01.03-.02,0,0,0,0,0-.01v-.07h.02v.08h0Z"/>
            <path class="cls-9" d="M30.44,45.09s0-.02,0-.03h.02v.02h0s.02-.02.04-.02c.02,0,.03.01.03.02h0s0-.01.01-.02c0,0,.02,0,.03,0,.02,0,.04.01.04.05v.07h-.02v-.07s0-.04-.03-.04c-.01,0-.02,0-.03.02,0,0,0,0,0,.01v.07h-.02v-.07s0-.03-.02-.03c-.01,0-.02.01-.03.02,0,0,0,0,0,.01v.07h-.02v-.09h0Z"/>
          </g>
          <g>
            <path class="cls-9" d="M32.97,45.01h.02v.15h.07v.02h-.09v-.16Z"/>
            <path class="cls-9" d="M33.19,45.11s-.03.06-.06.06c-.03,0-.06-.02-.06-.06,0-.04.03-.06.06-.06s.06.03.06.06ZM33.1,45.11s.02.05.03.05.03-.02.03-.05c0-.02-.01-.05-.03-.05-.02,0-.03.02-.03.05Z"/>
            <path class="cls-9" d="M33.22,45.09s0-.03,0-.04h.02v.02h0s.02-.03.03-.03c0,0,0,0,0,0v.02h0s-.03.01-.03.03c0,0,0,0,0,.01v.06h-.02v-.08h0Z"/>
            <path class="cls-9" d="M33.31,45.12s.02.04.04.04c.02,0,.02,0,.03,0v.02s-.02,0-.04,0c-.04,0-.06-.02-.06-.06s.02-.06.05-.06c.04,0,.05.03.05.05,0,0,0,0,0,.01h-.08ZM33.37,45.1s0-.03-.03-.03c-.02,0-.03.02-.03.03h.06Z"/>
            <path class="cls-9" d="M33.41,45.09s0-.02,0-.03h.02v.02h0s.02-.02.04-.02c.02,0,.03.01.03.02h0s0-.01.01-.02c0,0,.02,0,.03,0,.02,0,.04.01.04.05v.07h-.02v-.07s0-.04-.03-.04c-.01,0-.02,0-.03.02,0,0,0,0,0,.01v.07h-.02v-.07s0-.03-.02-.03c-.01,0-.02.01-.03.02,0,0,0,0,0,.01v.07h-.02v-.09h0Z"/>
            <path class="cls-9" d="M33.69,45.02s0,.01-.01.01-.01,0-.01-.01c0,0,0-.01.01-.01,0,0,.01,0,.01.01ZM33.67,45.17v-.12h.02v.12h-.02Z"/>
            <path class="cls-9" d="M33.72,45.09s0-.03,0-.04h.02v.02h0s.02-.02.04-.02c.03,0,.05.02.05.06,0,.04-.03.06-.05.06-.02,0-.03,0-.04-.02h0v.06h-.02v-.13ZM33.75,45.12s0,0,0,0c0,.01.02.02.03.02.02,0,.04-.02.04-.05,0-.02-.01-.04-.03-.04-.02,0-.03.01-.03.03,0,0,0,0,0,0v.02Z"/>
            <path class="cls-9" d="M33.86,45.15s.02,0,.03,0c.02,0,.02,0,.02-.02,0-.01,0-.02-.02-.02-.02,0-.03-.02-.03-.03,0-.02.02-.04.04-.04.01,0,.02,0,.03,0v.02s-.02,0-.03,0c-.01,0-.02,0-.02.02,0,.01,0,.01.02.02.02,0,.03.02.03.04,0,.02-.02.04-.04.04-.01,0-.03,0-.03,0v-.02Z"/>
            <path class="cls-9" d="M34.06,45.14s0,.02,0,.03h-.02v-.02h0s-.02.02-.04.02c-.02,0-.04-.01-.04-.05v-.07h.02v.07s0,.04.03.04c.01,0,.02-.01.03-.02,0,0,0,0,0-.01v-.07h.02v.08h0Z"/>
            <path class="cls-9" d="M34.09,45.09s0-.02,0-.03h.02v.02h0s.02-.02.04-.02c.02,0,.03.01.03.02h0s0-.01.01-.02c0,0,.02,0,.03,0,.02,0,.04.01.04.05v.07h-.02v-.07s0-.04-.03-.04c-.01,0-.02,0-.03.02,0,0,0,0,0,.01v.07h-.02v-.07s0-.03-.02-.03c-.01,0-.02.01-.03.02,0,0,0,0,0,.01v.07h-.02v-.09Z"/>
          </g>
          <g>
            <path class="cls-9" d="M36.12,45.01h.02v.15h.07v.02h-.09v-.16Z"/>
            <path class="cls-9" d="M36.34,45.11s-.03.06-.06.06c-.03,0-.06-.02-.06-.06,0-.04.03-.06.06-.06s.06.03.06.06ZM36.25,45.11s.02.05.04.05.03-.02.03-.05c0-.02-.01-.05-.03-.05s-.04.02-.04.05Z"/>
            <path class="cls-9" d="M36.37,45.09s0-.03,0-.04h.02v.02h0s.02-.03.03-.03c0,0,0,0,0,0v.02h0s-.03.01-.03.03c0,0,0,0,0,.01v.06h-.02v-.08h0Z"/>
            <path class="cls-9" d="M36.45,45.12s.02.04.04.04c.02,0,.02,0,.03,0v.02s-.02,0-.04,0c-.04,0-.06-.02-.06-.06s.02-.06.05-.06c.04,0,.05.03.05.05,0,0,0,0,0,.01h-.08ZM36.52,45.1s0-.03-.03-.03c-.02,0-.03.02-.03.03h.06Z"/>
            <path class="cls-9" d="M36.56,45.09s0-.02,0-.03h.02v.02h0s.02-.02.04-.02c.02,0,.03.01.03.02h0s0-.01.01-.02c0,0,.02,0,.03,0,.02,0,.04.01.04.05v.07h-.02v-.07s0-.04-.03-.04c-.01,0-.02,0-.03.02,0,0,0,0,0,.01v.07h-.02v-.07s0-.03-.02-.03c-.01,0-.02.01-.03.02,0,0,0,0,0,.01v.07h-.02v-.09h0Z"/>
            <path class="cls-9" d="M36.84,45.02s0,.01-.01.01-.01,0-.01-.01c0,0,0-.01.01-.01,0,0,.01,0,.01.01ZM36.82,45.17v-.12h.02v.12h-.02Z"/>
            <path class="cls-9" d="M36.87,45.09s0-.03,0-.04h.02v.02h0s.02-.02.04-.02c.03,0,.05.02.05.06,0,.04-.03.06-.05.06-.02,0-.03,0-.04-.02h0v.06h-.02v-.13ZM36.89,45.12s0,0,0,0c0,.01.02.02.03.02.02,0,.04-.02.04-.05,0-.02-.01-.04-.03-.04-.02,0-.03.01-.03.03,0,0,0,0,0,0v.02Z"/>
            <path class="cls-9" d="M37.01,45.15s.02,0,.03,0c.02,0,.02,0,.02-.02,0-.01,0-.02-.02-.02-.02,0-.03-.02-.03-.03,0-.02.02-.04.04-.04.01,0,.02,0,.03,0v.02s-.02,0-.03,0c-.01,0-.02,0-.02.02,0,.01,0,.01.02.02.02,0,.03.02.03.04,0,.02-.02.04-.04.04-.01,0-.03,0-.03,0v-.02Z"/>
            <path class="cls-9" d="M37.2,45.14s0,.02,0,.03h-.02v-.02h0s-.02.02-.04.02c-.02,0-.04-.01-.04-.05v-.07h.02v.07s0,.04.03.04c.01,0,.02-.01.03-.02,0,0,0,0,0-.01v-.07h.02v.08h0Z"/>
            <path class="cls-9" d="M37.24,45.09s0-.02,0-.03h.02v.02h0s.02-.02.04-.02c.02,0,.03.01.03.02h0s0-.01.01-.02c0,0,.02,0,.03,0,.02,0,.04.01.04.05v.07h-.02v-.07s0-.04-.03-.04c-.01,0-.02,0-.03.02,0,0,0,0,0,.01v.07h-.02v-.07s0-.03-.02-.03c-.01,0-.02.01-.03.02,0,0,0,0,0,.01v.07h-.02v-.09h0Z"/>
          </g>
          <g>
            <path class="cls-9" d="M39.58,45.01h.02v.15h.07v.02h-.09v-.16Z"/>
            <path class="cls-9" d="M39.8,45.11s-.03.06-.06.06c-.03,0-.06-.02-.06-.06,0-.04.03-.06.06-.06s.06.03.06.06ZM39.71,45.11s.02.05.04.05.03-.02.03-.05c0-.02-.01-.05-.03-.05-.03,0-.04.02-.04.05Z"/>
            <path class="cls-9" d="M39.83,45.09s0-.03,0-.04h.02v.02h0s.02-.03.03-.03c0,0,0,0,0,0v.02h0s-.03.01-.03.03c0,0,0,0,0,.01v.06h-.02v-.08h0Z"/>
            <path class="cls-9" d="M39.91,45.12s.02.04.04.04c.02,0,.02,0,.03,0v.02s-.02,0-.03,0c-.04,0-.06-.02-.06-.06s.02-.06.05-.06c.04,0,.05.03.05.05,0,0,0,0,0,.01h-.08ZM39.98,45.1s0-.03-.03-.03c-.02,0-.03.02-.03.03h.06Z"/>
            <path class="cls-9" d="M40.02,45.09s0-.02,0-.03h.02v.02h0s.02-.02.04-.02c.02,0,.03.01.03.02h0s0-.01.01-.02c0,0,.02,0,.03,0,.02,0,.04.01.04.05v.07h-.02v-.07s0-.04-.03-.04c-.01,0-.02,0-.03.02,0,0,0,0,0,.01v.07h-.02v-.07s0-.03-.02-.03c-.01,0-.02.01-.03.02,0,0,0,0,0,.01v.07h-.02v-.09h0Z"/>
            <path class="cls-9" d="M40.3,45.02s0,.01-.01.01-.01,0-.01-.01c0,0,0-.01.01-.01s.01,0,.01.01ZM40.28,45.17v-.12h.02v.12h-.02Z"/>
            <path class="cls-9" d="M40.33,45.09s0-.03,0-.04h.02v.02h0s.02-.02.04-.02c.03,0,.05.02.05.06,0,.04-.03.06-.05.06-.02,0-.03,0-.04-.02h0v.06h-.02v-.13ZM40.35,45.12s0,0,0,0c0,.01.02.02.03.02.02,0,.04-.02.04-.05,0-.02-.01-.04-.03-.04-.02,0-.03.01-.03.03,0,0,0,0,0,0v.02Z"/>
            <path class="cls-9" d="M40.47,45.15s.02,0,.03,0c.02,0,.02,0,.02-.02,0-.01,0-.02-.02-.02-.02,0-.03-.02-.03-.03,0-.02.02-.04.04-.04.01,0,.02,0,.03,0v.02s-.02,0-.03,0c-.01,0-.02,0-.02.02,0,.01,0,.01.02.02.02,0,.03.02.03.04,0,.02-.02.04-.04.04-.01,0-.03,0-.03,0v-.02Z"/>
            <path class="cls-9" d="M40.66,45.14s0,.02,0,.03h-.02v-.02h0s-.02.02-.04.02c-.02,0-.04-.01-.04-.05v-.07h.02v.07s0,.04.03.04c.01,0,.02-.01.03-.02,0,0,0,0,0-.01v-.07h.02v.08h0Z"/>
            <path class="cls-9" d="M40.7,45.09s0-.02,0-.03h.02v.02h0s.02-.02.04-.02c.02,0,.03.01.03.02h0s0-.01.01-.02c0,0,.02,0,.03,0,.02,0,.04.01.04.05v.07h-.02v-.07s0-.04-.03-.04c-.01,0-.02,0-.03.02,0,0,0,0,0,.01v.07h-.02v-.07s0-.03-.03-.03c-.01,0-.02.01-.03.02,0,0,0,0,0,.01v.07h-.02v-.09h0Z"/>
          </g>
          <g>
            <path class="cls-9" d="M42.99,45.01h.02v.15h.07v.02h-.09v-.16Z"/>
            <path class="cls-9" d="M43.2,45.11s-.03.06-.06.06c-.03,0-.06-.02-.06-.06,0-.04.03-.06.06-.06s.06.03.06.06ZM43.11,45.11s.02.05.04.05.03-.02.03-.05c0-.02-.01-.05-.03-.05s-.04.02-.04.05Z"/>
            <path class="cls-9" d="M43.23,45.09s0-.03,0-.04h.02v.02h0s.02-.03.03-.03c0,0,0,0,0,0v.02h0s-.03.01-.03.03c0,0,0,0,0,.01v.06h-.02v-.08h0Z"/>
            <path class="cls-9" d="M43.32,45.12s.02.04.04.04c.02,0,.03,0,.03,0v.02s-.02,0-.04,0c-.04,0-.06-.02-.06-.06s.02-.06.05-.06c.04,0,.05.03.05.05h0s-.08.01-.08.01ZM43.38,45.1s0-.03-.03-.03c-.02,0-.03.02-.03.03h.06Z"/>
            <path class="cls-9" d="M43.43,45.09s0-.02,0-.03h.02v.02h0s.02-.02.04-.02c.02,0,.03.01.03.02h0s0-.01.01-.02c0,0,.02,0,.03,0,.02,0,.04.01.04.05v.07h-.02v-.07s0-.04-.03-.04c-.01,0-.02,0-.03.02,0,0,0,0,0,.01v.07h-.02v-.07s0-.03-.03-.03c-.01,0-.02.01-.03.02,0,0,0,0,0,.01v.07h-.02v-.09h0Z"/>
            <path class="cls-9" d="M43.7,45.02s0,.01-.01.01c0,0-.01,0-.01-.01,0,0,0-.01.01-.01s.01,0,.01.01ZM43.68,45.17v-.12h.02v.12h-.02Z"/>
            <path class="cls-9" d="M43.74,45.09s0-.03,0-.04h.02v.02h0s.02-.02.04-.02c.03,0,.05.02.05.06,0,.04-.03.06-.05.06-.02,0-.03,0-.04-.02h0v.06h-.02v-.13ZM43.76,45.12s0,0,0,0c0,.01.02.02.03.02.02,0,.03-.02.03-.05,0-.02-.01-.04-.03-.04-.02,0-.03.01-.03.03,0,0,0,0,0,0v.02Z"/>
            <path class="cls-9" d="M43.87,45.15s.02,0,.03,0c.02,0,.02,0,.02-.02,0-.01,0-.02-.02-.02-.02,0-.03-.02-.03-.03,0-.02.02-.04.04-.04.01,0,.02,0,.03,0v.02s-.02,0-.03,0c-.01,0-.02,0-.02.02,0,.01,0,.01.02.02.02,0,.03.02.03.04,0,.02-.02.04-.04.04-.01,0-.03,0-.03,0v-.02Z"/>
            <path class="cls-9" d="M44.07,45.14s0,.02,0,.03h-.02v-.02h0s-.02.02-.04.02c-.02,0-.04-.01-.04-.05v-.07h.02v.07s0,.04.03.04c.02,0,.02-.01.03-.02,0,0,0,0,0-.01v-.07h.02v.08Z"/>
            <path class="cls-9" d="M44.1,45.09s0-.02,0-.03h.02v.02h0s.02-.02.04-.02c.02,0,.03.01.03.02h0s0-.01.01-.02c0,0,.02,0,.03,0,.02,0,.04.01.04.05v.07h-.02v-.07s0-.04-.03-.04c-.01,0-.02,0-.03.02,0,0,0,0,0,.01v.07h-.02v-.07s0-.03-.03-.03c-.01,0-.02.01-.03.02,0,0,0,0,0,.01v.07h-.02v-.09h0Z"/>
          </g>
          <g>
            <path class="cls-9" d="M46.33,45.01h.02v.15h.07v.02h-.09v-.16Z"/>
            <path class="cls-9" d="M46.55,45.11s-.03.06-.06.06c-.03,0-.06-.02-.06-.06,0-.04.03-.06.06-.06.03,0,.06.03.06.06ZM46.46,45.11s.02.05.04.05.03-.02.03-.05c0-.02-.01-.05-.03-.05s-.04.02-.04.05Z"/>
            <path class="cls-9" d="M46.58,45.09s0-.03,0-.04h.02v.02h0s.02-.03.03-.03c0,0,0,0,0,0v.02h0s-.03.01-.03.03c0,0,0,0,0,.01v.06h-.02v-.08h0Z"/>
            <path class="cls-9" d="M46.67,45.12s.02.04.04.04c.02,0,.03,0,.03,0v.02s-.02,0-.04,0c-.04,0-.06-.02-.06-.06s.02-.06.05-.06c.04,0,.05.03.05.05h0s-.08.01-.08.01ZM46.73,45.1s0-.03-.03-.03c-.02,0-.03.02-.03.03h.06Z"/>
            <path class="cls-9" d="M46.78,45.09s0-.02,0-.03h.02v.02h0s.02-.02.04-.02c.02,0,.03.01.03.02h0s0-.01.01-.02c0,0,.02,0,.03,0,.02,0,.04.01.04.05v.07h-.02v-.07s0-.04-.03-.04c-.01,0-.02,0-.03.02,0,0,0,0,0,.01v.07h-.02v-.07s0-.03-.03-.03c-.01,0-.02.01-.03.02,0,0,0,0,0,.01v.07h-.02v-.09h0Z"/>
            <path class="cls-9" d="M47.05,45.02s0,.01-.01.01c0,0-.01,0-.01-.01,0,0,0-.01.01-.01,0,0,.01,0,.01.01ZM47.03,45.17v-.12h.02v.12h-.02Z"/>
            <path class="cls-9" d="M47.09,45.09s0-.03,0-.04h.02v.02h0s.02-.02.04-.02c.03,0,.05.02.05.06,0,.04-.03.06-.05.06-.02,0-.03,0-.04-.02h0v.06h-.02v-.13ZM47.11,45.12s0,0,0,0c0,.01.02.02.03.02.02,0,.03-.02.03-.05,0-.02-.01-.04-.03-.04-.02,0-.03.01-.03.03,0,0,0,0,0,0v.02h0Z"/>
            <path class="cls-9" d="M47.22,45.15s.02,0,.03,0c.02,0,.02,0,.02-.02,0-.01,0-.02-.02-.02-.02,0-.03-.02-.03-.03,0-.02.02-.04.04-.04.01,0,.02,0,.03,0v.02s-.02,0-.03,0c-.01,0-.02,0-.02.02,0,.01,0,.01.02.02.02,0,.03.02.03.04,0,.02-.02.04-.04.04-.01,0-.03,0-.03,0v-.02Z"/>
            <path class="cls-9" d="M47.42,45.14s0,.02,0,.03h-.02v-.02h0s-.02.02-.04.02c-.02,0-.04-.01-.04-.05v-.07h.02v.07s0,.04.03.04c.02,0,.02-.01.03-.02,0,0,0,0,0-.01v-.07h.02v.08h0Z"/>
            <path class="cls-9" d="M47.45,45.09s0-.02,0-.03h.02v.02h0s.02-.02.04-.02c.02,0,.03.01.03.02h0s0-.01.01-.02c0,0,.02,0,.03,0,.02,0,.04.01.04.05v.07h-.02v-.07s0-.04-.03-.04c-.01,0-.02,0-.03.02,0,0,0,0,0,.01v.07h-.02v-.07s0-.03-.03-.03c-.01,0-.02.01-.03.02,0,0,0,0,0,.01v.07h-.02v-.09h0Z"/>
          </g>
          <g>
            <path class="cls-9" d="M49.79,45.01h.02v.15h.07v.02h-.09v-.16Z"/>
            <path class="cls-9" d="M50.01,45.11s-.03.06-.06.06c-.03,0-.06-.02-.06-.06,0-.04.03-.06.06-.06s.06.03.06.06ZM49.92,45.11s.02.05.04.05.03-.02.03-.05c0-.02-.01-.05-.03-.05s-.04.02-.04.05Z"/>
            <path class="cls-9" d="M50.04,45.09s0-.03,0-.04h.02v.02h0s.02-.03.03-.03c0,0,0,0,0,0v.02h0s-.03.01-.03.03c0,0,0,0,0,.01v.06h-.02v-.08h0Z"/>
            <path class="cls-9" d="M50.13,45.12s.02.04.04.04c.02,0,.02,0,.03,0v.02s-.02,0-.04,0c-.04,0-.06-.02-.06-.06s.02-.06.05-.06c.04,0,.05.03.05.05h0s-.08.01-.08.01ZM50.19,45.1s0-.03-.03-.03c-.02,0-.03.02-.03.03h.06Z"/>
            <path class="cls-9" d="M50.24,45.09s0-.02,0-.03h.02v.02h0s.02-.02.04-.02c.02,0,.03.01.03.02h0s0-.01.01-.02c0,0,.02,0,.03,0,.02,0,.04.01.04.05v.07h-.02v-.07s0-.04-.03-.04c-.01,0-.02,0-.03.02,0,0,0,0,0,.01v.07h-.02v-.07s0-.03-.03-.03c-.01,0-.02.01-.03.02,0,0,0,0,0,.01v.07h-.02v-.09h0Z"/>
            <path class="cls-9" d="M50.51,45.02s0,.01-.01.01c0,0-.01,0-.01-.01,0,0,0-.01.01-.01s.01,0,.01.01ZM50.49,45.17v-.12h.02v.12h-.02Z"/>
            <path class="cls-9" d="M50.54,45.09s0-.03,0-.04h.02v.02h0s.02-.02.04-.02c.03,0,.05.02.05.06,0,.04-.03.06-.05.06-.02,0-.03,0-.04-.02h0v.06h-.02v-.13h0ZM50.57,45.12s0,0,0,0c0,.01.02.02.03.02.02,0,.03-.02.03-.05,0-.02-.01-.04-.03-.04-.02,0-.03.01-.03.03,0,0,0,0,0,0v.02h0Z"/>
            <path class="cls-9" d="M50.68,45.15s.02,0,.03,0c.02,0,.02,0,.02-.02,0-.01,0-.02-.02-.02-.02,0-.03-.02-.03-.03,0-.02.02-.04.04-.04.01,0,.02,0,.03,0v.02s-.02,0-.03,0c-.01,0-.02,0-.02.02,0,.01,0,.01.02.02.02,0,.03.02.03.04,0,.02-.02.04-.04.04-.01,0-.03,0-.03,0v-.02Z"/>
            <path class="cls-9" d="M50.88,45.14s0,.02,0,.03h-.02v-.02h0s-.02.02-.04.02c-.02,0-.04-.01-.04-.05v-.07h.02v.07s0,.04.03.04c.02,0,.02-.01.03-.02,0,0,0,0,0-.01v-.07h.02v.08Z"/>
            <path class="cls-9" d="M50.91,45.09s0-.02,0-.03h.02v.02h0s.02-.02.04-.02c.02,0,.03.01.03.02h0s0-.01.01-.02c0,0,.02,0,.03,0,.02,0,.04.01.04.05v.07h-.02v-.07s0-.04-.03-.04c-.01,0-.02,0-.03.02,0,0,0,0,0,.01v.07h-.02v-.07s0-.03-.03-.03c-.01,0-.02.01-.03.02,0,0,0,0,0,.01v.07h-.02v-.09h0Z"/>
          </g>
        </g>
        <g>
          <g>
            <g>
              <rect class="cls-16" x="28.86" y="42.28" width="1.18" height="1.64"/>
              <rect class="cls-16" x="39.08" y="40.35" width="1.18" height="3.58"/>
              <rect class="cls-16" x="42.48" y="35.23" width="1.18" height="8.7"/>
              <rect class="cls-16" x="45.89" y="39.01" width="1.18" height="4.91"/>
              <rect class="cls-16" x="49.29" y="40.76" width="1.18" height="3.16"/>
              <rect class="cls-16" x="32.27" y="39.18" width="1.18" height="4.75"/>
              <rect class="cls-16" x="35.67" y="39.01" width="1.18" height="4.91"/>
            </g>
            <rect class="cls-24" x="28.86" y="43.02" width="1.18" height="1.64"/>
            <rect class="cls-24" x="39.08" y="41.09" width="1.18" height="3.57"/>
            <rect class="cls-24" x="42.48" y="36.38" width="1.18" height="8.27"/>
            <rect class="cls-24" x="45.89" y="39.75" width="1.18" height="4.9"/>
            <rect class="cls-24" x="49.29" y="41.5" width="1.18" height="3.16"/>
            <rect class="cls-24" x="32.27" y="39.92" width="1.18" height="4.74"/>
            <rect class="cls-24" x="35.67" y="39.75" width="1.18" height="4.9"/>
          </g>
          <g>
            <g>
              <rect class="cls-10" x="30.05" y="41.41" width="1.18" height="2.25"/>
              <rect class="cls-10" x="40.26" y="38.76" width="1.18" height="4.89"/>
              <rect class="cls-10" x="43.67" y="31.75" width="1.18" height="11.91"/>
              <rect class="cls-10" x="47.07" y="36.93" width="1.18" height="6.72"/>
              <rect class="cls-10" x="50.48" y="39.33" width="1.18" height="4.33"/>
              <rect class="cls-10" x="33.45" y="37.16" width="1.18" height="6.5"/>
              <rect class="cls-10" x="36.86" y="36.93" width="1.18" height="6.72"/>
            </g>
            <rect class="cls-3" x="30.05" y="42.41" width="1.18" height="2.24"/>
            <rect class="cls-3" x="40.26" y="39.77" width="1.18" height="4.89"/>
            <rect class="cls-3" x="43.67" y="33.33" width="1.18" height="11.33"/>
            <rect class="cls-3" x="47.07" y="37.95" width="1.18" height="6.71"/>
            <rect class="cls-3" x="50.48" y="40.34" width="1.18" height="4.32"/>
            <rect class="cls-3" x="33.45" y="38.17" width="1.18" height="6.48"/>
            <rect class="cls-3" x="36.86" y="37.95" width="1.18" height="6.71"/>
          </g>
        </g>
      </g>
      <g>
        <path class="cls-24" d="M23.13,32.86h-2.49c-.09,0-.17-.08-.17-.17v-2.49c0-.1.08-.17.17-.17h2.49c.09,0,.17.08.17.17v2.49c0,.1-.08.17-.17.17Z"/>
        <path class="cls-18" d="M22.39,31.93c.11-.12.17-.28.17-.45,0-.37-.3-.67-.67-.67s-.67.3-.67.67.3.67.67.67c.2,0,.37-.08.49-.22,0,0,0,0,0,0,0,0,0,0,0,0ZM21.96,31.51h.53c0,.14-.06.26-.14.36l-.4-.36ZM22.5,31.45h-.58v-.58c.31.01.57.27.58.58ZM21.27,31.48c0-.33.26-.6.58-.61v.61h0s0,.02.01.02l.45.41c-.11.11-.26.18-.43.18-.34,0-.61-.28-.61-.61Z"/>
      </g>
      <g>
        <path class="cls-10" d="M23.13,47.94h-2.49c-.09,0-.17-.08-.17-.17v-2.49c0-.1.08-.17.17-.17h2.49c.09,0,.17.08.17.17v2.49c0,.1-.08.17-.17.17Z"/>
        <g>
          <path class="cls-29" d="M22.36,46.49l.15-.11-.04-.12h-.19s-.03-.05-.03-.05l.06-.18-.1-.07-.15.11-.05-.02-.06-.18h-.12l-.06.18-.05.02-.15-.11-.1.07.06.18-.03.05h-.19s-.04.12-.04.12l.15.11v.06l-.15.11.04.12h.19s.03.05.03.05l-.06.18.1.07.15-.11.05.02.06.18h.12l.06-.18.05-.02.15.11.1-.07-.06-.18.03-.05h.19s.04-.12.04-.12l-.15-.11v-.06ZM22.47,46.68l-.02.06h-.18s-.06.08-.06.08l.05.17-.05.04-.15-.1-.09.03-.06.17h-.06l-.06-.17-.09-.03-.15.11-.05-.04.05-.17-.06-.08h-.18s-.02-.06-.02-.06l.15-.11v-.1l-.15-.11.02-.06h.18s.06-.08.06-.08l-.05-.17.05-.04.15.11.09-.03.06-.17h.06l.06.17.09.03.15-.11.05.04-.05.17.06.08h.18s.02.06.02.06l-.15.11v.1l.14.11Z"/>
          <path class="cls-29" d="M21.89,46.25c-.15,0-.28.12-.28.28s.12.28.28.28.28-.12.28-.28-.12-.28-.28-.28ZM21.89,46.76c-.13,0-.24-.11-.24-.24s.11-.24.24-.24.24.11.24.24c0,.13-.11.24-.24.24Z"/>
        </g>
      </g>
      <g>
        <rect class="cls-3" x="33.57" y="48.91" width="4.99" height=".53"/>
        <rect class="cls-3" x="33.57" y="49.95" width="3.33" height=".53"/>
        <rect class="cls-3" x="33.57" y="52.01" width="2.34" height=".53"/>
        <rect class="cls-3" x="33.57" y="50.98" width="4.21" height=".53"/>
        <rect class="cls-3" x="33.57" y="53.04" width="4.99" height=".53"/>
        <rect class="cls-3" x="33.57" y="54.08" width="3.33" height=".53"/>
      </g>
      <g>
        <rect class="cls-3" x="26.98" y="48.91" width="4.04" height=".53"/>
        <rect class="cls-3" x="26.98" y="49.95" width="4.04" height=".53"/>
        <rect class="cls-3" x="26.98" y="50.98" width="4.04" height=".53"/>
        <rect class="cls-3" x="26.98" y="52.01" width="4.04" height=".53"/>
        <rect class="cls-3" x="26.98" y="53.04" width="4.04" height=".53"/>
        <rect class="cls-3" x="26.98" y="54.08" width="4.04" height=".53"/>
      </g>
      <g>
        <rect class="cls-10" x="41.32" y="48.91" width="3.06" height=".53"/>
        <rect class="cls-10" x="41.32" y="49.95" width="2.04" height=".53"/>
        <rect class="cls-10" x="41.32" y="52.01" width="1.44" height=".53"/>
        <rect class="cls-10" x="41.32" y="50.98" width="2.58" height=".53"/>
        <rect class="cls-10" x="41.32" y="53.04" width="3.06" height=".53"/>
        <rect class="cls-10" x="41.32" y="54.08" width="2.04" height=".53"/>
      </g>
      <g>
        <rect class="cls-3" x="46.49" y="48.91" width="3.06" height=".53"/>
        <rect class="cls-3" x="47.51" y="49.95" width="2.04" height=".53"/>
        <rect class="cls-3" x="48.12" y="52.01" width="1.44" height=".53"/>
        <rect class="cls-3" x="46.97" y="50.98" width="2.58" height=".53"/>
        <rect class="cls-3" x="46.49" y="53.05" width="3.06" height=".53"/>
        <rect class="cls-3" x="47.51" y="54.08" width="2.04" height=".53"/>
      </g>
      <g>
        <path class="cls-2" d="M39.76,55.7s-.03-.01-.03-.03v-7.74s.01-.03.03-.03.03.01.03.03v7.74s-.01.03-.03.03Z"/>
        <path class="cls-2" d="M45.29,55.7s-.03-.01-.03-.03v-7.74s.01-.03.03-.03.03.01.03.03v7.74s-.01.03-.03.03Z"/>
        <path class="cls-2" d="M50.82,55.7s-.03-.01-.03-.03v-7.74s.01-.03.03-.03.03.01.03.03v7.74s-.01.03-.03.03Z"/>
      </g>
      <g>
        <rect class="cls-24" x="26.98" y="48.91" width="2.58" height=".53"/>
        <rect class="cls-24" x="26.98" y="52.01" width="1.72" height=".53"/>
        <rect class="cls-24" x="26.98" y="54.08" width="2.38" height=".53"/>
        <rect class="cls-24" x="26.98" y="50.98" width="1.23" height=".53"/>
        <rect class="cls-24" x="26.98" y="49.95" width="3.29" height=".53"/>
        <rect class="cls-24" x="26.98" y="53.04" width="3.03" height=".53"/>
      </g>
      <g>
        <circle class="cls-10" cx="32.94" cy="49.18" r=".26"/>
        <circle class="cls-10" cx="32.94" cy="50.21" r=".26"/>
        <circle class="cls-10" cx="32.94" cy="51.25" r=".26"/>
        <circle class="cls-10" cx="32.94" cy="52.28" r=".26"/>
        <circle class="cls-10" cx="32.94" cy="53.31" r=".26"/>
        <circle class="cls-10" cx="32.94" cy="54.34" r=".26"/>
      </g>
      <g>
        <g>
          <polygon class="cls-23" points="51.35 49.07 51.62 49.07 51.39 49.22 51.49 48.98 51.56 49.22 51.35 49.07"/>
          <polygon class="cls-23" points="51.7 49.07 51.97 49.07 51.75 49.22 51.84 48.98 51.92 49.22 51.7 49.07"/>
          <polygon class="cls-23" points="52.06 49.07 52.33 49.07 52.1 49.22 52.2 48.98 52.27 49.22 52.06 49.07"/>
          <polygon class="cls-23" points="52.41 49.07 52.68 49.07 52.46 49.22 52.55 48.98 52.63 49.22 52.41 49.07"/>
          <polygon class="cls-23" points="52.77 49.07 53.04 49.07 52.81 49.22 52.91 48.98 52.98 49.22 52.77 49.07"/>
        </g>
        <g>
          <polygon class="cls-23" points="51.35 50.07 51.62 50.07 51.39 50.21 51.49 49.98 51.56 50.21 51.35 50.07"/>
          <polygon class="cls-23" points="51.7 50.07 51.97 50.07 51.75 50.21 51.84 49.98 51.92 50.21 51.7 50.07"/>
          <polygon class="cls-23" points="52.06 50.07 52.33 50.07 52.1 50.21 52.2 49.98 52.27 50.21 52.06 50.07"/>
          <polygon class="cls-23" points="52.41 50.07 52.68 50.07 52.46 50.21 52.55 49.98 52.63 50.21 52.41 50.07"/>
          <polygon class="cls-23" points="52.77 50.07 53.04 50.07 52.81 50.21 52.91 49.98 52.98 50.21 52.77 50.07"/>
        </g>
        <g>
          <polygon class="cls-23" points="51.35 51.1 51.62 51.1 51.39 51.24 51.49 51.01 51.56 51.25 51.35 51.1"/>
          <polygon class="cls-23" points="51.7 51.1 51.97 51.1 51.75 51.24 51.84 51.01 51.92 51.25 51.7 51.1"/>
          <polygon class="cls-23" points="52.06 51.1 52.33 51.1 52.1 51.24 52.2 51.01 52.27 51.25 52.06 51.1"/>
          <polygon class="cls-23" points="52.41 51.1 52.68 51.1 52.46 51.24 52.55 51.01 52.63 51.25 52.41 51.1"/>
          <polygon class="cls-23" points="52.77 51.1 53.04 51.1 52.81 51.24 52.91 51.01 52.98 51.25 52.77 51.1"/>
        </g>
        <g>
          <polygon class="cls-23" points="51.35 52.18 51.62 52.18 51.39 52.33 51.49 52.09 51.56 52.33 51.35 52.18"/>
          <polygon class="cls-23" points="51.7 52.18 51.97 52.18 51.75 52.33 51.84 52.09 51.92 52.33 51.7 52.18"/>
          <polygon class="cls-23" points="52.06 52.18 52.33 52.18 52.1 52.33 52.2 52.09 52.27 52.33 52.06 52.18"/>
          <polygon class="cls-23" points="52.41 52.18 52.68 52.18 52.46 52.33 52.55 52.09 52.63 52.33 52.41 52.18"/>
          <polygon class="cls-23" points="52.77 52.18 53.04 52.18 52.81 52.33 52.91 52.09 52.98 52.33 52.77 52.18"/>
        </g>
        <g>
          <polygon class="cls-23" points="51.35 53.2 51.62 53.2 51.39 53.35 51.49 53.11 51.56 53.35 51.35 53.2"/>
          <polygon class="cls-23" points="51.7 53.2 51.97 53.2 51.75 53.35 51.84 53.11 51.92 53.35 51.7 53.2"/>
          <polygon class="cls-23" points="52.06 53.2 52.33 53.2 52.1 53.35 52.2 53.11 52.27 53.35 52.06 53.2"/>
          <polygon class="cls-23" points="52.41 53.2 52.68 53.2 52.46 53.35 52.55 53.11 52.63 53.35 52.41 53.2"/>
          <polygon class="cls-23" points="52.77 53.2 53.04 53.2 52.81 53.35 52.91 53.11 52.98 53.35 52.77 53.2"/>
        </g>
        <g>
          <polygon class="cls-23" points="51.35 54.22 51.62 54.22 51.39 54.36 51.49 54.13 51.56 54.36 51.35 54.22"/>
          <polygon class="cls-23" points="51.7 54.22 51.97 54.22 51.75 54.36 51.84 54.13 51.92 54.36 51.7 54.22"/>
          <polygon class="cls-23" points="52.06 54.22 52.33 54.22 52.1 54.36 52.2 54.13 52.27 54.36 52.06 54.22"/>
          <polygon class="cls-23" points="52.41 54.22 52.68 54.22 52.46 54.36 52.55 54.13 52.63 54.36 52.41 54.22"/>
          <polygon class="cls-23" points="52.77 54.22 53.04 54.22 52.81 54.36 52.91 54.13 52.98 54.36 52.77 54.22"/>
        </g>
      </g>
      <g>
        <rect class="cls-18" x="55.46" y="38.69" width="15.12" height="7.84"/>
        <g>
          <g>
            <path class="cls-10" d="M60.44,42.69v-2.54c-1.4,0-2.54,1.14-2.54,2.54s1.14,2.54,2.54,2.54,2.54-1.14,2.54-2.54c0-.02,0-.03,0-.05l-2.53.05Z"/>
            <path class="cls-24" d="M63.33,42.32c-.03-1.38-1.15-2.49-2.53-2.49v2.54l2.53-.05Z"/>
          </g>
          <g>
            <g>
              <rect class="cls-24" x="64.85" y="40.15" width=".88" height=".88"/>
              <rect class="cls-2" x="66.12" y="40.15" width="2.02" height=".2"/>
              <rect class="cls-2" x="66.12" y="40.49" width="1.2" height=".2"/>
            </g>
            <g>
              <rect class="cls-10" x="64.85" y="41.81" width=".88" height=".88"/>
              <rect class="cls-2" x="66.12" y="41.81" width="2.02" height=".2"/>
              <rect class="cls-2" x="66.12" y="42.15" width="1.2" height=".2"/>
            </g>
          </g>
        </g>
      </g>
      <g>
        <rect class="cls-18" x="55.46" y="29.49" width="15.12" height="8.36"/>
        <g>
          <g>
            <g>
              <rect class="cls-3" x="64.69" y="31.28" width=".87" height=".87"/>
              <rect class="cls-2" x="65.95" y="31.28" width="2" height=".2"/>
              <rect class="cls-2" x="65.95" y="31.61" width="1.18" height=".2"/>
            </g>
            <g>
              <rect class="cls-10" x="64.69" y="32.66" width=".87" height=".87"/>
              <rect class="cls-2" x="65.95" y="32.66" width="2" height=".2"/>
              <rect class="cls-2" x="65.95" y="33" width="1.18" height=".2"/>
            </g>
            <g>
              <rect class="cls-24" x="64.69" y="34.04" width=".87" height=".87"/>
              <rect class="cls-2" x="65.95" y="34.04" width="2" height=".2"/>
              <rect class="cls-2" x="65.95" y="34.38" width="1.18" height=".2"/>
            </g>
            <g>
              <rect class="cls-16" x="64.69" y="35.43" width=".87" height=".87"/>
              <rect class="cls-2" x="65.95" y="35.43" width="2" height=".2"/>
              <rect class="cls-2" x="65.95" y="35.76" width="1.18" height=".2"/>
            </g>
          </g>
          <g>
            <g>
              <path class="cls-10" d="M60.61,31.35v2.38l.79-2.24c-.26-.09-.53-.13-.79-.14Z"/>
              <path class="cls-24" d="M61.49,31.52l-.85,2.41,2.39-.91c-.28-.69-.83-1.24-1.54-1.5Z"/>
              <path class="cls-16" d="M60.84,33.95l2.36-.09c-.01-.26-.07-.51-.15-.75l-2.21.84Z"/>
              <path class="cls-3" d="M60.49,31.35c-1.44.04-2.59,1.21-2.59,2.66s1.19,2.66,2.66,2.66,2.66-1.19,2.66-2.66c0,0,0-.02,0-.02l-2.72.08v-2.72h0Z"/>
            </g>
            <circle class="cls-18" cx="60.56" cy="34.01" r="1.66"/>
          </g>
        </g>
      </g>
      <g>
        <rect class="cls-18" x="55.46" y="47.94" width="15.12" height="7.74"/>
        <g>
          <g>
            <g>
              <path class="cls-2" d="M56.96,54.7s-.01,0-.01-.01v-5.38s0-.01.01-.01.01,0,.01.01v5.38s0,.01-.01.01Z"/>
              <path class="cls-2" d="M59.09,54.7s-.01,0-.01-.01v-5.38s0-.01.01-.01.01,0,.01.01v5.38s0,.01-.01.01Z"/>
              <path class="cls-2" d="M61.21,54.7s-.01,0-.01-.01v-5.38s0-.01.01-.01.01,0,.01.01v5.38s0,.01-.01.01Z"/>
              <path class="cls-2" d="M63.34,54.7s-.01,0-.01-.01v-5.38s0-.01.01-.01.01,0,.01.01v5.38s0,.01-.01.01Z"/>
              <path class="cls-2" d="M65.47,54.7s-.01,0-.01-.01v-5.38s0-.01.01-.01.01,0,.01.01v5.38s0,.01-.01.01Z"/>
              <path class="cls-2" d="M67.59,54.7s-.01,0-.01-.01v-5.38s0-.01.01-.01.01,0,.01.01v5.38s0,.01-.01.01Z"/>
            </g>
            <g>
              <path class="cls-2" d="M56.96,53.22h-.1s-.01,0-.01-.01,0-.01.01-.01h.1s.01,0,.01.01,0,.01-.01.01Z"/>
              <path class="cls-2" d="M56.96,54.55h-.1s-.01,0-.01-.01,0-.01.01-.01h.1s.01,0,.01.01c0,0,0,.01-.01.01Z"/>
              <path class="cls-2" d="M56.96,51.92h-.1s-.01,0-.01-.01,0-.01.01-.01h.1s.01,0,.01.01,0,.01-.01.01Z"/>
              <path class="cls-2" d="M56.96,50.62h-.1s-.01,0-.01-.01,0-.01.01-.01h.1s.01,0,.01.01,0,.01-.01.01Z"/>
              <path class="cls-2" d="M56.96,49.32h-.1s-.01,0-.01-.01,0-.01.01-.01h.1s.01,0,.01.01c0,0,0,.01-.01.01Z"/>
            </g>
          </g>
          <path class="cls-4" d="M56.96,53.86s2.91,0,4.53-.73c2.56-1.15,1.72-2.3,6.1-2.3v3.72h-10.63v-.68h0Z"/>
          <path class="cls-24" d="M57.16,53.3h-.39c-.09,0-.15.07-.15.15s.07.15.15.15h.1l.1.1.1-.1h.1c.09,0,.15-.07.15-.15,0-.09-.07-.15-.15-.15Z"/>
          <path class="cls-24" d="M59.29,53.1h-.39c-.09,0-.15.07-.15.15s.07.15.15.15h.1l.1.1.1-.1h.1c.09,0,.15-.07.15-.15,0-.08-.07-.15-.15-.15Z"/>
          <path class="cls-24" d="M61.41,52.61h-.39c-.09,0-.15.07-.15.15s.07.15.15.15h.1l.1.1.1-.1h.1c.09,0,.15-.07.15-.15,0-.08-.07-.15-.15-.15Z"/>
          <path class="cls-24" d="M63.54,51.38h-.39c-.09,0-.15.07-.15.15s.07.15.15.15h.1l.1.1.1-.1h.1c.09,0,.15-.07.15-.15s-.07-.15-.15-.15Z"/>
          <path class="cls-24" d="M65.66,50.4h-.39c-.09,0-.15.07-.15.15s.07.15.15.15h.1l.1.1.1-.1h.1c.09,0,.15-.07.15-.15,0-.08-.07-.15-.15-.15Z"/>
          <path class="cls-24" d="M67.79,50.2h-.39c-.09,0-.15.07-.15.15s.07.15.15.15h.1l.1.1.1-.1h.1c.09,0,.15-.07.15-.15s-.07-.15-.15-.15Z"/>
          <g>
            <g>
              <path class="cls-30" d="M56.75,54.55s-.01.04-.03.04c-.02,0-.03-.02-.03-.04s.01-.04.03-.04c.02,0,.03.02.03.04ZM56.7,54.55s0,.03.02.03c.01,0,.02-.01.02-.03s0-.03-.02-.03c0,0-.02.01-.02.03Z"/>
              <path class="cls-30" d="M56.77,54.55h0s0,0,0,0l.02-.02h.01l-.02.02.03.04h-.01l-.02-.03h0v.03h-.01v-.09h.01v.06h0Z"/>
            </g>
            <g>
              <path class="cls-30" d="M56.65,53.18h-.01s0,0,0,0h.02s0-.01,0-.01v.08h-.01v-.07Z"/>
              <path class="cls-30" d="M56.74,53.21s-.01.04-.03.04c-.02,0-.03-.02-.03-.04,0-.03.01-.04.03-.04.02,0,.03.02.03.04ZM56.7,53.22s0,.03.02.03c.01,0,.02-.01.02-.03s0-.03-.02-.03c0,0-.02.01-.02.03Z"/>
              <path class="cls-30" d="M56.77,53.22h0s0,0,0,0l.02-.02h.01l-.02.02.03.04h-.01l-.02-.03h0v.03h-.01v-.09h.01v.06Z"/>
            </g>
            <g>
              <path class="cls-30" d="M56.65,51.87h-.01s0,0,0,0h.02s0-.01,0-.01v.08h-.01v-.07Z"/>
              <path class="cls-30" d="M56.74,51.87h-.03v.02s0,0,0,0c0,0,.01,0,.02,0,0,0,.01.01.01.02,0,.02-.01.03-.03.03,0,0-.02,0-.02,0h0s.01,0,.02,0c.01,0,.02,0,.02-.02,0-.01,0-.02-.02-.02,0,0,0,0-.01,0v-.04h.04s0,.01,0,.01Z"/>
              <path class="cls-30" d="M56.77,51.91h0s0,0,0,0l.02-.02h.01l-.02.02.03.04h-.01l-.02-.03h0v.03h-.01v-.09h.01v.06Z"/>
            </g>
            <g>
              <path class="cls-30" d="M56.63,50.63h0s0-.01,0-.01c.02-.02.03-.03.03-.04,0,0,0-.02-.02-.02,0,0-.01,0-.02,0h0s.01-.02.02-.02c.02,0,.03.01.03.02,0,.02-.01.03-.03.04h0s.04,0,.04,0h0s-.05,0-.05,0h0Z"/>
              <path class="cls-30" d="M56.74,50.59s-.01.04-.03.04c-.02,0-.03-.02-.03-.04,0-.03.01-.04.03-.04.02,0,.03.01.03.04ZM56.7,50.59s0,.03.02.03c.01,0,.02-.01.02-.03s0-.03-.02-.03c0,0-.02.01-.02.03Z"/>
              <path class="cls-30" d="M56.77,50.6h0s0,0,0,0l.02-.02h.01l-.02.02.03.04h-.01l-.02-.03h0v.03h-.01v-.09h.01v.06Z"/>
            </g>
            <g>
              <path class="cls-30" d="M56.63,49.36h0s0-.01,0-.01c.02-.02.03-.03.03-.04,0,0,0-.02-.02-.02,0,0-.01,0-.02,0h0s.01-.02.02-.02c.02,0,.03.01.03.02,0,.02-.01.03-.03.04h0s.04,0,.04,0h0s-.05,0-.05,0h0Z"/>
              <path class="cls-30" d="M56.74,49.29h-.03v.02s0,0,0,0c0,0,.01,0,.02,0,0,0,.01.01.01.02,0,.02-.01.03-.03.03,0,0-.02,0-.02,0h0s.01,0,.02,0c.01,0,.02,0,.02-.02,0-.01,0-.02-.02-.02,0,0,0,0-.01,0v-.04h.04s0,.01,0,.01Z"/>
              <path class="cls-30" d="M56.77,49.33h0s0,0,0,0l.02-.02h.01l-.02.02.03.04h-.01l-.02-.03h0v.03h-.01v-.09h.01v.06Z"/>
            </g>
          </g>
          <g>
            <g>
              <path class="cls-30" d="M56.96,54.89s-.02,0-.03-.01c0,0,0,0,0,0-.02,0-.04-.02-.04-.04s.02-.04.04-.04.04.02.04.04c0,.02-.01.04-.02.04h0s.02,0,.03,0h0ZM56.95,54.84s0-.03-.03-.03c-.02,0-.03.02-.03.04s.01.03.03.03c.02,0,.03-.01.03-.04Z"/>
              <path class="cls-30" d="M57,54.81h-.01s0,0,0,0h.02s0-.01,0-.01v.08h-.01v-.07Z"/>
            </g>
            <g>
              <path class="cls-30" d="M59.09,54.89s-.02,0-.03-.01c0,0,0,0,0,0-.02,0-.04-.02-.04-.04s.02-.04.04-.04.04.02.04.04c0,.02-.01.04-.02.04h0s.02,0,.03,0h0ZM59.08,54.84s0-.03-.03-.03c-.02,0-.03.02-.03.04s.01.03.03.03c.02,0,.03-.01.03-.04Z"/>
              <path class="cls-30" d="M59.1,54.88h0s0-.01,0-.01c.02-.02.03-.03.03-.04,0,0,0-.02-.02-.02,0,0-.01,0-.02,0h0s.01-.02.02-.02c.02,0,.03.01.03.02,0,.02-.01.03-.03.04h0s.04,0,.04,0h0s-.05,0-.05,0h0Z"/>
            </g>
            <g>
              <path class="cls-30" d="M61.21,54.89s-.02,0-.03-.01c0,0,0,0,0,0-.02,0-.04-.02-.04-.04s.02-.04.04-.04.04.02.04.04c0,.02-.01.04-.02.04h0s.02,0,.03,0h0ZM61.2,54.84s0-.03-.03-.03c-.02,0-.03.02-.03.04s.01.03.03.03c.02,0,.03-.01.03-.04Z"/>
              <path class="cls-30" d="M61.22,54.87s.01,0,.02,0c.01,0,.02,0,.02-.02,0-.01-.01-.02-.02-.02h0s0,0,0,0c0,0,.02,0,.02-.01,0,0,0-.01-.01-.01,0,0-.01,0-.02,0h0s.01-.01.02-.01c.02,0,.02,0,.02.02,0,0,0,.02-.02.02.01,0,.02.01.02.02,0,.01-.01.02-.03.02,0,0-.02,0-.02,0h0Z"/>
            </g>
            <g>
              <path class="cls-30" d="M63.34,54.89s-.02,0-.03-.01c0,0,0,0,0,0-.02,0-.04-.02-.04-.04s.02-.04.04-.04.04.02.04.04c0,.02-.01.04-.02.04h0s.02,0,.03,0h0ZM63.33,54.84s0-.03-.03-.03c-.02,0-.03.02-.03.04s.01.03.03.03c.02,0,.03-.01.03-.04Z"/>
              <path class="cls-30" d="M63.39,54.88v-.02h-.04s.04-.06.04-.06h.01v.05h.01s-.01,0-.01,0v.02h-.01ZM63.39,54.85v-.03h0s0,0,0,0l-.02.03h.03Z"/>
            </g>
            <g>
              <path class="cls-30" d="M65.48,54.89s-.02,0-.03-.01c0,0,0,0,0,0-.02,0-.04-.02-.04-.04s.02-.04.04-.04.04.02.04.04c0,.02-.01.04-.02.04h0s.02,0,.03,0h0ZM65.47,54.84s0-.03-.03-.03-.03.02-.03.04.01.03.03.03c.02,0,.03-.01.03-.04Z"/>
              <path class="cls-30" d="M65.54,54.81h-.03v.02s0,0,0,0c0,0,.01,0,.02,0,0,0,.01.01.01.02,0,.02-.01.03-.03.03,0,0-.02,0-.02,0h0s.01,0,.02,0c.01,0,.02,0,.02-.02,0-.01,0-.02-.02-.02,0,0,0,0-.01,0v-.04h.04s0,0,0,0Z"/>
            </g>
            <g>
              <path class="cls-30" d="M67.6,54.89s-.02,0-.03-.01c0,0,0,0,0,0-.02,0-.04-.02-.04-.04s.02-.04.04-.04.04.02.04.04c0,.02-.01.04-.02.04h0s.02,0,.03,0h0ZM67.59,54.84s0-.03-.03-.03-.03.02-.03.04.01.03.03.03c.02,0,.03-.01.03-.04Z"/>
              <path class="cls-30" d="M67.66,54.81s0,0,0,0c-.02,0-.03.02-.03.03h0s.01,0,.02,0c.01,0,.02.01.02.03,0,.02-.01.03-.03.03s-.03-.01-.03-.04c0-.02,0-.03.01-.04,0,0,.02-.01.03-.01,0,0,0,0,0,0h0s0,0,0,0ZM67.66,54.85s0-.02-.02-.02c0,0-.01,0-.02.01,0,0,0,0,0,0,0,.01,0,.02.02.02,0,0,.02,0,.02-.02Z"/>
            </g>
          </g>
          <g>
            <path d="M56.9,53.46s-.01.04-.03.04c-.02,0-.03-.02-.03-.04s.01-.04.03-.04c.02,0,.03.02.03.04ZM56.85,53.46s0,.03.02.03c.01,0,.02-.01.02-.03s0-.03-.02-.03c0,0-.02.01-.02.03Z"/>
            <path d="M56.91,53.5s0,0,0,0,0,0,0,0,0,0,0,0c0,0,0,0,0,0Z"/>
            <path d="M56.99,53.42h0s-.03.08-.03.08h-.01l.03-.07h-.04s.05,0,.05,0Z"/>
            <path d="M57,53.42h.01v.04h0s0,0,0,0l.03-.03h.01l-.03.04.03.05h-.01l-.03-.04h0v.04h-.01v-.08Z"/>
          </g>
          <g>
            <path d="M59.04,53.26s-.01.04-.03.04c-.02,0-.03-.02-.03-.04,0-.03.01-.04.03-.04.02,0,.03.02.03.04ZM59,53.26s0,.03.02.03c.01,0,.02-.01.02-.03s0-.03-.02-.03c0,0-.02.01-.02.03Z"/>
            <path d="M59.05,53.3s0,0,0,0,0,0,0,0,0,0,0,0c0,0,0,0,0,0Z"/>
            <path d="M59.08,53.28s0-.02.02-.02h0s-.01-.01-.01-.02c0-.01.01-.02.03-.02.02,0,.02.01.02.02,0,0,0,.01-.01.02h0s.02.01.02.02c0,.01-.01.02-.03.02-.02,0-.03,0-.03-.02ZM59.12,53.28s0-.01-.02-.02c-.01,0-.02,0-.02.02,0,0,0,.02.02.02.01,0,.02,0,.02-.01ZM59.09,53.24s0,.01.02.02c0,0,.01,0,.01-.02s0-.01-.01-.01c0,0-.01,0-.01.01Z"/>
            <path d="M59.15,53.22h.01v.04h0s0,0,0,0l.03-.03h.01l-.03.04.03.05h-.01l-.03-.04h0v.04h-.01v-.08h0Z"/>
          </g>
          <g>
            <path d="M61.16,52.74h-.01s0,0,0,0h.02s0-.01,0-.01v.08h-.01v-.07Z"/>
            <path d="M61.25,52.77s-.01.04-.03.04c-.02,0-.03-.02-.03-.04,0-.03.01-.04.03-.04.02,0,.03.02.03.04ZM61.21,52.77s0,.03.02.03c.01,0,.02-.01.02-.03s0-.03-.02-.03c0,0-.02.01-.02.03Z"/>
            <path d="M61.27,52.73h.01v.04h0s0,0,0,0l.03-.03h.01l-.03.04.03.05h-.01l-.03-.04h0v.04h-.01v-.08h0Z"/>
          </g>
          <g>
            <path d="M63.26,51.52h-.01s0,0,0,0h.02s0-.01,0-.01v.08h-.01v-.07Z"/>
            <path d="M63.3,51.57s.01,0,.02,0c.01,0,.02,0,.02-.02,0-.01-.01-.02-.02-.02h0s0,0,0,0c0,0,.02,0,.02-.01,0,0,0-.01-.01-.01,0,0-.01,0-.02,0h0s.01-.01.02-.01c.02,0,.02,0,.02.02,0,0,0,.02-.02.02.01,0,.02.01.02.02,0,.01-.01.02-.03.02,0,0-.02,0-.02,0h0Z"/>
            <path d="M63.36,51.5h.01v.04h0s0,0,0,0l.03-.03h.01l-.03.04.03.05h-.01l-.03-.04h0v.04h-.01v-.08Z"/>
          </g>
          <g>
            <path d="M65.39,50.54h-.01s0,0,0,0h.02s0-.01,0-.01v.08h-.01v-.07Z"/>
            <path d="M65.48,50.53h0s-.03.08-.03.08h-.01l.03-.07h-.04s.05,0,.05,0Z"/>
            <path d="M65.5,50.52h.01v.04h0s0,0,0,0l.03-.03h.01l-.03.04.03.05h-.01l-.03-.04h0v.04h-.01v-.08h0Z"/>
          </g>
          <g>
            <path d="M67.5,50.4h0s0-.01,0-.01c.02-.02.03-.03.03-.04,0,0,0-.02-.02-.02,0,0-.01,0-.02,0h0s.01-.02.02-.02c.02,0,.03.01.03.02,0,.02-.01.03-.03.04h0s.04,0,.04,0h0s-.05,0-.05,0h0Z"/>
            <path d="M67.57,50.39s.01,0,.02,0c.01,0,.02,0,.02-.02,0-.01-.01-.02-.02-.02h0s0,0,0,0c0,0,.02,0,.02-.01,0,0,0-.01-.01-.01,0,0-.01,0-.02,0h0s.01-.01.02-.01c.02,0,.02,0,.02.02,0,0,0,.02-.02.02.01,0,.02.01.02.02,0,.01-.01.02-.03.02,0,0-.02,0-.02,0h0Z"/>
            <path d="M67.64,50.32h.01v.04h0s0,0,0,0l.03-.03h.01l-.03.04.03.05h-.01l-.03-.04h0v.04h-.01v-.08h0Z"/>
          </g>
        </g>
        <g>
          <g>
            <g>
              <g>
                <rect class="cls-2" x="68.7" y="49.42" width=".38" height=".03"/>
                <rect class="cls-2" x="69.17" y="49.42" width=".74" height=".03"/>
              </g>
              <g>
                <rect class="cls-2" x="68.6" y="49.49" width=".78" height=".03"/>
                <rect class="cls-2" x="69.44" y="49.49" width=".56" height=".03"/>
              </g>
            </g>
            <g>
              <g>
                <rect class="cls-2" x="68.7" y="49.77" width=".38" height=".03"/>
                <rect class="cls-2" x="69.17" y="49.77" width=".74" height=".03"/>
              </g>
              <g>
                <rect class="cls-2" x="68.6" y="49.84" width=".78" height=".03"/>
                <rect class="cls-2" x="69.44" y="49.84" width=".56" height=".03"/>
              </g>
            </g>
            <g>
              <g>
                <rect class="cls-2" x="68.7" y="50.11" width=".38" height=".03"/>
                <rect class="cls-2" x="69.17" y="50.11" width=".74" height=".03"/>
              </g>
              <g>
                <rect class="cls-2" x="68.6" y="50.19" width=".78" height=".03"/>
                <rect class="cls-2" x="69.44" y="50.19" width=".56" height=".03"/>
              </g>
            </g>
            <g>
              <g>
                <rect class="cls-2" x="68.7" y="50.46" width=".38" height=".03"/>
                <rect class="cls-2" x="69.17" y="50.46" width=".74" height=".03"/>
              </g>
              <g>
                <rect class="cls-2" x="68.6" y="50.53" width=".78" height=".03"/>
                <rect class="cls-2" x="69.44" y="50.53" width=".56" height=".03"/>
              </g>
            </g>
            <g>
              <g>
                <rect class="cls-2" x="68.7" y="50.8" width=".38" height=".03"/>
                <rect class="cls-2" x="69.17" y="50.8" width=".74" height=".03"/>
              </g>
              <g>
                <rect class="cls-2" x="68.6" y="50.88" width=".78" height=".03"/>
                <rect class="cls-2" x="69.44" y="50.88" width=".56" height=".03"/>
              </g>
            </g>
          </g>
          <g>
            <rect class="cls-3" x="68.32" y="49.4" width=".14" height=".14"/>
            <rect class="cls-24" x="68.32" y="49.77" width=".14" height=".14"/>
            <rect class="cls-3" x="68.32" y="50.11" width=".14" height=".14"/>
            <rect class="cls-24" x="68.32" y="50.46" width=".14" height=".14"/>
            <rect class="cls-3" x="68.32" y="50.8" width=".14" height=".14"/>
          </g>
        </g>
      </g>
      <g>
        <g>
          <rect class="cls-10" x="27.98" y="24.83" width="4.7" height=".28"/>
          <rect class="cls-10" x="33.61" y="24.83" width="7.22" height=".28"/>
        </g>
        <g>
          <rect class="cls-10" x="27.98" y="25.56" width="7.57" height=".28"/>
          <rect class="cls-10" x="36.21" y="25.56" width="3.15" height=".28"/>
        </g>
      </g>
      <g>
        <rect class="cls-3" x="52.46" y="24.49" width="13.04" height="1.24"/>
        <g>
          <path id="SVGID" class="cls-27" d="M69.24,24.97c0,.72-.58,1.3-1.3,1.3s-1.3-.58-1.3-1.3.58-1.3,1.3-1.3,1.3.58,1.3,1.3Z"/>
          <g class="cls-28">
            <g>
              <path class="cls-29" d="M69.04,26.08c-.05-.39-.39-.67-.76-.67h-.13l-.15.08h-.14l-.08-.08h-.19c-.37,0-.54.28-.69.66l-.08.19h2.23l-.02-.18Z"/>
              <path class="cls-26" d="M67.9,25.55h.15c.07,0,.13-.06.13-.13v-.44h-.42v.44c0,.07.06.13.13.13Z"/>
              <path class="cls-8" d="M68.33,24.61s.09.7-.34.68c0,0-.34.05-.4-.24-.06-.28-.09-.6-.09-.6,0,0,0-.14.09-.16.19-.02.55-.08.64.04.09.12.09.27.09.27Z"/>
              <path class="cls-12" d="M67.96,24.55s-.18.08-.27.04c-.11-.04-.05-.12-.14-.04-.02.02-.02.05-.02.1,0,.04-.14-.31,0-.47.15-.16.28-.19.35-.21.07-.02.18-.01.23.12,0,0,.2-.02.28.09.08.11.09.18.07.35-.02.14-.1.18-.13.26-.02-.02.02-.1-.04-.13-.07-.04-.07-.08-.03-.14s-.07-.13-.09-.15-.04-.03-.07.01c-.03.04-.01.1-.15.17Z"/>
            </g>
          </g>
        </g>
      </g>
    </g>
    <g>
      <g>
        <polygon class="cls-17" points="49.42 39.39 49.58 40.36 49.97 40.83 50.05 41.15 50.09 41.4 49.99 41.41 49.89 41.31 49.81 41.04 49.78 41.08 49.87 41.47 50.05 41.85 49.89 41.98 49.22 41.74 48.93 40.99 48.87 40.48 48.72 39.5 49.42 39.39"/>
        <path class="cls-11" d="M49.26,36.75l.34,3.16-.93.11s-.66-2.45-.67-3.21c-.02-1.36.63-3.95,1.07-5.18.07-.19.22-.41.63-.33.36.07.62.34.57.83-.12,1.28-1.01,4.63-1.01,4.63Z"/>
      </g>
      <g>
        <rect class="cls-17" x="50.8" y="29.66" width="1.88" height="1.17" transform="translate(19.38 80.7) rotate(-87.64)"/>
        <path class="cls-17" d="M53.28,28.74c-.09.68-.21,1.26-1.14,1.19-.61-.04-1.06-.4-1.08-1.12,0-.1-.1-1.41-.09-1.5l.46-.4.91-.28.74.18s.28.26.28.72c0,.14-.07.32-.04.5.03.19.15.38.14.52-.01.12-.17.17-.17.2Z"/>
        <path class="cls-21" d="M52,29.25c-.04.06-.11.1-.19.1,0,0-.51.03-.66-.04-.07-.03-.2-.21-.2-.21l-.14-.49c-.1-.23-.18-.68-.16-1.11.03-.56.54-1.2,1.06-1.37.33-.11.31.15.85.02.54-.13.76-.02.83.04.13.12.25.39.02.77-.11.19-.32.27-.43.3.07.13.15.48-.12.72l-.86,1.26Z"/>
      </g>
      <g>
        <path class="cls-29" d="M49.39,39.59l-.02-.39-.17-.22.07-.4.09-1.7-.42-2.97c-.22-2.22.13-3.1,1.64-3.29l1.91-.03s.76.06,1.02.09c.34.04.86.13,1,.69.22.89.27,1.21.21,2.83-.04,1.05-.24,1.91-.26,2.71-.01.65-.13,1.62-.13,1.62l.11.46-.24.22.02.26-4.83.11Z"/>
        <polygon class="cls-14" points="51.09 30.42 52.37 30.4 52.46 30.61 51.02 30.63 51.09 30.42"/>
      </g>
      <path class="cls-22" d="M54.46,56.92h-.03v.15h-.74l.02-.2h.02,0s.17-.75.17-.75h.76l.02.1.19.26,1.11.32s.09.04.09.09v.09s0,.05,0,.05c0,0-.01.02-.1.05h-1.28l-.08-.1-.08-.05h-.06Z"/>
      <path class="cls-22" d="M50.98,56.92h-.03v.15h-.74l.02-.2h.02,0s.17-.75.17-.75h.76l.02.1.19.26,1.11.32s.09.04.09.09v.09s0,.05,0,.05c0,0-.01.02-.1.05h-1.28l-.08-.1-.08-.05h-.06Z"/>
      <path class="cls-13" d="M52.29,28.48l.2.17c.08.07.21.07.29-.02h0c.07-.08.07-.21-.02-.29l-.2-.17c-.09-.07-.21-.07-.29.02h0c-.07.08-.06.21.02.29Z"/>
      <g>
        <polygon class="cls-25" points="51.36 56.26 50.3 56.26 49.78 47.69 49.43 41.27 49.18 40.06 49.36 39.5 49.35 39.27 52.16 39.27 52.09 40.06 51.59 47.82 51.36 56.26"/>
        <polygon class="cls-25" points="54.85 56.23 53.67 56.21 53.5 47.78 51.29 39.83 51.29 39.27 54.26 39.27 54.37 40.2 55.38 47.68 54.85 56.23"/>
      </g>
      <g>
        <polygon class="cls-17" points="56.9 33.77 56.12 33.81 56.17 32.4 56.08 31.87 56.23 31.24 56.53 30.54 56.66 30.61 56.58 31.33 57.09 31.63 57.1 31.79 57.03 32.11 56.87 32.39 56.9 33.77"/>
        <path class="cls-29" d="M54.4,31.08c.21.25.3.61.44,1,.33.93,1.09,3.45,1.09,3.45l.09-2.7.97-.04s.24,3.05-.15,3.97c-.08.19-.37.57-.58.6-.27.03-.79-.27-.97-.48-.86-1-1.7-3.34-2.08-4.84-.05-.2-.08-.84.22-1.07.29-.22.62-.31.96.1Z"/>
      </g>
    </g>
    <g>
      <polygon class="cls-1" points="73.56 35.58 73.54 35.55 73.57 35.57 73.56 35.58"/>
      <g>
        <polygon class="cls-17" points="75.16 36.1 74.08 35.71 73.76 35.41 73.53 35.31 73.29 35.24 73.28 35.34 73.35 35.41 73.57 35.57 73.53 35.6 73.15 35.52 72.72 35.48 72.6 35.64 72.89 36.19 73.5 36.36 74 36.4 75.09 36.78 75.16 36.1"/>
        <g>
          <g>
            <path class="cls-15" d="M71.07,37.22l-1.68-3.29s0-.1.06-.1h3.16s.05.02.06.04l1.68,3.29s0,.09-.06.09h-3.16s-.05-.02-.06-.04Z"/>
            <path class="cls-21" d="M71.07,37.18l-1.68-3.29s0-.1.06-.1h3.16s.05.02.06.04l1.68,3.29s0,.1-.06.1h-3.16s-.05-.02-.06-.04Z"/>
            <polygon class="cls-18" points="72.45 34.16 73.84 36.87 71.28 36.87 69.89 34.15 72.45 34.16"/>
            <g>
              <path class="cls-2" d="M71.29,34.64c-.19,0-.38,0-.56-.02-.02,0-.03-.02-.03-.03s.01-.03.03-.03c.52.04,1.05.02,1.56-.05.02,0,.03,0,.03.03,0,.02,0,.03-.03.03-.33.05-.67.07-1.01.07Z"/>
              <path class="cls-2" d="M70.89,35.01s-.03-.01-.03-.03.01-.03.03-.03c.28,0,.4,0,.69-.01.03,0,.07,0,.11,0,.1,0,.21,0,.3-.02.18-.02.37-.03.55-.04h0s.03.01.03.03-.01.03-.03.03h0c-.18,0-.36.01-.54.04-.09.01-.2.02-.31.02-.04,0-.07,0-.11,0-.3.01-.41.01-.7.01Z"/>
              <path class="cls-2" d="M71.11,35.44s-.03-.01-.03-.03c0-.02.01-.03.03-.03.34-.04.62-.03.96-.03.2,0,.41,0,.66,0h0s.03.01.03.03-.01.03-.03.03c-.25,0-.47,0-.66,0-.33,0-.62,0-.95.03h0Z"/>
              <path class="cls-2" d="M72.19,35.8c-.3,0-.6,0-.9-.01-.02,0-.03-.02-.03-.03,0-.02.01-.03.03-.03h0c.56.02,1.13.02,1.69,0h0s.03.01.03.03c0,.02-.01.03-.03.03-.26,0-.53.01-.79.01Z"/>
              <path class="cls-2" d="M72.49,36.25c-.16,0-.31,0-.46-.01-.2,0-.41-.01-.61,0-.02,0-.03-.01-.03-.03s.01-.03.03-.03c.21,0,.41,0,.62,0,.37.01.75.03,1.12-.04.02,0,.03,0,.03.02,0,.02,0,.03-.03.04-.22.04-.45.05-.67.05Z"/>
            </g>
          </g>
          <polygon class="cls-17" points="73.29 35.24 73.4 35.27 73.53 35.31 73.76 35.41 74.08 35.71 75.16 36.1 75.09 36.78 74 36.4 73.98 36.4 73.56 35.58 73.57 35.57 73.54 35.55 73.35 35.41 73.28 35.34 73.29 35.24"/>
        </g>
        <path class="cls-24" d="M77.17,36.48l-2.46-.58-.21.77s3.14,1.47,3.59.69c.66-1.14-.01-4.56-.27-5.15-.11-.24-.15-.37-.55-.35-.35.01-.53.17-.48.65.15,1.4.39,3.97.39,3.97Z"/>
      </g>
      <g>
        <rect class="cls-13" x="74.35" y="30.59" width="1.81" height="1.13" transform="translate(41.55 105.31) rotate(-88.05)"/>
        <path class="cls-17" d="M73.87,29.38c-.05.66-.06,1.23.83,1.36.59.09,1.08-.16,1.25-.84.02-.07.2-.69.31-1.08.05-.2.01-.41-.11-.57l-.11-.15s-.08-.09-.14-.12l-.56-.31c-.1-.06-.22-.09-.34-.08h-.29c-.22.02-.42.13-.54.32-.05.08-.1.19-.13.32-.03.13,0,.32-.06.48-.07.18-.22.33-.24.46-.02.12.12.2.12.22Z"/>
      </g>
      <path class="cls-24" d="M73.01,38.32c-.03.17-.09.56-.09.56l-.09.9,4.42.08v-.26s0-.97,0-.97c0,0-.2-1.04-.1-1.69.11-.69.4-1.71.54-2.29.5-2.09.38-2.96-1.05-3.25l-.84-.12h-1.11s-.18.07-.44.11c-.33.05-.88.04-1.04.55-.23.73-.61,1.2-.42,2.44.11.71.32.82.36,1.77.02.46,0,1.17-.15,2.15Z"/>
      <g>
        <g>
          <polygon class="cls-17" points="75.62 54.22 75.72 55.86 75.14 56.63 74.52 56.81 74.52 56.99 75.11 57.01 76.06 56.73 76.49 56.57 76.69 56.22 76.56 55.96 76.51 55.71 76.51 54.17 75.62 54.22"/>
          <polygon class="cls-29" points="74.29 57.07 74.26 57.02 74.34 56.78 75.14 56.6 76.56 55.88 76.59 55.96 76.72 56.23 76.56 56.52 76.49 56.68 76.42 57.07 76.28 57.07 76.23 56.73 75.16 57.07 74.29 57.07"/>
        </g>
        <g>
          <polygon class="cls-17" points="72.59 54.42 72.93 55.86 72.36 56.63 71.73 56.81 71.73 56.99 72.32 57.01 73.27 56.73 73.7 56.57 73.9 56.22 73.77 55.96 73.72 55.71 73.46 54.26 72.59 54.42"/>
          <polygon class="cls-29" points="71.5 57.07 71.47 57.02 71.55 56.78 72.35 56.6 73.77 55.88 73.8 55.96 73.93 56.23 73.77 56.52 73.7 56.68 73.63 57.07 73.49 57.07 73.44 56.73 72.37 57.07 71.5 57.07"/>
        </g>
        <g>
          <polygon class="cls-17" points="75.73 55.75 76.48 55.68 76.5 48.71 76.79 41.6 77.03 40.43 76.86 39.89 76.87 39.67 74.5 39.67 74.57 40.43 75.03 48.84 75.73 55.75"/>
          <polygon class="cls-17" points="72.93 55.86 73.69 55.62 72.58 48.59 75.23 40.21 75.23 39.67 72.89 39.4 72.78 40.3 70.96 48.5 72.93 55.86"/>
        </g>
      </g>
      <path class="cls-25" d="M72.91,38.64l-.23.98-1.29,6.01,5.55.27s-.03-1.93.1-2.72c.16-.92.39-1.62.39-1.62.26-.57.33-1.48.11-2.06-.03-.07-.09-.31-.09-.31l-.16-.58-4.39.03Z"/>
      <g>
        <path class="cls-21" d="M74.99,32c.92.42.16,1.47,1.35,1.28.49-.08.23.85,1.77-.15.82-.53.53-1.54.26-1.74-.72-.54-.94-.25-.84-.86.16-.98-.75-1.03-.68-1.43.09-.53-.56-1.16-1.02-1.42-.29-.17-.4-.17-.94-.19-.65-.02-.78.33-.8.42-.06.21.14.32.28.73.07.2.11.41.11.53,0,.23-.34.32.16.99.31.41-.68,1.38.35,1.85Z"/>
        <path class="cls-17" d="M74.55,29.01l-.11.23c-.05.1-.12.16-.17.13h0s-.05-.12,0-.22l.11-.23c.05-.1.12-.16.17-.13h0c.05.02.05.12,0,.22Z"/>
      </g>
      <g>
        <g>
          <path class="cls-29" d="M71.1,33.18h0c.06-.01.11.02.13.08l.34,1.58c.01.06-.02.11-.08.13h0c-.06.01-.11-.02-.13-.08l-.34-1.58c-.01-.06.02-.12.08-.13Z"/>
          <polygon class="cls-17" points="72.2 35.38 71.87 34.87 71.76 34.54 71.61 34.29 71.45 34.26 71.46 34.32 71.44 34.34 71.27 34.22 71.12 34.25 70.96 34.75 71.11 35.06 71.36 35.24 71.71 35.79 72.2 35.38"/>
        </g>
        <path class="cls-24" d="M73.2,31.95c-.14.28-.15.54-.19.94-.09.95-.28,3-.28,3l-.67-.87-.54.53s.33.88.84,1.69c.11.17.48.45.68.42.26-.03.68-.44.79-.67.57-1.14.67-3.02.68-4.52,0-.2-.09-.79-.43-.94-.32-.14-.66-.06-.89.4Z"/>
      </g>
    </g>
  </g>
</svg>