<?xml version="1.0" encoding="UTF-8"?>
<svg id="Capa_2" data-name="Capa 2" xmlns="http://www.w3.org/2000/svg" xmlns:xlink="http://www.w3.org/1999/xlink" viewBox="0 0 89.88 59.29">
  <defs>
    <style>
      .cls-1 {
        fill: none;
      }

      .cls-2 {
        fill: #7e5f45;
        opacity: .4;
      }

      .cls-2, .cls-3, .cls-4, .cls-5, .cls-6, .cls-7 {
        isolation: isolate;
      }

      .cls-8 {
        fill: #85d2da;
      }

      .cls-9, .cls-6 {
        fill: #222f44;
      }

      .cls-10 {
        fill: #88d0c8;
      }

      .cls-3 {
        fill: #4e5969;
      }

      .cls-3, .cls-4 {
        opacity: .3;
      }

      .cls-11 {
        fill: #e1eef6;
      }

      .cls-12 {
        fill: #b3d5e9;
      }

      .cls-13 {
        fill: #dbf0f4;
      }

      .cls-14 {
        fill: #4f4c4d;
      }

      .cls-15 {
        fill: #f9bfad;
      }

      .cls-16 {
        fill: #f5fbfe;
      }

      .cls-17 {
        clip-path: url(#clippath-1);
      }

      .cls-18 {
        fill: #f0ecec;
      }

      .cls-19 {
        fill: #fff;
      }

      .cls-20 {
        fill: #d9dfe7;
      }

      .cls-4, .cls-5 {
        fill: #435d88;
      }

      .cls-5 {
        opacity: .18;
      }

      .cls-21 {
        fill: #edf5fa;
      }

      .cls-22 {
        opacity: .6;
      }

      .cls-23 {
        fill: #85bbdd;
      }

      .cls-24 {
        fill: #4195c9;
      }

      .cls-25 {
        fill: #6063ab;
      }

      .cls-26 {
        fill: #f47954;
      }

      .cls-6 {
        opacity: .2;
      }

      .cls-27 {
        fill: #f15a2f;
      }

      .cls-7 {
        fill: #c8e5f7;
      }

      .cls-28 {
        fill: #f8af98;
      }

      .cls-29 {
        fill: #8dbfdf;
      }

      .cls-30 {
        clip-path: url(#clippath);
      }
    </style>
    <clipPath id="clippath">
      <circle class="cls-1" cx="21.07" cy="27.54" r="2.19"/>
    </clipPath>
    <clipPath id="clippath-1">
      <path class="cls-1" d="M47.52,32.61c0,1.43-1.16,2.59-2.59,2.59s-2.59-1.16-2.59-2.59,1.16-2.59,2.59-2.59c1.43,0,2.59,1.16,2.59,2.59Z"/>
    </clipPath>
  </defs>
  <g id="sinempleados">
    <path class="cls-7" d="M88.94,37.23c-2.16-5.63-7.89-6.98-8.17-9.55-.76-7.03,1.66-10.93-5.11-19.16-7.94-9.65-29.56-12.95-36.98.04-4.15,7.26-13.63-3.32-24.98,3.6C.35,20.28-7.85,44.27,11.3,58.72l63.78.04c6.58,0,18.19-10.21,13.85-21.53Z"/>
    <path class="cls-6" d="M46.49,59.2c8.39,0,23.84.11,21.93-.48-1.91-.6-11.97-.01-20.23-.21-8.25-.2-15.72-.43-24.16-.13-8.44.29-6.14.63-2.44.73,6.81.18,8.01.25,11.96.15,11.55-.28,9.67-.05,12.93-.05Z"/>
    <g>
      <path class="cls-23" d="M78.47,24.68h-1.89c-.12-.93-.36-1.81-.7-2.64l1.64-.94c.16-.09.21-.3.12-.46l-.99-1.71c-.09-.16-.3-.21-.46-.12l-1.64.95c-.5-.66-1.08-1.25-1.73-1.77l.99-1.61c.1-.16.05-.36-.11-.46l-1.69-1.03c-.16-.1-.36-.05-.46.11l-.99,1.61c-.9-.4-1.87-.68-2.89-.81v-1.89c0-.18-.15-.33-.33-.33h-1.98c-.18,0-.33.15-.33.33v1.89c-.93.12-1.81.36-2.64.7l-.94-1.64c-.09-.16-.3-.21-.46-.12l-1.71.99c-.16.09-.21.3-.12.46l.95,1.64c-.66.5-1.25,1.08-1.77,1.73l-1.61-.99c-.16-.1-.36-.05-.46.11l-1.03,1.69c-.1.16-.05.36.11.46l1.61.99c-.4.9-.68,1.87-.81,2.89h-1.89c-.18,0-.33.15-.33.33v1.98c0,.18.15.33.33.33h1.89c.12.92.36,1.81.7,2.64l-1.64.94c-.16.09-.21.3-.12.46l.99,1.71c.09.16.3.21.46.12l1.64-.95c.5.66,1.08,1.25,1.73,1.77l-.99,1.61c-.1.16-.05.36.11.46l1.69,1.03c.16.1.36.05.46-.11l.99-1.61c.9.4,1.87.68,2.89.81v1.89c0,.18.15.33.33.33h1.98c.18,0,.33-.15.33-.33v-1.89c.93-.12,1.81-.36,2.64-.7l.94,1.64c.09.16.3.21.46.12l1.71-.99c.16-.09.21-.3.12-.46l-.95-1.64c.66-.5,1.25-1.08,1.77-1.73l1.61.99c.16.1.36.05.46-.11l1.03-1.69c.1-.16.05-.36-.11-.46l-1.61-.99c.4-.9.68-1.87.81-2.89h1.89c.18,0,.33-.15.33-.33v-1.98c0-.18-.15-.33-.33-.33ZM71.59,26.04c0,2.89-2.34,5.23-5.23,5.23s-5.23-2.34-5.23-5.23,2.34-5.23,5.23-5.23,5.23,2.34,5.23,5.23Z"/>
      <path class="cls-23" d="M26.89,22.41h-1.35c-.09-.66-.26-1.3-.5-1.89l1.17-.67c.12-.07.15-.21.09-.33l-.71-1.22c-.07-.11-.21-.15-.33-.09l-1.17.68c-.36-.47-.77-.89-1.24-1.27l.71-1.15c.07-.11.03-.26-.08-.33l-1.21-.74c-.11-.07-.26-.03-.33.08l-.71,1.15c-.64-.29-1.34-.49-2.06-.58v-1.35c0-.13-.11-.24-.24-.24h-1.41c-.13,0-.24.11-.24.24v1.35c-.66.08-1.3.26-1.89.5l-.68-1.17c-.07-.11-.21-.15-.33-.09l-1.22.71c-.12.07-.15.21-.09.33l.68,1.17c-.47.36-.9.77-1.27,1.23l-1.15-.71c-.11-.07-.26-.03-.33.08l-.74,1.2c-.07.11-.03.26.08.33l1.15.7c-.29.64-.49,1.34-.58,2.06h-1.35c-.13,0-.24.11-.24.24v1.41c0,.13.11.24.24.24h1.35c.09.66.26,1.3.5,1.89l-1.17.67c-.11.07-.15.21-.09.33l.71,1.22c.07.11.21.15.33.09l1.17-.68c.36.47.77.89,1.24,1.27l-.71,1.15c-.07.11-.03.26.08.33l1.2.74c.11.07.26.03.33-.08l.71-1.15c.64.29,1.34.49,2.06.58v1.35c0,.13.11.24.24.24h1.41c.13,0,.24-.11.24-.24v-1.35c.66-.08,1.3-.26,1.89-.5l.68,1.17c.07.11.21.15.33.09l1.22-.71c.11-.07.15-.21.09-.33l-.68-1.17c.47-.36.9-.77,1.27-1.23l1.15.71c.11.07.26.03.33-.08l.74-1.2c.07-.11.03-.26-.08-.33l-1.15-.7c.29-.64.49-1.34.58-2.06h1.35c.13,0,.24-.11.24-.24v-1.41c0-.13-.11-.24-.24-.24ZM21.97,23.39c0,2.07-1.67,3.74-3.74,3.74s-3.74-1.67-3.74-3.74,1.67-3.74,3.74-3.74,3.74,1.67,3.74,3.74Z"/>
    </g>
    <g>
      <g>
        <g>
          <polygon class="cls-11" points="51.87 57.98 38.23 57.98 39.54 50.6 50.55 50.6 51.87 57.98"/>
          <path class="cls-21" d="M52.87,58.76h-15.64c-.28,0-.5-.22-.5-.5h0c0-.28.22-.5.5-.5h15.64c.28,0,.5.22.5.5h0c0,.28-.22.5-.5.5Z"/>
        </g>
        <polygon class="cls-4" points="39.03 53.48 51.21 54.29 50.95 52.83 39.14 52.83 39.03 53.48"/>
      </g>
      <g>
        <path class="cls-11" d="M22.74,49.25c0,1.97,1.6,3.57,3.57,3.57h37.46c1.97,0,3.57-1.6,3.57-3.57v-2.02H22.74v2.02Z"/>
        <path class="cls-9" d="M64.37,21.75H25.72c-1.65,0-2.98,1.33-2.98,2.98v22.51h44.6v-22.51c0-1.64-1.33-2.98-2.98-2.98Z"/>
        <rect class="cls-29" x="24.9" y="24.42" width="40.29" height="20.92"/>
      </g>
    </g>
    <path class="cls-1" d="M48.11,27.22c-1.07-.47-2.19-.7-3.29-.7-3.13,0-6.11,1.82-7.46,4.86-1.82,4.11.05,8.92,4.16,10.74,1.07.47,2.19.7,3.29.7,3.13,0,6.11-1.81,7.45-4.86,1.82-4.12-.05-8.93-4.16-10.74Z"/>
    <path class="cls-14" d="M56.66,39.76s.02-.04.05-.08l-.06-.03v.11Z"/>
    <g>
      <g>
        <rect class="cls-16" x="17.48" y="22.71" width="15.95" height="20.52"/>
        <g>
          <rect class="cls-11" x="28.87" y="23.84" width="3.03" height=".93"/>
          <g>
            <g>
              <g>
                <rect class="cls-20" x="26.02" y="30.92" width="4.9" height=".25"/>
                <rect class="cls-20" x="24.72" y="32.99" width="4.7" height=".25"/>
                <rect class="cls-20" x="24.72" y="32.48" width="6.2" height=".25"/>
                <rect class="cls-20" x="24.72" y="31.96" width="5.49" height=".25"/>
                <rect class="cls-20" x="24.72" y="31.44" width="6.67" height=".25"/>
              </g>
              <g>
                <rect class="cls-20" x="26.02" y="34.64" width="4.9" height=".25"/>
                <rect class="cls-20" x="24.72" y="36.72" width="4.7" height=".25"/>
                <rect class="cls-20" x="24.72" y="36.2" width="6.2" height=".25"/>
                <rect class="cls-20" x="24.72" y="35.68" width="5.49" height=".25"/>
                <rect class="cls-20" x="24.72" y="35.16" width="6.67" height=".25"/>
              </g>
              <g>
                <rect class="cls-20" x="26.02" y="38.37" width="4.9" height=".25"/>
                <rect class="cls-20" x="24.72" y="40.44" width="4.7" height=".25"/>
                <rect class="cls-20" x="24.72" y="39.92" width="6.2" height=".25"/>
                <rect class="cls-20" x="24.72" y="39.4" width="5.49" height=".25"/>
                <rect class="cls-20" x="24.72" y="38.88" width="6.67" height=".25"/>
              </g>
            </g>
            <g>
              <g>
                <rect class="cls-11" x="18.87" y="30.63" width="4.9" height="2.74"/>
                <g>
                  <g>
                    <rect class="cls-12" x="19.94" y="31.22" width="2.62" height=".06"/>
                    <rect class="cls-12" x="19.94" y="31.46" width="2.33" height=".06"/>
                    <rect class="cls-12" x="19.94" y="31.34" width="2.82" height=".06"/>
                  </g>
                  <path class="cls-24" d="M19.71,31.37c0,.08-.06.14-.14.14s-.14-.07-.14-.14.06-.14.14-.14.14.06.14.14Z"/>
                </g>
                <g>
                  <g>
                    <rect class="cls-12" x="19.94" y="31.8" width="2.62" height=".06"/>
                    <rect class="cls-12" x="19.94" y="32.03" width="2.33" height=".06"/>
                    <rect class="cls-12" x="19.94" y="31.91" width="2.82" height=".06"/>
                  </g>
                  <path class="cls-24" d="M19.71,31.94c0,.08-.06.14-.14.14s-.14-.06-.14-.14.06-.14.14-.14c.08,0,.14.06.14.14Z"/>
                </g>
                <g>
                  <g>
                    <rect class="cls-12" x="19.94" y="32.4" width="2.62" height=".06"/>
                    <rect class="cls-12" x="19.94" y="32.63" width="2.33" height=".06"/>
                    <rect class="cls-12" x="19.94" y="32.52" width="2.82" height=".06"/>
                  </g>
                  <path class="cls-24" d="M19.71,32.55c0,.08-.06.14-.14.14s-.14-.07-.14-.14.06-.14.14-.14.14.07.14.14Z"/>
                </g>
              </g>
              <g>
                <rect class="cls-11" x="18.87" y="33.84" width="4.9" height="4.18"/>
                <g>
                  <g>
                    <rect class="cls-12" x="19.94" y="34.59" width="2.62" height=".06"/>
                    <rect class="cls-12" x="19.94" y="34.82" width="2.33" height=".06"/>
                    <rect class="cls-12" x="19.94" y="34.71" width="2.82" height=".06"/>
                  </g>
                  <path class="cls-24" d="M19.71,34.73c0,.08-.06.14-.14.14s-.14-.06-.14-.14.06-.14.14-.14.14.07.14.14Z"/>
                </g>
                <g>
                  <g>
                    <rect class="cls-12" x="19.94" y="35.21" width="2.62" height=".06"/>
                    <rect class="cls-12" x="19.94" y="35.44" width="2.33" height=".06"/>
                    <rect class="cls-12" x="19.94" y="35.33" width="2.82" height=".06"/>
                  </g>
                  <path class="cls-24" d="M19.71,35.35c0,.08-.06.14-.14.14s-.14-.06-.14-.14.06-.14.14-.14c.08,0,.14.07.14.14Z"/>
                </g>
                <g>
                  <g>
                    <rect class="cls-12" x="19.94" y="35.83" width="2.62" height=".06"/>
                    <rect class="cls-12" x="19.94" y="36.06" width="2.33" height=".06"/>
                    <rect class="cls-12" x="19.94" y="35.94" width="2.82" height=".06"/>
                  </g>
                  <path class="cls-24" d="M19.71,35.97c0,.08-.06.14-.14.14s-.14-.07-.14-.14.06-.14.14-.14.14.06.14.14Z"/>
                </g>
                <g>
                  <g>
                    <rect class="cls-12" x="19.94" y="36.45" width="2.62" height=".06"/>
                    <rect class="cls-12" x="19.94" y="36.68" width="2.33" height=".06"/>
                    <rect class="cls-12" x="19.94" y="36.56" width="2.82" height=".06"/>
                  </g>
                  <path class="cls-24" d="M19.71,36.59c0,.08-.06.14-.14.14s-.14-.07-.14-.14.06-.14.14-.14.14.07.14.14Z"/>
                </g>
                <g>
                  <g>
                    <rect class="cls-12" x="19.94" y="37.07" width="2.62" height=".06"/>
                    <rect class="cls-12" x="19.94" y="37.3" width="2.33" height=".06"/>
                    <rect class="cls-12" x="19.94" y="37.18" width="2.82" height=".06"/>
                  </g>
                  <path class="cls-24" d="M19.71,37.21c0,.08-.06.14-.14.14s-.14-.06-.14-.14.06-.14.14-.14c.08,0,.14.07.14.14Z"/>
                </g>
              </g>
              <g>
                <rect class="cls-11" x="18.87" y="38.49" width="4.9" height="3.12"/>
                <g>
                  <g>
                    <rect class="cls-12" x="19.94" y="39.17" width="2.62" height=".06"/>
                    <rect class="cls-12" x="19.94" y="39.4" width="2.33" height=".06"/>
                    <rect class="cls-12" x="19.94" y="39.29" width="2.82" height=".06"/>
                  </g>
                  <path class="cls-24" d="M19.71,39.32c0,.08-.06.14-.14.14s-.14-.06-.14-.14.06-.14.14-.14c.08,0,.14.06.14.14Z"/>
                </g>
                <g>
                  <g>
                    <rect class="cls-12" x="19.94" y="39.79" width="2.62" height=".06"/>
                    <rect class="cls-12" x="19.94" y="40.02" width="2.33" height=".06"/>
                    <rect class="cls-12" x="19.94" y="39.91" width="2.82" height=".06"/>
                  </g>
                  <path class="cls-24" d="M19.71,39.93c0,.08-.06.14-.14.14s-.14-.07-.14-.14.06-.14.14-.14.14.07.14.14Z"/>
                </g>
                <g>
                  <g>
                    <rect class="cls-12" x="19.94" y="40.41" width="2.62" height=".06"/>
                    <rect class="cls-12" x="19.94" y="40.64" width="2.33" height=".06"/>
                    <rect class="cls-12" x="19.94" y="40.53" width="2.82" height=".06"/>
                  </g>
                  <path class="cls-24" d="M19.71,40.55c0,.08-.06.14-.14.14s-.14-.07-.14-.14.06-.14.14-.14.14.06.14.14Z"/>
                </g>
              </g>
            </g>
          </g>
          <g>
            <circle id="SVGID" class="cls-11" cx="21.07" cy="27.54" r="2.19"/>
            <g class="cls-30">
              <g>
                <path class="cls-8" d="M22.97,29.36c.06-.68-.56-1.24-1.23-1.24h-1.23c-.67,0-1.27.55-1.33,1.23l-.03.38h3.82v-.37Z"/>
                <g>
                  <path class="cls-28" d="M20.99,28.4h.27c.12,0,.23-.09.24-.21l.06-.73h-.75s-.06.69-.06.69c-.01.14.1.26.24.26Z"/>
                  <path class="cls-15" d="M21.91,26.69s-.12,1.19-.66,1.23c0,0-.43.08-.59-.39-.16-.48-.16-1.01-.16-1.01,0,0,0-.26.19-.28.34-.04.99-.14,1.13.08.14.22.09.38.09.38Z"/>
                  <path class="cls-9" d="M22.15,26.61c-.23-.09-.15-.5-.42-.67-.05-.03-.09-.05-.12-.07,0,0-.01-.02-.02-.02-.13-.09-.27-.12-.39-.04-.13-.08-.29-.05-.43.04,0,0-.01.01-.02.02-.03.02-.07.04-.12.07-.27.18-.18.58-.42.67,0,0,.08.04.17.06,0,.02,0,.05.01.07.05.15.07.28.09.35.02.06.05.07.05.07,0,0,.04-.28.06-.46,0,0,0-.02,0-.02.03-.01.07,0,.1,0,.19-.02.19-.02.34-.11.1-.06.07-.23.13-.24.06,0,.07.18.14.21.14.07.16.07.31.11.03,0,.07,0,.1.01,0,0,0,.02,0,.03.01.18.08.46.08.46,0,0,.04-.14.12-.42,0-.02,0-.04.01-.06.1-.02.18-.06.18-.06Z"/>
                </g>
              </g>
            </g>
          </g>
        </g>
      </g>
      <g>
        <g>
          <g>
            <rect class="cls-19" x="40.7" y="26.92" width="18.82" height="24.21"/>
            <g>
              <rect class="cls-11" x="54.13" y="28.25" width="3.57" height="1.1"/>
              <g>
                <g>
                  <g>
                    <rect class="cls-20" x="50.77" y="36.61" width="5.78" height=".3"/>
                    <rect class="cls-20" x="49.24" y="39.05" width="5.55" height=".3"/>
                    <rect class="cls-20" x="49.24" y="38.44" width="7.31" height=".3"/>
                    <rect class="cls-20" x="49.24" y="37.83" width="6.48" height=".3"/>
                    <rect class="cls-20" x="49.24" y="37.22" width="7.87" height=".3"/>
                  </g>
                  <g>
                    <rect class="cls-20" x="50.77" y="41" width="5.78" height=".3"/>
                    <rect class="cls-20" x="49.24" y="43.45" width="5.55" height=".3"/>
                    <rect class="cls-20" x="49.24" y="42.83" width="7.31" height=".3"/>
                    <rect class="cls-20" x="49.24" y="42.22" width="6.48" height=".3"/>
                    <rect class="cls-20" x="49.24" y="41.61" width="7.87" height=".3"/>
                  </g>
                  <g>
                    <rect class="cls-20" x="50.77" y="45.39" width="5.78" height=".3"/>
                    <rect class="cls-20" x="49.24" y="47.84" width="5.55" height=".3"/>
                    <rect class="cls-20" x="49.24" y="47.22" width="7.31" height=".3"/>
                    <rect class="cls-20" x="49.24" y="46.61" width="6.48" height=".3"/>
                    <rect class="cls-20" x="49.24" y="46" width="7.87" height=".3"/>
                  </g>
                </g>
                <g>
                  <g>
                    <rect class="cls-11" x="42.34" y="36.26" width="5.78" height="3.23"/>
                    <g>
                      <g>
                        <rect class="cls-12" x="43.61" y="36.96" width="3.1" height=".07"/>
                        <rect class="cls-12" x="43.61" y="37.24" width="2.74" height=".07"/>
                        <rect class="cls-12" x="43.61" y="37.1" width="3.33" height=".07"/>
                      </g>
                      <path class="cls-24" d="M43.33,37.13c0,.09-.08.17-.17.17s-.17-.08-.17-.17.08-.17.17-.17c.09,0,.17.08.17.17Z"/>
                    </g>
                    <g>
                      <g>
                        <rect class="cls-12" x="43.61" y="37.64" width="3.1" height=".07"/>
                        <rect class="cls-12" x="43.61" y="37.91" width="2.74" height=".07"/>
                        <rect class="cls-12" x="43.61" y="37.78" width="3.33" height=".07"/>
                      </g>
                      <path class="cls-24" d="M43.33,37.81c0,.09-.08.17-.17.17s-.17-.08-.17-.17.08-.17.17-.17.17.08.17.17Z"/>
                    </g>
                    <g>
                      <g>
                        <rect class="cls-12" x="43.61" y="38.35" width="3.1" height=".07"/>
                        <rect class="cls-12" x="43.61" y="38.63" width="2.74" height=".07"/>
                        <rect class="cls-12" x="43.61" y="38.49" width="3.33" height=".07"/>
                      </g>
                      <path class="cls-24" d="M43.33,38.52c0,.09-.08.17-.17.17s-.17-.08-.17-.17.08-.17.17-.17.17.08.17.17Z"/>
                    </g>
                  </g>
                  <g>
                    <rect class="cls-11" x="42.34" y="40.05" width="5.78" height="4.93"/>
                    <g>
                      <g>
                        <rect class="cls-12" x="43.61" y="40.94" width="3.1" height=".07"/>
                        <rect class="cls-12" x="43.61" y="41.21" width="2.74" height=".07"/>
                        <rect class="cls-12" x="43.61" y="41.07" width="3.33" height=".07"/>
                      </g>
                      <path class="cls-24" d="M43.33,41.11c0,.09-.08.17-.17.17s-.17-.08-.17-.17.08-.17.17-.17.17.08.17.17Z"/>
                    </g>
                    <g>
                      <g>
                        <rect class="cls-12" x="43.61" y="41.67" width="3.1" height=".07"/>
                        <rect class="cls-12" x="43.61" y="41.94" width="2.74" height=".07"/>
                        <rect class="cls-12" x="43.61" y="41.8" width="3.33" height=".07"/>
                      </g>
                      <path class="cls-24" d="M43.33,41.84c0,.09-.08.17-.17.17s-.17-.08-.17-.17.08-.17.17-.17c.09,0,.17.08.17.17Z"/>
                    </g>
                    <g>
                      <g>
                        <rect class="cls-12" x="43.61" y="42.4" width="3.1" height=".07"/>
                        <rect class="cls-12" x="43.61" y="42.67" width="2.74" height=".07"/>
                        <rect class="cls-12" x="43.61" y="42.53" width="3.33" height=".07"/>
                      </g>
                      <path class="cls-24" d="M43.33,42.57c0,.09-.08.17-.17.17s-.17-.08-.17-.17.08-.17.17-.17c.09,0,.17.08.17.17Z"/>
                    </g>
                    <g>
                      <g>
                        <rect class="cls-12" x="43.61" y="43.13" width="3.1" height=".07"/>
                        <rect class="cls-12" x="43.61" y="43.4" width="2.74" height=".07"/>
                        <rect class="cls-12" x="43.61" y="43.26" width="3.33" height=".07"/>
                      </g>
                      <path class="cls-24" d="M43.33,43.3c0,.09-.08.17-.17.17s-.17-.08-.17-.17.08-.17.17-.17c.09,0,.17.08.17.17Z"/>
                    </g>
                    <g>
                      <g>
                        <rect class="cls-12" x="43.61" y="43.86" width="3.1" height=".07"/>
                        <rect class="cls-12" x="43.61" y="44.13" width="2.74" height=".07"/>
                        <rect class="cls-12" x="43.61" y="43.99" width="3.33" height=".07"/>
                      </g>
                      <path class="cls-24" d="M43.33,44.03c0,.09-.08.17-.17.17s-.17-.08-.17-.17.08-.17.17-.17.17.08.17.17Z"/>
                    </g>
                  </g>
                  <g>
                    <rect class="cls-11" x="42.34" y="45.54" width="5.78" height="3.68"/>
                    <g>
                      <g>
                        <rect class="cls-12" x="43.61" y="46.34" width="3.1" height=".07"/>
                        <rect class="cls-12" x="43.61" y="46.61" width="2.74" height=".07"/>
                        <rect class="cls-12" x="43.61" y="46.48" width="3.33" height=".07"/>
                      </g>
                      <path class="cls-24" d="M43.33,46.51c0,.09-.08.17-.17.17s-.17-.08-.17-.17.08-.17.17-.17c.09,0,.17.08.17.17Z"/>
                    </g>
                    <g>
                      <g>
                        <rect class="cls-12" x="43.61" y="47.07" width="3.1" height=".07"/>
                        <rect class="cls-12" x="43.61" y="47.34" width="2.74" height=".07"/>
                        <rect class="cls-12" x="43.61" y="47.21" width="3.33" height=".07"/>
                      </g>
                      <path class="cls-24" d="M43.33,47.24c0,.09-.08.17-.17.17s-.17-.08-.17-.17.08-.17.17-.17.17.08.17.17Z"/>
                    </g>
                    <g>
                      <g>
                        <rect class="cls-12" x="43.61" y="47.8" width="3.1" height=".07"/>
                        <rect class="cls-12" x="43.61" y="48.07" width="2.74" height=".07"/>
                        <rect class="cls-12" x="43.61" y="47.94" width="3.33" height=".07"/>
                      </g>
                      <path class="cls-24" d="M43.33,47.97c0,.09-.08.17-.17.17s-.17-.08-.17-.17.08-.17.17-.17.17.08.17.17Z"/>
                    </g>
                  </g>
                </g>
              </g>
              <g>
                <path id="SVGID-2" data-name="SVGID" class="cls-11" d="M47.52,32.61c0,1.43-1.16,2.59-2.59,2.59s-2.59-1.16-2.59-2.59,1.16-2.59,2.59-2.59c1.43,0,2.59,1.16,2.59,2.59Z"/>
                <g class="cls-17">
                  <g>
                    <g>
                      <path class="cls-25" d="M42.67,34.76c-.07-.81.66-1.47,1.46-1.47h1.46c.8,0,1.5.65,1.57,1.46l.04.45h-4.53v-.44Z"/>
                      <g>
                        <path class="cls-28" d="M45.02,33.62h-.33c-.15,0-.27-.11-.28-.26l-.08-.87h.89s.07.82.07.82c.02.16-.11.3-.28.31Z"/>
                        <path class="cls-15" d="M43.93,31.6s.14,1.41.79,1.46c0,0,.51.09.7-.47.2-.57.19-1.2.19-1.2,0,0,0-.31-.22-.33-.4-.05-1.17-.17-1.34.09-.17.26-.11.45-.11.45Z"/>
                      </g>
                    </g>
                    <path class="cls-9" d="M44.14,30.7c.06-.04.1-.06.14-.08,0,0,.01-.02.02-.02.16-.11.32-.14.46-.05.15-.1.35-.06.51.05,0,0,.01.02.02.02.04.02.08.04.14.08.32.21.32.37.38.67,0,0,.03.17-.09.2,0,.03,0,.05-.02.08-.05.15-.08.22-.1.3l-.05.05.03-.3-.03-.03s-.04.16-.04.16h-.02c-.01-.09-.02-.16-.03-.23,0-.01,0-.02,0-.03-.04-.01-.06,0-.1,0-.04,0-.09.02-.18-.05-.06-.05-.02-.28-.08-.33-.23-.21-.4.18-.49.22-.17.08-.19.08-.37.13-.04.01-.08,0-.12.02,0,.01,0,.02,0,.03,0,.07-.02.15-.03.24h-.03s-.04-.18-.04-.18h-.04s0,.27,0,.27h-.03c-.02-.08-.04-.16-.07-.28,0,0-.1-.11-.12-.2-.09-.48.07-.54.39-.75Z"/>
                  </g>
                </g>
              </g>
            </g>
          </g>
          <polygon class="cls-6" points="54.35 26.88 59.56 26.88 59.56 31.08 60.27 31.08 60.27 26.35 54.35 26.35 54.35 26.88"/>
        </g>
        <polygon class="cls-5" points="40.7 51.13 59.52 51.13 59.52 45.39 60.22 45.39 60.22 51.78 40.7 51.78 40.7 51.13"/>
      </g>
    </g>
    <g>
      <path class="cls-28" d="M56.97,40.63c.05-.44,1.11-1.7,1.11-1.7l1.4-.84,4.12-1.85h0s0,0,0,0l3.56,7.55s-.76,1.33-2.17,1.37c-.41.01-.39,0-.88-.06,0,0-.77-.13-1.4-.36-.76-.27-1.63-.67-2.15-.83-.21-.06-.73-.39-.95-.48,0,0-2.12-1.23-2.52-1.92-.11-.19-.12-.87-.12-.87Z"/>
      <g>
        <g>
          <g>
            <path class="cls-9" d="M64.11,40.95c.32.14.51.41.42.61l-.62,1.4c-.09.19-.41.23-.73.1l-10.58-4.67c-.32-.14-.51-.41-.42-.61l.62-1.4c.08-.2.41-.24.73-.1l10.58,4.67Z"/>
            <path class="cls-3" d="M64.54,41.56c.09-.19-.11-.47-.42-.61l-10.58-4.67c-.32-.14-.64-.1-.73.1l-.3.68,11.82,4.99.22-.49Z"/>
          </g>
          <g>
            <path class="cls-26" d="M57.28,37.8l-1.02,2.32c-.14.32,0,.69.32.84l.58.26,9.76,4.3c.32.14.7,0,.84-.32l1.02-2.32c.14-.32,0-.69-.33-.83l-9.84-4.34-.5-.22c-.32-.14-.69,0-.84.32Z"/>
            <path class="cls-27" d="M56.58,40.96l.58.26,9.76,4.3c.32.14.7,0,.84-.32l.71-1.6-11.61-4.82-.6,1.36c-.14.32,0,.69.32.83Z"/>
          </g>
        </g>
        <g>
          <path class="cls-9" d="M48.78,24.91c-4.96-2.19-10.76.05-12.95,5.01-2.19,4.96.05,10.76,5.01,12.95,4.96,2.19,10.76-.06,12.95-5.01,2.19-4.96-.05-10.76-5.01-12.95ZM41.52,41.35c-4.12-1.82-5.98-6.63-4.16-10.74,1.82-4.12,6.63-5.99,10.75-4.16,4.12,1.81,5.98,6.63,4.16,10.74-1.82,4.12-6.63,5.98-10.75,4.16Z"/>
          <path class="cls-3" d="M48.78,24.91c-1.29-.57-2.64-.84-3.96-.84-3.77,0-7.37,2.18-8.99,5.85-2.19,4.96.05,10.76,5.01,12.95,1.29.57,2.63.84,3.96.84,3.77,0,7.37-2.18,8.99-5.85,2.19-4.96-.05-10.76-5.01-12.95ZM53.06,37.54c-1.44,3.27-4.68,5.37-8.25,5.37-1.25,0-2.48-.26-3.63-.77-2.2-.97-3.9-2.75-4.76-4.99s-.81-4.7.16-6.9c1.44-3.27,4.68-5.38,8.25-5.38,1.26,0,2.48.26,3.64.77,2.2.97,3.89,2.75,4.77,4.99.87,2.25.81,4.7-.16,6.9Z"/>
          <g>
            <g class="cls-22">
              <path class="cls-13" d="M48.11,26.44c-4.12-1.82-8.93.05-10.75,4.16-1.82,4.11.05,8.92,4.16,10.74,4.12,1.82,8.93-.04,10.75-4.16,1.82-4.12-.05-8.93-4.16-10.74Z"/>
              <path class="cls-10" d="M44.82,26.55c1.02,0,2.02.21,2.97.63,1.79.79,3.17,2.23,3.88,4.06.71,1.83.66,3.83-.13,5.62-1.17,2.66-3.81,4.38-6.72,4.38-1.02,0-2.02-.21-2.97-.63-1.79-.79-3.17-2.24-3.88-4.07-.71-1.83-.66-3.82.13-5.62,1.18-2.66,3.82-4.38,6.72-4.38M44.82,25.74c-3.13,0-6.11,1.82-7.46,4.86-1.82,4.11.05,8.92,4.16,10.74,1.07.47,2.19.7,3.29.7,3.13,0,6.11-1.81,7.45-4.86,1.82-4.12-.05-8.93-4.16-10.74-1.07-.48-2.19-.7-3.29-.7h0Z"/>
            </g>
            <path class="cls-19" d="M50.33,32.55c-.1-.05-.18-.14-.19-.26-.14-1.58-1.13-2.96-2.58-3.6,0,0,0,0,0,0-.68-.3-1.43-.42-2.17-.36-.18.02-.33-.11-.35-.29-.02-.18.11-.33.29-.35.85-.08,1.71.06,2.49.41,0,0,0,0,0,0,1.66.73,2.79,2.32,2.96,4.13.02.18-.11.33-.29.35-.06,0-.11,0-.16-.03Z"/>
          </g>
        </g>
      </g>
      <g>
        <path class="cls-2" d="M64.46,44.02l.72.2,1.32.35.15.22s-.25.14-.34.16c-.43.06-2.02-.11-2.02-.11,0,0-.99.01-2.32-.38-.92-.27-1.42-.5-2.04-.77-.12-.05-.29-.1-.53-.18-.06-.02-.07-.08-.21-.16-.16-.09-.44-.22-.53-.32-.18-.2-.61-.52-.66-.7-.04-.16.02-.6.18-.67s.64-.06.64-.06l.91.36,3,1.65.86.15.86.27Z"/>
        <g>
          <g>
            <path class="cls-28" d="M80.48,44.12l-8-3.6s-.09-.05-.14-.08l-8.11-4.22c-.69-.3-.99.25-.99,1.07l.21,3.78-.41.44-2.02.49s-1.04-.13-1.45-.24c-.74-.19-1.36-.24-1.45.05l-.02.08c-.17.62.43,1.02.98,1.37.37.23,1.2.73,1.52.87.86.36,3.67.6,3.67.6l5.17.42c.22.04.89.3.89.3l10.14,4.56v-5.89h0Z"/>
            <path class="cls-15" d="M63.85,37.97c1.3.44,1.62,1.96,3.89,2.77,2.26.8,4.39,2.59,4.39,2.59l1.08-2.48c-.27-.14-.53-.25-.86-.4l-8.11-4.22c-.26-.12-.47-.11-.63,0h0l-3.86,1.73-.14.06s2.93-.49,4.23-.06Z"/>
          </g>
          <g>
            <g>
              <polygon class="cls-18" points="73.38 40.48 70.87 46.19 80.48 50.51 80.48 43.68 73.38 40.48"/>
              <polygon class="cls-19" points="73.38 40.48 72.13 43.32 80.48 47.08 80.48 43.68 73.38 40.48"/>
            </g>
            <g>
              <polygon class="cls-25" points="74.6 40.69 71.81 47.05 81.76 51.58 84.3 45.09 74.6 40.69"/>
              <polygon class="cls-25" points="74.6 40.69 73.21 43.87 82.97 48.49 84.3 45.09 74.6 40.69"/>
            </g>
          </g>
        </g>
      </g>
    </g>
  </g>
</svg>