<?xml version="1.0" encoding="UTF-8"?>
<svg id="Capa_2" data-name="Capa 2" xmlns="http://www.w3.org/2000/svg" xmlns:xlink="http://www.w3.org/1999/xlink" viewBox="0 0 88.79 54.22">
  <defs>
    <style>
      .cls-1 {
        fill: #005378;
      }

      .cls-2 {
        fill: #1a2c3d;
        opacity: .1;
      }

      .cls-2, .cls-3, .cls-4, .cls-5, .cls-6, .cls-7 {
        isolation: isolate;
      }

      .cls-8 {
        fill: #222f44;
      }

      .cls-9 {
        fill: #f7a9a7;
      }

      .cls-10 {
        fill: #177bac;
      }

      .cls-3 {
        fill: url(#Degradado_sin_nombre);
        opacity: .6;
      }

      .cls-11 {
        fill: #a7b3bf;
      }

      .cls-12 {
        fill: #f9bfad;
      }

      .cls-4, .cls-5, .cls-7 {
        opacity: .4;
      }

      .cls-4, .cls-13 {
        fill: #24415e;
      }

      .cls-14 {
        fill: #fff;
      }

      .cls-15 {
        fill: #12212f;
      }

      .cls-16 {
        fill: #959ba5;
      }

      .cls-17 {
        opacity: .5;
      }

      .cls-5, .cls-6 {
        fill: #abb6c1;
      }

      .cls-6 {
        opacity: .2;
      }

      .cls-7 {
        fill: #4195c9;
      }

      .cls-18 {
        fill: #6063ab;
      }

      .cls-19 {
        fill: #50677e;
      }

      .cls-20 {
        fill: #c7eafc;
      }

      .cls-21 {
        fill: #738598;
      }

      .cls-22 {
        fill: #ccdde4;
      }

      .cls-23 {
        fill: #f8af98;
      }

      .cls-24 {
        fill: #d9eaf4;
      }
    </style>
    <linearGradient id="Degradado_sin_nombre" data-name="Degradado sin nombre" x1="73.32" y1="-677.85" x2="70.14" y2="-686.57" gradientTransform="translate(0 -679.36) scale(1 -1)" gradientUnits="userSpaceOnUse">
      <stop offset="0" stop-color="#fff"/>
      <stop offset="1" stop-color="#000"/>
    </linearGradient>
  </defs>
  <g id="reportes">
    <g>
      <g>
        <g>
          <g>
            <rect class="cls-21" x="27.56" y="33.77" width="1.16" height="14.6"/>
            <rect class="cls-5" x="28.14" y="33.77" width=".25" height="14.6"/>
          </g>
          <g>
            <path class="cls-19" d="M29.11,47.72h-1.94v-4.69c0-.06.05-.11.11-.11h1.72c.06,0,.11.05.11.11v4.69h0Z"/>
            <rect class="cls-6" x="28.39" y="42.92" width=".31" height="4.8"/>
          </g>
        </g>
        <g>
          <path class="cls-19" d="M21.23,48.88v-.58c0-.32.26-.58.58-.58h13.22c.32,0,.58.26.58.58v.58h-14.38Z"/>
          <g>
            <g>
              <rect class="cls-19" x="21.23" y="48.69" width=".5" height="1.79"/>
              <rect class="cls-19" x="35.11" y="48.69" width=".5" height="1.79"/>
              <rect class="cls-19" x="27.89" y="48.69" width=".5" height="1.79"/>
            </g>
            <path class="cls-15" d="M22.8,50.54c0,.73-.59,1.32-1.32,1.32s-1.32-.59-1.32-1.32.59-1.32,1.32-1.32,1.32.59,1.32,1.32Z"/>
            <path class="cls-19" d="M22.22,50.54c0,.41-.33.74-.74.74s-.74-.33-.74-.74.33-.74.74-.74c.41,0,.74.33.74.74Z"/>
            <path class="cls-15" d="M29.4,50.54c0,.73-.59,1.32-1.32,1.32s-1.32-.59-1.32-1.32.59-1.32,1.32-1.32,1.32.59,1.32,1.32Z"/>
            <path class="cls-19" d="M28.82,50.54c0,.41-.33.74-.74.74s-.74-.33-.74-.74.33-.74.74-.74c.41,0,.74.33.74.74Z"/>
            <circle class="cls-15" cx="35.36" cy="50.54" r="1.32"/>
            <path class="cls-19" d="M36.1,50.54c0,.41-.33.74-.74.74s-.74-.33-.74-.74.33-.74.74-.74.74.33.74.74Z"/>
          </g>
        </g>
      </g>
      <g>
        <g>
          <path class="cls-16" d="M29.88,33.28h-3.88l1.1-1.53v-13.16c0-.52.42-.94.94-.94h0c.52,0,.94.42.94.94v13.12l.9,1.56Z"/>
          <path class="cls-13" d="M33.41,25.33h-9.76c-.38,0-.7-.31-.74-.71l-1.09-10.79c-.06-.63.41-1.19,1.01-1.19h10.93c.58,0,1.04.52,1.01,1.14l-.61,10.8c-.02.42-.35.75-.75.75Z"/>
        </g>
        <g>
          <path class="cls-19" d="M30.79,34.16h-5.4c-.17,0-.35-.03-.51-.08l-5.11-1.68h17l-5.51,1.69c-.15.05-.31.07-.48.07Z"/>
          <path class="cls-13" d="M36.86,32.4h-17.44c-.44,0-.8-.36-.8-.8v-.37c0-.44.36-.8.8-.8h17.44c.44,0,.8.36.8.8v.37c0,.44-.36.8-.8.8Z"/>
        </g>
      </g>
    </g>
    <path class="cls-19" d="M66.04,20.4s-2.37.03-3.18,0c-.11,0,0-.44,0-.44l.07-.27c.11-.39.46-.66.86-.66h0c.15,0,.29.03.42.1,0,0,1.54.55,1.8.99.04.06.03.27.03.27Z"/>
    <g>
      <g>
        <path class="cls-1" d="M23.71,14.19c.46-5.36.09-5.27,3.42-5.56,1.28-.11,3.33-.13,5.02.26.57.13,2.39.75,2.35,2.06-.07,2.16-.19.71-.59,4.09-.27,2.29-.34,3.99-.31,5.76.04,2.49.1,3.84.1,3.84l.19,1.99-.41.44v.47s-9.78,0-9.78,0v-.37s-.47-.48-.47-.48l.05-1.89s.19-7.91.42-10.62Z"/>
        <g>
          <g>
            <g>
              <path class="cls-9" d="M17.38,11.3l-.06-.93-.12-.52h0s0,0,0,0c0,0-.1-.22-.14-.29-.01-.03-.04-.05-.07-.06h0s0,0,0,0c0,0,0,0,0,0-.03,0-.06,0-.09.01-.07.05-.06.16,0,.36l.02.1v.02s0,0,0,0h0v.19s0,0,0,0l-.02.09-.22-.41s-.22-.05-.56.13c0,0-.47.25-.64.6l.49.98.37.42,1.08,1.99,1.1-.64-1.14-2.06Z"/>
              <path class="cls-9" d="M15.39,9.16l-.02-.03c-.03-.06-.11-.08-.17-.04-.06.03-.08.11-.04.17l.02.04.6,1.1.24-.18-.64-1.06h0Z"/>
              <path class="cls-9" d="M15.22,9.64c-.04-.06-.11-.08-.17-.04-.06.04-.08.11-.04.17l.04.07.47.83.22-.24-.49-.74-.03-.05Z"/>
              <path class="cls-9" d="M15.64,8.78c-.03-.06-.11-.08-.17-.05-.06.03-.08.11-.05.17h0s.64,1.29.64,1.29l.28-.16-.7-1.24h0Z"/>
              <path class="cls-9" d="M16.14,8.78l-.04-.08c-.03-.06-.1-.09-.17-.06-.06.03-.09.1-.06.17l.02.04.51,1.16.3-.09-.57-1.13h0Z"/>
            </g>
            <polygon class="cls-2" points="16.9 10.28 16.71 10.64 16.76 11.14 16.67 10.61 16.88 10.22 16.9 10.28"/>
          </g>
          <path class="cls-1" d="M16.53,12.79l1.29-.95,2.49,4.16s.81-1.39,1.8-2.95c.83-1.32,1.59-2.7,2.16-3.53.19-.28.5-.56.98-.62.39-.05,1.06.85,1.1,1.51.02.45-.39,1.22-.58,1.58-.42.77-.87,1.71-1.51,2.64-1.25,1.81-2.12,2.89-2.7,3.53-.53.59-.94.74-1.42.69-.55-.05-.95-.52-1.08-.76-.72-1.28-2.53-5.3-2.53-5.3Z"/>
        </g>
        <g>
          <path class="cls-9" d="M28.22,6.98h1.82v1.86c0,.52-.42.95-.95.95h0c-.54,0-.97-.45-.95-.99l.08-1.82Z"/>
          <path class="cls-9" d="M31.47,5.13c.01,1.43-.62,2.7-1.84,2.71-1.22,0-2.21-1.14-2.22-2.57,0-.13-.06-1.31-.08-2.15-.02-.52.21-1.02.61-1.35l.04-.03c.18-.15.39-.26.62-.33l1.01-.28c.3-.08.61-.08.9,0l.28.08c.72.2.9.74.89,1.49,0,0,0,.02,0,.03-.02.84-.21,2.25-.21,2.4Z"/>
          <path class="cls-13" d="M32.58,1.66c-.12-.13-.49.08-.85-.04-.17-.06-.52-.92-1.88-1.05-1.1-.1-1.52.56-1.52.56,0,0-.36-.16-.78.21-.28.25-.48.79-.51,1.24-.03.39-.06.8,0,1.24.11.82.28,1.03.28,1.03l.09.04.42-.72-.16-.41c-.06-.16.02-.34.18-.4.14-.05.29,0,.37.13l.24-.42c.06-.24.58-.32.81-.08.37.36.82.51,1.49.62.91.16,1.33-.21,1.78-.95.3-.48.13-.93.06-1.01Z"/>
        </g>
        <g>
          <g>
            <path class="cls-14" d="M28.16,8.21s.13.23.21.35c.11.17.53.74.53.74l.03.07-.67.92-.31-1.7.2-.36h.02Z"/>
            <path class="cls-14" d="M30.03,8.21s-.12.32-.19.44c-.14.24-.49.64-.49.64l-.03.07.63.92.33-1.67-.23-.38-.03-.02Z"/>
          </g>
          <g>
            <polygon class="cls-18" points="28.93 9.37 29.33 9.37 29.59 9.75 29.32 10.14 28.9 10.14 28.66 9.74 28.93 9.37"/>
            <polygon class="cls-18" points="28.9 10.14 28.23 25.34 29 25.91 29.78 25.34 29.32 10.14 28.9 10.14"/>
          </g>
        </g>
        <g>
          <path class="cls-9" d="M28.93,20.41l.35-.12,1.9.09-.16-1.31-1.68.12-.89-.44-.74.06-.43.48s-.05.1-.03.15l.17.44.33.52h.23s.96,0,.96,0Z"/>
          <path class="cls-1" d="M32.47,10.1c.25-.25.88-.39,1.31-.25.36.11.46.25.62.52.25.45,1.53,2.95,2.3,4.68.83,1.85,1.08,3.02,1.14,4.39.02.32-.22.6-.49.78h0c-.19.13-.42.2-.66.19h-6.42l-.31-1.38,5.21-.51s-.33-.9-1.12-2.68c-.7-1.59-1.52-2.9-1.85-3.61-.46-1.02-.17-1.67.26-2.11Z"/>
        </g>
      </g>
      <g>
        <g>
          <path class="cls-13" d="M33.45,51.9h-.07v.34h-1.63l.04-.45h.05s0,0,0,0l.37-1.64h1.68l.04.22.41.57,2.45.7s.19.08.19.19v.19s-.01.12-.01.12c0,0-.03.05-.23.11h-2.81l-.17-.23-.17-.1h-.14Z"/>
          <path class="cls-13" d="M25.34,51.9h.07v.34h1.32l-.04-.45h-.05s0,0,0,0l-.37-1.64h-1.68l-.04.22-.41.57-1.72.7s-.19.08-.19.19v.19s.01.12.01.12c0,0,.03.05.23.11h2.39l.17-.23.17-.1h.15Z"/>
        </g>
        <polygon class="cls-10" points="35.95 28.84 33.74 27.99 33.65 27.21 31.39 27.21 31.39 27.19 23.55 27.21 23.46 27.99 21.24 28.84 20.86 29.59 24.05 50.59 26.52 50.43 24.9 30.87 28.6 30.85 32.3 30.87 31.91 50.45 34.29 50.59 36.34 29.59 35.95 28.84"/>
      </g>
    </g>
    <g>
      <path class="cls-22" d="M88.79,22.27H0v-1.24c0-.34.28-.62.62-.62h87.56c.34,0,.62.28.62.62v1.24Z"/>
      <g>
        <g>
          <rect class="cls-22" x="4.23" y="22.27" width="1.69" height="30.63"/>
          <rect class="cls-22" x="10.49" y="22.27" width="1.69" height="30.63"/>
          <rect class="cls-22" x="5.08" y="44.51" width="6.26" height="1.36"/>
        </g>
        <g>
          <rect class="cls-22" x="76.61" y="22.27" width="1.69" height="30.63"/>
          <rect class="cls-22" x="82.87" y="22.27" width="1.69" height="30.63"/>
          <rect class="cls-22" x="77.46" y="44.51" width="6.26" height="1.36"/>
        </g>
      </g>
    </g>
    <g>
      <g>
        <path class="cls-18" d="M46.18,9.13c-.3-.19-.69-.27-1.13-.19-.29.05-.81.45-1.12,1-.44.75-1.2,2.69-1.56,4.36-.54,2.51-.7,3.85-.64,5.14.02.32.22.6.49.78h0c.19.13.42.2.66.19l6.44-.12.3-1.22-5.34-.57s.28-1.86.94-3.85c.5-1.53,1.78-3.6,1.67-4.38-.05-.33-.2-.83-.71-1.15Z"/>
        <g>
          <g>
            <g>
              <polygon class="cls-9" points="48 6.61 49.82 6.61 49.82 9.51 47.88 9.51 48 6.61"/>
              <path class="cls-9" d="M51.51,5.14c.08,1.29-.75,2.39-1.85,2.46-1.1.07-2.06-.93-2.13-2.22-.01-.18-.25-2.53-.23-2.7l.81-.74,1.61-.55,1.34.3s.51.45.53,1.27c.02.76-.08,2.05-.07,2.18Z"/>
            </g>
            <path class="cls-4" d="M50.96,4.4s.03.9.17.99.38-.01.38-.01c0,0,.03.22,0,.35-.02.1-.2.99-.49,1.35-.29.36-.87.42-.87.42,0,0,0-.03.01-.06.05-.12.17-.4.24-.49.09-.12.36-1.39.35-1.55s-.05-.9-.05-.9l.24-.1Z"/>
          </g>
          <path class="cls-13" d="M51.6.56c-.12-.11-.52-.3-1.49-.04-.96.26-.94-.21-1.53,0-.93.33-1.82,1.51-1.84,2.52-.02.76.36,1.69.55,2.09l.31,1.13.4.26,1.5-.07.49-.24.16-.61c.04-.21.08-.6.07-.61l-.11-.5c-.05-.21-.06-.4.06-.51.06-.06.18-.21.29-.09.11.13.22.54.27.6l.24-.1v-.73s.21-.37.21-.37c-.03-.31-.07-.61-.09-.81.21-.07.4-.19.59-.54.39-.69.17-1.17-.08-1.38Z"/>
        </g>
        <g>
          <path class="cls-18" d="M43.68,14.2c.46-5.35.09-5.27,3.42-5.55,1.28-.11,3.33-.13,5.02.26.57.13,2.39.75,2.35,2.06-.07,2.16-.19.71-.59,4.09-.27,2.29-.33,3.99-.31,5.75.04,2.49.1,4.08.1,4.08l.19,1.99-.41.44v.47s-9.76,0-9.76,0v-.37s-.47-.48-.47-.48l.05-1.89s.19-8.15.42-10.85Z"/>
          <polygon class="cls-18" points="47.78 8.06 49.9 8.06 50.03 8.65 47.54 8.65 47.78 8.06"/>
        </g>
        <g>
          <path class="cls-9" d="M65.85,19.78l.06-.08-.5-.52-.76-.41-1.02-.06-.89.44-1.68-.12-.16,1.3,1.51-.03.38.06s.41,0,.55-.03c.18-.06.81-.37.81-.37l.57.26h.23s.51-.46.51-.46l.19.07.2-.04Z"/>
          <path class="cls-18" d="M54.41,10.59c.69,1.84,1.77,7.92,1.77,7.92l5.79.51-.23,1.32-6.58.07c-.21,0-.4-.06-.58-.17l-.15-.1c-.2-.13-.34-.33-.4-.56,0,0-1.86-5.67-2.1-7.63-.05-.4-.06-1.35.19-1.67.4-.52,1.11-.73,1.48-.61.46.15.69.6.81.92Z"/>
        </g>
      </g>
      <g>
        <g>
          <path class="cls-13" d="M60.94,53.18l.17.1.17.23h2.81c.2-.06.23-.11.23-.11v-.12s.01-.19.01-.19c0-.11-.19-.19-.19-.19l-2.45-.7-.41-.57-.04-.22h-1.68l-.37,1.64h0s-.05,0-.05,0l-.04.45h1.62v-.34s.23,0,.23,0Z"/>
          <path class="cls-13" d="M46.29,53.17h.07v.34h1.63l-.04-.45h-.05s0,0,0,0l-.37-1.64h-1.68l-.04.22-.41.57-1.28.7s-.19.08-.19.19v.19s.01.12.01.12c0,0,.03.05.23.11h1.64l.17-.23.17-.1h.14Z"/>
        </g>
        <polygon class="cls-1" points="59.89 29.08 53.69 28.23 53.6 27.45 51.34 27.45 51.34 27.43 43.52 27.45 43.42 28.23 42.64 29.08 42.26 29.83 45.44 51.86 47.92 51.7 46.3 31.82 48.56 31.79 56.23 31.82 59.08 51.72 61.44 51.58 60.27 29.83 59.89 29.08"/>
      </g>
    </g>
    <g>
      <g>
        <g>
          <g>
            <rect class="cls-21" x="48.59" y="35.1" width="1.16" height="15.64"/>
            <rect class="cls-5" x="49.16" y="35.1" width=".25" height="15.64"/>
          </g>
          <g>
            <path class="cls-19" d="M50.14,50.08h-1.94v-4.68c0-.06.05-.11.11-.11h1.72c.06,0,.11.05.11.11v4.68h0Z"/>
            <rect class="cls-6" x="49.41" y="45.29" width=".31" height="4.79"/>
          </g>
        </g>
        <g>
          <path class="cls-19" d="M42.26,51.24v-.58c0-.32.26-.58.58-.58h13.21c.32,0,.58.26.58.58v.58h-14.37Z"/>
          <g>
            <g>
              <rect class="cls-19" x="42.26" y="51.05" width=".5" height="1.79"/>
              <rect class="cls-19" x="56.13" y="51.05" width=".5" height="1.79"/>
              <rect class="cls-19" x="48.91" y="51.05" width=".5" height="1.79"/>
            </g>
            <circle class="cls-15" cx="42.51" cy="52.9" r="1.32"/>
            <circle class="cls-19" cx="42.51" cy="52.9" r=".74"/>
            <path class="cls-15" d="M50.43,52.9c0,.73-.59,1.32-1.32,1.32s-1.32-.59-1.32-1.32.59-1.32,1.32-1.32c.73,0,1.32.59,1.32,1.32Z"/>
            <path class="cls-19" d="M49.85,52.9c0,.41-.33.74-.74.74s-.74-.33-.74-.74.33-.74.74-.74.74.33.74.74Z"/>
            <circle class="cls-15" cx="56.38" cy="52.9" r="1.32"/>
            <circle class="cls-19" cx="56.38" cy="52.9" r=".74"/>
          </g>
        </g>
      </g>
      <g>
        <g>
          <path class="cls-13" d="M50.91,26.66h-8.72c-.38,0-.7-.31-.74-.71l-1.09-11.02c-.06-.63.41-1.19,1.01-1.19h9.89c.58,0,1.04.52,1.01,1.14l-.61,11.03c-.02.42-.35.74-.74.74Z"/>
          <path class="cls-13" d="M57.87,33.73h-17.42c-.44,0-.8-.36-.8-.8v-.37c0-.44.36-.8.8-.8h17.42c.44,0,.8.36.8.8v.37c0,.44-.36.8-.8.8Z"/>
        </g>
        <g>
          <path class="cls-19" d="M51.82,35.49h-5.39c-.17,0-.34-.03-.51-.08l-5.1-1.68h16.99l-5.51,1.69c-.15.05-.32.07-.48.07Z"/>
          <path class="cls-19" d="M48.45,34.61h-3.88l1.1-1.52v-13.39c0-.52.42-.94.94-.94h0c.52,0,.94.42.94.94v13.35l.9,1.56Z"/>
        </g>
      </g>
    </g>
    <g>
      <g>
        <g>
          <g>
            <polygon class="cls-13" points="73.51 19.9 68.26 19.9 69.14 15.59 72.63 15.59 73.51 19.9"/>
            <path class="cls-19" d="M74.18,20.42h-6.59c-.19,0-.34-.15-.34-.34h0c0-.19.15-.34.34-.34h6.59c.19,0,.34.15.34.34h0c0,.18-.15.34-.34.34Z"/>
          </g>
          <polygon class="cls-15" points="68.87 17.11 68.76 17.78 73.1 18.24 72.9 17.11 68.87 17.11"/>
        </g>
        <g>
          <path class="cls-19" d="M58.66,16.07c0,.58.47,1.04,1.04,1.04h22.36c.57,0,1.04-.47,1.04-1.04v-1h-24.45v1Z"/>
          <path class="cls-13" d="M82.01,0h-22.26c-.6,0-1.09.49-1.09,1.09v14.08h24.45V1.09c0-.6-.49-1.09-1.09-1.09Z"/>
          <rect class="cls-20" x="59.95" y="1.59" width="21.88" height="12.45"/>
        </g>
      </g>
      <g>
        <g>
          <polygon class="cls-14" points="80.02 13.18 69.82 13.18 69.82 13.18 69.82 2.5 80.02 2.5 80.02 13.18"/>
          <g>
            <g>
              <g class="cls-17">
                <g>
                  <rect class="cls-11" x="70.94" y="7.4" width="3.58" height=".13"/>
                  <rect class="cls-11" x="70.94" y="7.71" width="7" height=".13"/>
                </g>
                <g>
                  <rect class="cls-11" x="70.94" y="8.22" width="8.07" height=".09"/>
                  <rect class="cls-11" x="70.94" y="8.48" width="7.12" height=".09"/>
                  <rect class="cls-11" x="70.94" y="9.02" width="4.94" height=".09"/>
                  <rect class="cls-11" x="70.94" y="8.76" width="7.85" height=".09"/>
                </g>
              </g>
              <rect class="cls-19" x="70.94" y="6.57" width="7" height=".3"/>
            </g>
            <g>
              <g class="cls-17">
                <g>
                  <rect class="cls-11" x="70.94" y="10.48" width="3.58" height=".13"/>
                  <rect class="cls-11" x="70.94" y="10.79" width="7" height=".13"/>
                </g>
                <g>
                  <rect class="cls-11" x="70.94" y="11.29" width="8.07" height=".09"/>
                  <rect class="cls-11" x="70.94" y="11.55" width="7.12" height=".09"/>
                  <rect class="cls-11" x="70.94" y="12.1" width="4.94" height=".09"/>
                  <rect class="cls-11" x="70.94" y="11.84" width="7.85" height=".09"/>
                </g>
              </g>
              <rect class="cls-18" x="70.94" y="9.65" width="7" height=".3"/>
            </g>
            <g>
              <g class="cls-17">
                <g>
                  <rect class="cls-11" x="70.94" y="4.33" width="3.58" height=".13"/>
                  <rect class="cls-11" x="70.94" y="4.64" width="7" height=".13"/>
                </g>
                <g>
                  <rect class="cls-11" x="70.94" y="5.14" width="8.07" height=".09"/>
                  <rect class="cls-11" x="70.94" y="5.4" width="7.12" height=".09"/>
                  <rect class="cls-11" x="70.94" y="5.95" width="4.94" height=".09"/>
                  <rect class="cls-11" x="70.94" y="5.69" width="7.85" height=".09"/>
                </g>
              </g>
              <rect class="cls-10" x="70.94" y="3.5" width="7" height=".3"/>
            </g>
          </g>
        </g>
        <g>
          <rect class="cls-14" x="61.82" y="2.5" width="7.08" height="10.68"/>
          <g>
            <g>
              <g>
                <rect class="cls-24" x="62.45" y="12.02" width="5.72" height=".31"/>
                <rect class="cls-24" x="62.45" y="11.5" width="5.72" height=".31"/>
                <rect class="cls-24" x="62.45" y="10.98" width="5.72" height=".31"/>
              </g>
              <g>
                <path class="cls-19" d="M62.45,11.81v-.31h3.18c.11,0,.2.07.2.15h0c0,.08-.09.15-.2.15h-3.18Z"/>
                <path class="cls-18" d="M62.45,12.33v-.31h4.91c.11,0,.2.07.2.15h0c0,.08-.09.15-.2.15h-4.91Z"/>
                <path class="cls-10" d="M62.45,11.28v-.31h3.67c.11,0,.2.07.2.15h0c0,.08-.09.15-.2.15h-3.67Z"/>
              </g>
            </g>
            <g class="cls-17">
              <g>
                <rect class="cls-11" x="62.45" y="8.5" width="2.24" height=".13"/>
                <rect class="cls-11" x="62.45" y="8.82" width="4.38" height=".13"/>
              </g>
              <g>
                <rect class="cls-11" x="62.45" y="9.34" width="5.04" height=".09"/>
                <rect class="cls-11" x="62.45" y="9.61" width="4.45" height=".09"/>
                <rect class="cls-11" x="62.45" y="10.17" width="3.08" height=".09"/>
                <rect class="cls-11" x="62.45" y="9.9" width="4.91" height=".09"/>
              </g>
            </g>
            <g>
              <g>
                <path class="cls-7" d="M66.88,6.79h-3.21v-3.22h3.21v3.22ZM63.91,6.54h2.73v-2.73h-2.73v2.73Z"/>
                <rect class="cls-24" x="63.79" y="3.69" width="2.97" height="2.97"/>
              </g>
              <g>
                <path class="cls-1" d="M66.62,6.44c-.06-.48-.48-.83-.94-.83h-.15l-.18.1h-.17l-.1-.1h-.23c-.46,0-.66.34-.86.82l-.09.24h2.75l-.03-.23Z"/>
                <path class="cls-23" d="M65.22,5.77h.19c.09,0,.16-.07.16-.16v-.55h-.51v.55c0,.09.07.16.16.16Z"/>
                <path class="cls-12" d="M65.75,4.62s.11.87-.42.84c0,0-.42.06-.5-.29-.07-.35-.11-.74-.11-.74,0,0-.01-.18.11-.19.23-.03.68-.1.79.05.11.15.11.34.11.34Z"/>
                <path class="cls-8" d="M65.29,4.55s-.22.09-.33.06c-.14-.05-.06-.15-.18-.05-.03.03-.02.06-.03.12,0,.05-.18-.38,0-.58.18-.2.35-.24.43-.26s.23-.01.29.14c0,0,.25-.03.34.11s.11.22.08.43c-.03.17-.12.22-.16.32-.02-.03.02-.12-.05-.16-.08-.05-.09-.09-.04-.17.05-.08-.08-.16-.11-.18-.03-.02-.05-.03-.09.02-.03.05-.02.13-.18.2Z"/>
              </g>
            </g>
          </g>
        </g>
      </g>
      <path class="cls-3" d="M59.93,1.59v1.91c5.45.36,18.58-.45,21.9,5.27V1.59h-21.9Z"/>
    </g>
  </g>
</svg>