<svg width="578" height="267" viewBox="0 0 578 267" fill="none" xmlns="http://www.w3.org/2000/svg">
<g clip-path="url(#clip0_2834_3068)">
<g filter="url(#filter0_f_2834_3068)">
<path d="M264.723 46.4569L396.214 -35.8585C404.347 -40.9502 413.201 -38.8631 418.348 -30.6407L503.279 105.028C485.879 125.458 480.765 153.457 494.491 175.383C508.218 197.309 535.637 204.941 561.616 198.215L586.495 237.957C591.642 246.179 589.651 255.055 581.518 260.147L265.668 457.874C257.535 462.965 248.681 460.878 243.534 452.656L219.513 414.285C236.913 393.855 242.027 365.856 228.301 343.93C214.575 322.004 187.155 314.372 161.176 321.098L76.2453 185.429C71.098 177.206 73.0887 168.33 81.2222 163.239L212.713 80.9232M179.445 0.654695L206.557 -16.3176C214.69 -21.4092 223.544 -19.3221 228.691 -11.0997L271.586 57.4201C276.733 65.6424 274.742 74.5185 266.609 79.6101L239.497 96.5824C231.364 101.674 222.51 99.5869 217.363 91.3646L174.468 22.8448C169.321 14.6224 171.312 5.74637 179.445 0.654695Z" stroke="#FAF8FF" stroke-opacity="0.08" stroke-width="6"/>
<path d="M370.722 270.031C380.455 263.938 383.352 251.023 377.192 241.184C371.033 231.345 358.15 228.308 348.417 234.401C338.684 240.494 335.787 253.409 341.946 263.248C348.106 273.087 360.989 276.124 370.722 270.031Z" fill="#FAF8FF" fill-opacity="0.08"/>
<path d="M442.569 225.054C452.302 218.961 455.198 206.046 449.039 196.207C442.88 186.368 429.996 183.331 420.264 189.424C410.531 195.517 407.634 208.432 413.793 218.271C419.953 228.11 432.836 231.147 442.569 225.054Z" fill="#FAF8FF" fill-opacity="0.08"/>
<path d="M164.698 191.093L392.435 48.5265C399.213 44.2834 408.067 46.3702 412.356 53.2217C416.645 60.0731 414.654 68.9488 407.876 73.1919L180.139 215.759C173.361 220.002 164.508 217.915 160.218 211.064C155.929 204.212 157.92 195.337 164.698 191.093Z" fill="#FAF8FF" fill-opacity="0.08"/>
<path d="M183.573 221.242L411.31 78.675C418.088 74.4319 426.942 76.5186 431.231 83.3701C435.52 90.2216 433.529 99.0972 426.751 103.34L199.014 245.907C192.236 250.15 183.383 248.064 179.094 241.212C174.804 234.361 176.795 225.485 183.573 221.242Z" fill="#FAF8FF" fill-opacity="0.08"/>
</g>
</g>
<defs>
<filter id="filter0_f_2834_3068" x="68.4121" y="-43.6162" width="525.915" height="509.247" filterUnits="userSpaceOnUse" color-interpolation-filters="sRGB">
<feFlood flood-opacity="0" result="BackgroundImageFix"/>
<feBlend mode="normal" in="SourceGraphic" in2="BackgroundImageFix" result="shape"/>
<feGaussianBlur stdDeviation="1" result="effect1_foregroundBlur_2834_3068"/>
</filter>
<clipPath id="clip0_2834_3068">
<rect width="439" height="465" fill="white" transform="translate(0 93.9414) rotate(-32.0472)"/>
</clipPath>
</defs>
</svg>
