<svg width="74" height="57" viewBox="0 0 74 57" fill="none" xmlns="http://www.w3.org/2000/svg">
<rect x="0.5" y="0.5" width="73" height="56" rx="5.5" stroke="#C6C6CC"/>
<mask id="mask0_2309_2013" style="mask-type:alpha" maskUnits="userSpaceOnUse" x="16" y="8" width="41" height="41">
<rect x="16" y="8" width="41" height="41" fill="#D9D9D9"/>
</mask>
<g mask="url(#mask0_2309_2013)">
<path d="M53.5846 17.6469V38.1469C53.5846 39.0865 53.2501 39.8908 52.581 40.5599C51.9119 41.229 51.1076 41.5636 50.168 41.5636H22.8346C21.8951 41.5636 21.0907 41.229 20.4216 40.5599C19.7525 39.8908 19.418 39.0865 19.418 38.1469V17.6469C19.418 16.7073 19.7525 15.903 20.4216 15.2339C21.0907 14.5648 21.8951 14.2302 22.8346 14.2302H50.168C51.1076 14.2302 51.9119 14.5648 52.581 15.2339C53.2501 15.903 53.5846 16.7073 53.5846 17.6469ZM22.8346 21.0636H50.168V17.6469H22.8346V21.0636ZM22.8346 27.8969V38.1469H50.168V27.8969H22.8346Z" fill="#45474C"/>
</g>
</svg>
