<svg width="414" height="376" viewBox="0 0 414 376" fill="none" xmlns="http://www.w3.org/2000/svg">
<g clip-path="url(#clip0_3050_2647)">
<path d="M253.721 188.236C304.019 175.518 341.75 176.339 368.412 186.346C394.973 196.317 410.589 215.42 416.729 239.467L310.863 414.227L134.653 310.789C128.626 286.714 133.286 262.485 151.916 241.088C170.616 219.611 203.423 200.954 253.721 188.236Z" fill="#C1C6DB" stroke="#C1C6DB"/>
<path d="M256.227 163.792C286.289 156.19 304.463 125.522 296.819 95.2915C289.175 65.0612 258.609 46.7168 228.547 54.3182C198.484 61.9195 180.311 92.588 187.955 122.818C195.598 153.048 226.165 171.393 256.227 163.792Z" stroke="#C1C6DB" strokeWidth="16" strokeMiterlimit="10"/>
<path d="M412.551 94.9306C436.214 188.515 416.384 286.938 307.931 402.637C170.629 360.027 93.2903 275.224 69.6272 181.64C45.9641 88.0557 103.509 -7.24375 198.235 -31.1955C292.961 -55.1472 388.888 1.34635 412.551 94.9306Z" stroke="#C1C6DB" strokeWidth="28" strokeMiterlimit="10"/>
<path d="M232.791 94.0103L237.774 113.715L268.311 119.971" stroke="#C1C6DB" strokeWidth="10" strokeLinecap="round" strokeLinejoin="round"/>
</g>
<defs>
<clipPath id="clip0_3050_2647">
<rect width="408" height="499" fill="white" transform="translate(0 -3.9834) rotate(-14.19)"/>
</clipPath>
</defs>
</svg>
