<svg width="20" height="23" viewBox="0 0 20 23" fill="none" xmlns="http://www.w3.org/2000/svg">
<path d="M11.3874 5.78782H18.2885C18.7154 5.78782 19 6.08633 19 6.53409V13.9222C17.8617 14.2953 17.0079 15.2654 17.0079 16.4595C17.0079 17.6535 17.8617 18.6236 19 18.9968V21.161C19 21.6087 18.7154 21.9072 18.2885 21.9072H1.71146C1.28458 21.9072 1 21.6087 1 21.161V19.0714C2.13834 18.6983 2.99209 17.7281 2.99209 16.5341C2.99209 15.3401 2.13834 14.3699 1 13.9968V6.60872C1 6.16096 1.28458 5.86245 1.71146 5.86245H8.61265M9.25297 1.90723H10.6759C11.1028 1.90723 11.3874 2.20573 11.3874 2.6535V6.38484C11.3874 6.8326 11.1028 7.13111 10.6759 7.13111H9.25297C8.82609 7.13111 8.5415 6.8326 8.5415 6.38484V2.6535C8.5415 2.20573 8.82609 1.90723 9.25297 1.90723Z" stroke="#FFFBFF" strokeWidth="2"/>
<path d="M6.05176 17.1313C6.56257 17.1313 6.97656 16.6964 6.97656 16.1606C6.97634 15.625 6.56243 15.1909 6.05176 15.1909M6.05176 17.1313V15.1909M6.05176 17.1313L5.95703 17.1265C5.49075 17.0767 5.12695 16.6629 5.12695 16.1606C5.12717 15.6251 5.54113 15.191 6.05176 15.1909M6.05176 17.1313V15.1909" fill="#FFFBFF" stroke="#FFFBFF" strokeWidth="4"/>
<path d="M10.1064 17.1323C10.6173 17.1323 11.0312 16.6974 11.0312 16.1616C11.031 15.626 10.6171 15.1919 10.1064 15.1919M10.1064 17.1323V15.1919M10.1064 17.1323L10.0117 17.1274C9.54544 17.0777 9.18164 16.6639 9.18164 16.1616C9.18186 15.6261 9.59582 15.1919 10.1064 15.1919M10.1064 17.1323V15.1919" fill="#FFFBFF" stroke="#FFFBFF" strokeWidth="4"/>
<path d="M13.8779 17.1304C14.3887 17.1304 14.8027 16.6955 14.8027 16.1597C14.8025 15.6241 14.3886 15.1899 13.8779 15.1899M13.8779 17.1304V15.1899M13.8779 17.1304L13.7832 17.1255C13.3169 17.0757 12.9531 16.6619 12.9531 16.1597C12.9533 15.6241 13.3673 15.19 13.8779 15.1899M13.8779 17.1304V15.1899" fill="#FFFBFF" stroke="#FFFBFF" strokeWidth="4"/>
<mask id="path-5-inside-1_2950_2551" fill="white">
<path d="M4.20282 8.99805H16.1554C16.5111 8.99805 16.7957 9.29655 16.7957 9.66969C16.7957 10.0428 16.5111 10.3413 16.1554 10.3413H4.20282C3.84709 10.3413 3.5625 10.0428 3.5625 9.66969C3.5625 9.29655 3.84709 8.99805 4.20282 8.99805Z"/>
</mask>
<path d="M4.20282 8.99805H16.1554C16.5111 8.99805 16.7957 9.29655 16.7957 9.66969C16.7957 10.0428 16.5111 10.3413 16.1554 10.3413H4.20282C3.84709 10.3413 3.5625 10.0428 3.5625 9.66969C3.5625 9.29655 3.84709 8.99805 4.20282 8.99805Z" fill="#FFFBFF"/>
<path d="M4.20282 8.99805V12.998H16.1554V8.99805V4.99805H4.20282V8.99805ZM16.1554 8.99805V12.998C14.1241 12.998 12.7957 11.3235 12.7957 9.66969H16.7957H20.7957C20.7957 7.26959 18.8981 4.99805 16.1554 4.99805V8.99805ZM16.7957 9.66969H12.7957C12.7957 8.01587 14.1241 6.34133 16.1554 6.34133V10.3413V14.3413C18.8981 14.3413 20.7957 12.0698 20.7957 9.66969H16.7957ZM16.1554 10.3413V6.34133H4.20282V10.3413V14.3413H16.1554V10.3413ZM4.20282 10.3413V6.34133C6.23412 6.34133 7.5625 8.01588 7.5625 9.66969H3.5625H-0.4375C-0.4375 12.0698 1.46005 14.3413 4.20282 14.3413V10.3413ZM3.5625 9.66969H7.5625C7.5625 11.3235 6.23411 12.998 4.20282 12.998V8.99805V4.99805C1.46006 4.99805 -0.4375 7.2696 -0.4375 9.66969H3.5625Z" fill="#FFFBFF" mask="url(#path-5-inside-1_2950_2551)"/>
<mask id="path-7-inside-2_2950_2551" fill="white">
<path d="M4.20282 10.6382H16.1554C16.5111 10.6382 16.7957 10.9367 16.7957 11.3098C16.7957 11.683 16.5111 11.9815 16.1554 11.9815H4.20282C3.84709 11.9815 3.5625 11.683 3.5625 11.3098C3.5625 10.9367 3.84709 10.6382 4.20282 10.6382Z"/>
</mask>
<path d="M4.20282 10.6382H16.1554C16.5111 10.6382 16.7957 10.9367 16.7957 11.3098C16.7957 11.683 16.5111 11.9815 16.1554 11.9815H4.20282C3.84709 11.9815 3.5625 11.683 3.5625 11.3098C3.5625 10.9367 3.84709 10.6382 4.20282 10.6382Z" fill="#FFFBFF"/>
<path d="M4.20282 10.6382V14.6382H16.1554V10.6382V6.63818H4.20282V10.6382ZM16.1554 10.6382V14.6382C14.1241 14.6382 12.7957 12.9637 12.7957 11.3098H16.7957H20.7957C20.7957 8.90973 18.8981 6.63818 16.1554 6.63818V10.6382ZM16.7957 11.3098H12.7957C12.7957 9.65599 14.1241 7.98147 16.1554 7.98147V11.9815V15.9815C18.8981 15.9815 20.7957 13.7099 20.7957 11.3098H16.7957ZM16.1554 11.9815V7.98147H4.20282V11.9815V15.9815H16.1554V11.9815ZM4.20282 11.9815V7.98147C6.23411 7.98147 7.5625 9.65601 7.5625 11.3098H3.5625H-0.4375C-0.4375 13.7099 1.46006 15.9815 4.20282 15.9815V11.9815ZM3.5625 11.3098H7.5625C7.5625 12.9636 6.23412 14.6382 4.20282 14.6382V10.6382V6.63818C1.46005 6.63818 -0.4375 8.90974 -0.4375 11.3098H3.5625Z" fill="#FFFBFF" mask="url(#path-7-inside-2_2950_2551)"/>
</svg>
