<svg width="65" height="70" viewBox="0 0 65 70" fill="none" xmlns="http://www.w3.org/2000/svg">
<g clip-path="url(#clip0_2894_3013)">
<path d="M37.1428 15.3541H60.238C61.6666 15.3541 62.619 16.3124 62.619 17.7499V41.4687C58.8094 42.6666 55.9523 45.7812 55.9523 49.6145C55.9523 53.4478 58.8094 56.5624 62.619 57.7603V64.7083C62.619 66.1458 61.6666 67.1041 60.238 67.1041H4.76181C3.33324 67.1041 2.38086 66.1458 2.38086 64.7083V57.9999C6.19038 56.802 9.04753 53.6874 9.04753 49.8541C9.04753 46.0208 6.19038 42.9062 2.38086 41.7083V17.9895C2.38086 16.552 3.33324 15.5937 4.76181 15.5937H27.857M29.9999 2.89575H34.7618C36.1904 2.89575 37.1428 3.85409 37.1428 5.29159V17.2708C37.1428 18.7083 36.1904 19.6666 34.7618 19.6666H29.9999C28.5713 19.6666 27.619 18.7083 27.619 17.2708V5.29159C27.619 3.85409 28.5713 2.89575 29.9999 2.89575Z" stroke="#DAE2FF" strokeWidth="6"/>
<path d="M19.2861 47.5415C19.879 47.5418 20.3807 48.0287 20.3809 48.6558C20.3809 49.2829 19.8791 49.7707 19.2861 49.771C18.693 49.771 18.1904 49.2831 18.1904 48.6558C18.1906 48.0286 18.6931 47.5415 19.2861 47.5415Z" stroke="#DAE2FF" strokeWidth="4"/>
<path d="M32.8574 47.5415C33.4503 47.5418 33.952 48.0287 33.9521 48.6558C33.9521 49.2829 33.4504 49.7707 32.8574 49.771C32.2643 49.771 31.7617 49.2831 31.7617 48.6558C31.7619 48.0286 32.2644 47.5415 32.8574 47.5415Z" stroke="#DAE2FF" strokeWidth="4"/>
<path d="M45.4766 47.5415C46.0694 47.5418 46.5711 48.0287 46.5713 48.6558C46.5713 49.2829 46.0695 49.7707 45.4766 49.771C44.8834 49.771 44.3809 49.2831 44.3809 48.6558C44.381 48.0286 44.8835 47.5415 45.4766 47.5415Z" stroke="#DAE2FF" strokeWidth="4"/>
<path d="M13.0947 27.6562H53.0947C53.1406 27.6562 53.1709 27.6717 53.1943 27.6953C53.218 27.7192 53.2383 27.7549 53.2383 27.8125C53.2383 27.8701 53.218 27.9058 53.1943 27.9297C53.1709 27.9533 53.1406 27.9688 53.0947 27.9688H13.0947C13.049 27.9687 13.0195 27.9533 12.9961 27.9297C12.9724 27.9058 12.9521 27.8702 12.9521 27.8125C12.9521 27.7548 12.9724 27.7192 12.9961 27.6953C13.0195 27.6717 13.049 27.6563 13.0947 27.6562Z" stroke="#DAE2FF" strokeWidth="4"/>
<path d="M13.0947 32.927H53.0947C53.1406 32.927 53.1709 32.9424 53.1943 32.9661C53.218 32.99 53.2383 33.0257 53.2383 33.0833C53.2383 33.1408 53.218 33.1765 53.1943 33.2004C53.1709 33.2241 53.1406 33.2395 53.0947 33.2395H13.0947C13.049 33.2394 13.0195 33.224 12.9961 33.2004C12.9724 33.1765 12.9521 33.141 12.9521 33.0833C12.9521 33.0255 12.9724 32.99 12.9961 32.9661C13.0195 32.9425 13.049 32.9271 13.0947 32.927Z" stroke="#DAE2FF" strokeWidth="4"/>
</g>
<defs>
<clipPath id="clip0_2894_3013">
<rect width="65" height="69" fill="white" transform="translate(0 0.5)"/>
</clipPath>
</defs>
</svg>
