<svg width="220" height="73" viewBox="0 0 220 73" fill="none" xmlns="http://www.w3.org/2000/svg">
<path d="M13.6533 43.9984C14.1769 44.3958 14.7862 44.7811 15.4951 45.1616L38.0901 57.1492V51.4193L17.5918 40.6757C16.3268 40.0344 15.7117 39.1683 15.7117 38.0741C15.7117 37.3771 15.9816 36.7624 16.5284 36.2188L13.6533 34.6934V43.9972V43.9984Z" fill="url(#paint0_linear_3135_2639)"/>
<path d="M21.6624 33.2945L16.3351 30.502L13.9384 29.2458C12.6735 28.6045 12.0584 27.7385 12.0584 26.6442C12.0584 25.5499 12.6735 24.7213 13.9384 24.0051L34.2978 13.2989L34.4762 7.51465L11.8418 19.5216C11.1329 19.9057 10.5236 20.2971 10 20.6993V32.5698C10.5236 32.9671 11.1329 33.3524 11.8418 33.7329L13.6535 34.6943L16.5285 36.2198L34.4368 45.7206V39.9906L21.6624 33.2957V33.2945Z" fill="#0C6EFF"/>
<path d="M17.6396 29.809L22.989 32.5979L38.0905 24.6552V18.9253L17.6396 29.809Z" fill="url(#paint1_linear_3135_2639)"/>
<path d="M72.3073 39.7761C72.3073 39.7761 72.3073 39.3702 73.6505 39.3702C75.064 39.3702 75.0289 39.7761 75.0289 39.7761C74.9236 42.9083 71.6006 45.5997 67.3236 45.5997C62.233 45.5997 58.8047 42.1714 58.8047 37.0864V35.1701C58.8047 30.0834 62.233 26.6567 67.0045 26.6567C71.776 26.6567 75.064 30.1948 75.064 35.1701V36.5341C75.064 36.5341 75.064 37.0132 73.7909 37.0132H61.8788V37.6769C61.8788 41.215 64.1059 43.2061 67.322 43.2061C70.2557 43.2061 72.3057 41.4745 72.3057 39.7778L72.3073 39.7761ZM67.1465 29.1618C64.1776 29.1618 61.8804 31.2261 61.8804 34.7642V34.9123H72.344C72.2387 31.2627 69.9048 29.1618 67.1481 29.1618H67.1465Z" fill="#0C6EFF" stroke="#0C6EFF" stroke-width="0.5" stroke-miterlimit="10"/>
<path d="M93.9389 45.0095C93.9389 45.0095 93.9389 45.5251 92.3835 45.5251C90.8281 45.5251 90.8632 45.0095 90.8632 45.0095V33.4737C90.8632 33.4737 90.8632 29.2353 86.5862 29.2353H81.4254V45.0095C81.4254 45.0095 81.4254 45.5251 79.87 45.5251C78.3146 45.5251 78.3497 45.0095 78.3497 45.0095V27.502C78.3497 27.502 79.0213 26.7285 86.5862 26.7285C94.1511 26.7285 93.9389 33.4737 93.9389 33.4737V45.0095Z" fill="#0C6EFF" stroke="#0C6EFF" stroke-width="0.5" stroke-miterlimit="10"/>
<path d="M96.9102 37.0844V35.1682C96.9102 30.0814 100.622 26.6548 105.287 26.6548C109.387 26.6548 112.922 29.1981 113.064 33.1421C113.064 33.1421 112.959 33.548 111.509 33.548C110.307 33.548 110.236 33.1421 110.236 33.1421C110.236 30.7834 107.832 29.2347 105.287 29.2347C102.353 29.2347 99.9843 31.299 99.9843 34.8371V37.4903C99.9843 41.0284 102.353 43.0195 105.287 43.0195C107.903 43.0195 110.236 41.4708 110.236 39.1487C110.236 39.1487 110.343 38.7428 111.544 38.7428C112.957 38.7428 113.064 39.1487 113.064 39.1487C112.922 43.0927 109.459 45.5994 105.324 45.5994C100.517 45.5994 96.9117 42.1711 96.9117 37.0861L96.9102 37.0844Z" fill="#0C6EFF" stroke="#0C6EFF" stroke-width="0.5" stroke-miterlimit="10"/>
<path d="M114.584 35.1682C114.584 30.0814 118.189 26.6548 122.926 26.6548C127.662 26.6548 131.303 30.0831 131.303 35.1682V37.0844C131.303 42.1711 127.768 45.5978 122.926 45.5978C118.084 45.5978 114.584 42.1695 114.584 37.0844V35.1682ZM117.66 37.4537C117.66 40.9918 119.887 43.0195 122.926 43.0195C125.965 43.0195 128.229 40.9918 128.229 37.4537V34.8005C128.229 31.2624 125.931 29.2347 122.926 29.2347C119.92 29.2347 117.66 31.2624 117.66 34.8005V37.4537Z" fill="#0C6EFF" stroke="#0C6EFF" stroke-width="0.5" stroke-miterlimit="10"/>
<path d="M133.705 33.62C133.705 33.62 133.705 26.8016 141.023 26.8016C143.355 26.8016 145.017 26.8382 146.219 26.9114V18.7657C146.219 18.7657 146.219 18.25 147.739 18.25C149.259 18.25 149.259 18.7657 149.259 18.7657V44.7499C149.259 44.7499 148.588 45.5234 141.023 45.5234C133.458 45.5234 133.705 38.705 133.705 38.705V33.6183V33.62ZM146.219 29.3084H141.023C136.746 29.3084 136.746 33.62 136.746 33.62V38.7067C136.746 38.7067 136.746 43.0183 141.023 43.0183H146.219V29.3084Z" fill="#0C6EFF" stroke="#0C6EFF" stroke-width="0.5" stroke-miterlimit="10"/>
<path d="M165.836 39.7761C165.836 39.7761 165.836 39.3702 167.179 39.3702C168.592 39.3702 168.557 39.7761 168.557 39.7761C168.452 42.9083 165.129 45.5997 160.852 45.5997C155.761 45.5997 152.333 42.1714 152.333 37.0864V35.1701C152.333 30.0834 155.761 26.6567 160.533 26.6567C165.304 26.6567 168.592 30.1948 168.592 35.1701V36.5341C168.592 36.5341 168.592 37.0132 167.319 37.0132H155.407V37.6769C155.407 41.215 157.634 43.2061 160.85 43.2061C163.784 43.2061 165.834 41.4745 165.834 39.7778L165.836 39.7761ZM160.675 29.1618C157.706 29.1618 155.409 31.2261 155.409 34.7642V34.9123H165.872C165.767 31.2627 163.433 29.1618 160.676 29.1618H160.675Z" fill="#0C6EFF" stroke="#0C6EFF" stroke-width="0.5" stroke-miterlimit="10"/>
<path d="M190.048 39.5543C190.048 39.5543 189.978 45.5243 182.448 45.5243C173.045 45.5243 172.233 45.0819 172.233 45.0819V19.9826C172.233 19.9826 173.152 19.3555 181.636 19.3555C189.164 19.3555 189.164 25.0676 189.164 25.0676V27.0205C189.164 27.0205 189.164 30.6318 185.347 32.1072C190.048 33.3598 190.048 37.673 190.048 37.673V39.5527V39.5543ZM175.414 30.8563H181.601C185.983 30.8563 185.983 27.1702 185.983 27.1702V25.585C185.983 25.585 185.983 21.8622 181.601 21.8622H175.414V30.8547V30.8563ZM175.414 43.0192H182.483C186.865 43.0192 186.865 39.1119 186.865 39.1119V37.49C186.865 37.49 186.865 33.5827 182.483 33.5827H175.414V43.0176V43.0192Z" fill="#0C6EFF" stroke="#0C6EFF" stroke-width="0.5" stroke-miterlimit="10"/>
<path d="M195.033 18.9517C196.341 18.9517 196.73 19.3941 196.73 21.0526C196.73 22.711 196.341 23.1169 195.033 23.1169C193.725 23.1169 193.372 22.7858 193.372 21.0526C193.372 19.3193 193.761 18.9517 195.033 18.9517ZM193.512 27.2438C193.512 27.2438 193.512 26.7281 195.033 26.7281C196.553 26.7281 196.588 27.2438 196.588 27.2438V45.0091C196.588 45.0091 196.588 45.5247 195.033 45.5247C193.477 45.5247 193.512 45.0091 193.512 45.0091V27.2438Z" fill="#0C6EFF" stroke="#0C6EFF" stroke-width="0.5" stroke-miterlimit="10"/>
<path d="M206.061 40.6761L215.62 28.1656C215.761 28.0824 216 27.7913 216 26.77C216 25.4459 215.574 25.3428 215.445 25.3428H201.696C201.566 25.3428 201.14 25.4459 201.14 26.77C201.14 28.0941 201.566 28.1972 201.696 28.1972H211.563L201.996 40.6745H206.063L206.061 40.6761Z" fill="#0C6EFF"/>
<path d="M215.429 42.6265H205.578L201.519 42.6597C201.379 42.7429 201.14 43.034 201.14 44.0553C201.14 45.3794 201.566 45.4826 201.695 45.4826H215.427V42.6281L215.429 42.6265Z" fill="#4D38B7"/>
<defs>
<linearGradient id="paint0_linear_3135_2639" x1="13.6533" y1="45.9213" x2="38.0901" y2="45.9213" gradientUnits="userSpaceOnUse">
<stop stop-color="#4D38B7"/>
<stop offset="0.06" stop-color="#4C42C0"/>
<stop offset="0.21" stop-color="#4B55D3"/>
<stop offset="0.38" stop-color="#4A63E0"/>
<stop offset="0.59" stop-color="#4A6BE7"/>
<stop offset="0.97" stop-color="#0C6EFF"/>
</linearGradient>
<linearGradient id="paint1_linear_3135_2639" x1="17.6396" y1="25.7616" x2="38.0905" y2="25.7616" gradientUnits="userSpaceOnUse">
<stop stop-color="#4D38B7"/>
<stop offset="1" stop-color="#0C6EFF"/>
</linearGradient>
</defs>
</svg>
