<svg width="74" height="57" viewBox="0 0 74 57" fill="none" xmlns="http://www.w3.org/2000/svg">
<rect x="0.5" y="0.5" width="73" height="56" rx="5.5" stroke="#C6C6CC"/>
<path d="M28.5 42C35.4036 42 41 36.6274 41 30C41 23.3726 35.4036 18 28.5 18C21.5964 18 16 23.3726 16 30C16 36.6274 21.5964 42 28.5 42Z" fill="#E80B26"/>
<path d="M44.5 42C51.4036 42 57 36.6274 57 30C57 23.3726 51.4036 18 44.5 18C37.5964 18 32 23.3726 32 30C32 36.6274 37.5964 42 44.5 42Z" fill="#F59D31"/>
<path d="M36.5 39C39.262 36.789 41 33.5761 41 30C41 26.4239 39.262 23.2109 36.5 21C33.738 23.2109 32 26.4239 32 30C32 33.5761 33.738 36.789 36.5 39Z" fill="#FC6020"/>
</svg>
