<svg width="395" height="376" viewBox="0 0 395 376" fill="none" xmlns="http://www.w3.org/2000/svg">
<g clip-path="url(#clip0_3050_2678)">
<path d="M248.776 68.5811L389.253 33.0722C397.943 30.8758 405.21 35.2444 407.422 43.9937L443.913 188.357C422.584 201.505 409.997 224.855 415.895 248.186C421.792 271.518 443.963 286.082 468.977 287.516L479.666 329.804C481.878 338.553 477.559 345.85 468.87 348.047L131.434 433.341C122.745 435.537 115.477 431.169 113.266 422.42L102.945 381.59C124.274 368.441 136.861 345.092 130.963 321.76C125.065 298.429 102.895 283.865 77.8805 282.431L41.3895 138.068C39.1779 129.318 43.4964 122.021 52.1858 119.825L192.664 84.316M186.162 3.73602L215.126 -3.58539C223.816 -5.78181 231.083 -1.41324 233.295 7.33605L251.724 80.2468C253.936 88.9961 249.618 96.2932 240.928 98.4896L211.964 105.811C203.274 108.007 196.007 103.639 193.796 94.8896L175.366 21.9789C173.154 13.2296 177.473 5.93244 186.162 3.73602Z" stroke="#C1C6DB" strokeWidth="28"/>
<path d="M196.186 317.685C206.584 315.057 212.867 304.439 210.221 293.969C207.575 283.5 197 277.143 186.602 279.771C176.204 282.4 169.921 293.018 172.567 303.487C175.214 313.957 185.788 320.313 196.186 317.685Z" fill="#C1C6DB"/>
<path d="M278.735 296.819C289.132 294.19 295.416 283.573 292.77 273.103C290.123 262.633 279.549 256.277 269.151 258.905C258.753 261.533 252.47 272.151 255.116 282.621C257.762 293.09 268.337 299.447 278.735 296.819Z" fill="#C1C6DB"/>
<path d="M355.491 277.417C365.888 274.789 372.172 264.171 369.526 253.702C366.879 243.232 356.305 236.875 345.907 239.504C335.509 242.132 329.225 252.75 331.872 263.22C334.518 273.689 345.093 280.046 355.491 277.417Z" fill="#C1C6DB"/>
<path d="M118.354 168.258L361.656 106.758C368.897 104.927 376.164 109.296 378.007 116.587C379.85 123.878 375.532 131.175 368.291 133.006L124.989 194.505C117.748 196.336 110.481 191.967 108.638 184.676C106.795 177.385 111.113 170.088 118.354 168.258Z" fill="#C1C6DB"/>
<path d="M130.007 217.404L373.308 155.904C380.549 154.073 387.817 158.442 389.66 165.733C391.503 173.024 387.184 180.321 379.943 182.152L136.641 243.651C129.4 245.482 122.133 241.113 120.29 233.822C118.447 226.531 122.766 219.234 130.007 217.404Z" fill="#C1C6DB"/>
</g>
<defs>
<clipPath id="clip0_3050_2678">
<rect width="407.8" height="433.175" fill="white" transform="translate(0 35.2788) rotate(-14.1856)"/>
</clipPath>
</defs>
</svg>
