<svg width="341" height="320" viewBox="0 0 341 320" fill="none" xmlns="http://www.w3.org/2000/svg">
<path d="M0.875 152.542V2.875C0.875 1.77043 1.77043 0.875 2.875 0.875H152.542V152.542H0.875ZM38.7917 114.625H114.625V38.7917H38.7917V114.625ZM2.875 342.125C1.77043 342.125 0.875 341.23 0.875 340.125V190.458H152.542V342.125H2.875ZM38.7917 304.208H114.625V228.375H38.7917V304.208ZM190.458 152.542V0.875H340.125C341.23 0.875 342.125 1.77043 342.125 2.875V152.542H190.458ZM228.375 114.625H304.208V38.7917H228.375V114.625ZM304.208 342.125V304.208H342.125V340.125C342.125 341.23 341.23 342.125 340.125 342.125H304.208ZM190.458 228.375V190.458H228.375V228.375H190.458ZM228.375 266.292V228.375H266.292V266.292H228.375ZM190.458 304.208V266.292H228.375V304.208H190.458ZM228.375 342.125V304.208H266.292V342.125H228.375ZM266.292 304.208V266.292H304.208V304.208H266.292ZM266.292 228.375V190.458H304.208V228.375H266.292ZM304.208 266.292V228.375H342.125V266.292H304.208Z" fill="white"/>
</svg>
