<svg width="395" height="376" viewBox="0 0 395 376" fill="none" xmlns="http://www.w3.org/2000/svg">
<g clip-path="url(#clip0_2909_3283)">
<path d="M248.776 68.5811L389.253 33.0722C397.943 30.8758 405.21 35.2444 407.422 43.9937L443.913 188.357C422.584 201.505 409.997 224.855 415.895 248.186C421.792 271.518 443.963 286.082 468.977 287.516L479.666 329.804C481.878 338.553 477.559 345.85 468.87 348.047L131.434 433.341C122.745 435.537 115.477 431.169 113.266 422.42L102.945 381.59C124.274 368.441 136.861 345.092 130.963 321.76C125.065 298.429 102.895 283.865 77.8805 282.431L41.3895 138.068C39.1779 129.318 43.4964 122.021 52.1858 119.825L192.664 84.316M186.162 3.73602L215.126 -3.58539C223.816 -5.78181 231.083 -1.41324 233.295 7.33605L251.724 80.2468C253.936 88.9961 249.618 96.2932 240.928 98.4896L211.964 105.811C203.274 108.007 196.007 103.639 193.796 94.8896L175.366 21.9789C173.154 13.2296 177.473 5.93244 186.162 3.73602Z" stroke="#C1C6DB" stroke-width="28"/>
<path d="M187.582 283.649C195.813 281.569 204.231 286.596 206.343 294.949C208.454 303.302 203.436 311.727 195.206 313.807C186.975 315.888 178.556 310.859 176.445 302.507C174.334 294.154 179.352 285.73 187.582 283.649Z" stroke="#C1C6DB" stroke-width="8"/>
<path d="M270.131 262.783C278.362 260.703 286.78 265.731 288.891 274.083C291.003 282.436 285.985 290.861 277.754 292.941C269.523 295.022 261.105 289.993 258.994 281.641C256.883 273.288 261.9 264.864 270.131 262.783Z" stroke="#C1C6DB" stroke-width="8"/>
<path d="M346.887 243.382C355.118 241.301 363.536 246.329 365.647 254.681C367.759 263.034 362.741 271.459 354.51 273.54C346.279 275.62 337.861 270.592 335.75 262.239C333.639 253.886 338.656 245.462 346.887 243.382Z" stroke="#C1C6DB" stroke-width="8"/>
<path d="M360.431 101.91C370.381 99.3952 380.343 105.425 382.855 115.362C385.366 125.299 379.466 135.338 369.516 137.853L126.215 199.353C116.265 201.867 106.302 195.838 103.79 185.902C101.278 175.965 107.18 165.925 117.129 163.41L360.431 101.91Z" stroke="#C1C6DB" stroke-width="10"/>
<path d="M372.083 151.056C382.033 148.541 391.995 154.571 394.507 164.508C397.019 174.445 391.118 184.484 381.169 186.999L137.867 248.499C127.917 251.014 117.954 244.984 115.443 235.048C112.931 225.111 118.832 215.071 128.782 212.556L372.083 151.056Z" stroke="#C1C6DB" stroke-width="10"/>
</g>
<defs>
<clipPath id="clip0_2909_3283">
<rect width="407.8" height="433.175" fill="white" transform="translate(0 35.2788) rotate(-14.1856)"/>
</clipPath>
</defs>
</svg>
