<svg width="74" height="57" viewBox="0 0 74 57" fill="none" xmlns="http://www.w3.org/2000/svg">
<rect x="0.5" y="0.5" width="73" height="56" rx="5.5" stroke="#C6C6CC"/>
<mask id="mask0_2309_1965" style="mask-type:luminance" maskUnits="userSpaceOnUse" x="10" y="21" width="53" height="15">
<path d="M63 21H10V36H63V21Z" fill="white"/>
</mask>
<g mask="url(#mask0_2309_1965)">
<path d="M44.5208 21.0183C40.7576 21.0183 37.3946 22.7179 37.3946 25.8582C37.3946 29.4593 43.359 29.7081 43.359 31.5172C43.359 32.279 42.3572 32.9609 40.646 32.9609C38.2177 32.9609 36.4026 32.0081 36.4026 32.0081L35.6261 35.1769C35.6261 35.1769 37.7169 35.9817 40.4928 35.9817C44.6072 35.9817 47.8448 34.1986 47.8448 31.0048C47.8448 27.1994 41.8555 26.9581 41.8555 25.2789C41.8555 24.6821 42.6779 24.0283 44.3842 24.0283C46.3092 24.0283 47.88 24.7213 47.88 24.7213L48.6401 21.6607C48.6401 21.6607 46.9309 21.0183 44.5208 21.0183ZM10.0911 21.2493L10 21.7113C10 21.7113 11.5832 21.9637 13.0091 22.4674C14.8451 23.0449 14.9759 23.3811 15.2851 24.4253L18.6545 35.7435H23.1713L30.1297 21.2493H25.6233L21.1521 31.104L19.3276 22.7507C19.1603 21.7947 18.3127 21.2493 17.2753 21.2493H10.0911ZM31.9418 21.2493L28.4067 35.7435H32.7039L36.2267 21.2493L31.9418 21.2493ZM55.9092 21.2493C54.8729 21.2493 54.3237 21.7327 53.921 22.5775L47.6251 35.7435H52.1315L53.0036 33.5491H58.4936L59.0236 35.7435H63L59.5313 21.2493H55.9092ZM56.4949 25.1652L57.8308 30.6041H54.2522L56.4949 25.1652Z" fill="#1434CB"/>
</g>
</svg>
